<svg width="100%" height="100%" viewBox="0 0 62 48" version="1.1" xmlns="http://www.w3.org/2000/svg" xmlns:xlink="http://www.w3.org/1999/xlink" xml:space="preserve" xmlns:serif="http://www.serif.com/" style="fill-rule:evenodd;clip-rule:evenodd;stroke-linejoin:round;stroke-miterlimit:2;"><path d="M61.158,22.61l-17.651,-22.61l-3.284,2.564l15.031,19.254l-55.254,0l0,4.167l55.254,-0c0,-0 -15.031,19.254 -15.031,19.254l3.284,2.564l17.651,-22.61c0.026,-0.032 0.05,-0.065 0.073,-0.098l0.062,-0.094l0.038,-0.063l0.014,-0.025c0.06,-0.108 0.11,-0.221 0.15,-0.337l0.014,-0.044c0.054,-0.17 0.086,-0.345 0.095,-0.52l0.003,-0.076l-0.001,-0.082l-0.002,-0.062c-0.009,-0.176 -0.041,-0.351 -0.095,-0.521l-0.014,-0.044c-0.04,-0.116 -0.09,-0.229 -0.15,-0.337l-0.057,-0.096l-0.04,-0.062l-0.017,-0.023c-0.023,-0.034 -0.047,-0.067 -0.073,-0.099Z"/></svg>