<svg width="1894" height="859" viewBox="0 0 7896 3452" version="1.1" xmlns="http://www.w3.org/2000/svg" xmlns:xlink="http://www.w3.org/1999/xlink" xml:space="preserve" xmlns:serif="http://www.serif.com/" style="fill-rule:evenodd;clip-rule:evenodd;stroke-linejoin:round;stroke-miterlimit:2;"><g id="hero"><path d="M7875.73,1798.68l-198.991,-61.031l-136.976,-2.046l-0,-0.04l-385.744,-26.246l-766.57,-172.115c-2.873,-0.63 -5.706,-0.827 -8.46,-0.63l-0,-0.039l-363.67,29.709l-158.421,-78.778c-14.992,-7.477 -368.273,-35.375 -381.692,-39.704l-338.721,-197.142c-5.194,-2.99 -10.939,-4.171 -16.448,-3.738l-272.969,9.759l-113.405,-27.073l-422.694,-235.94l-7.122,-63.825l76.732,-271.748l23.531,-346.316c0.669,-5.942 -0.551,-12.12 -3.896,-17.629l-134.615,-223.23l-0.039,0.039c-3.62,-5.981 -9.365,-10.664 -16.645,-12.671l-198.991,-56.584c-20.344,-6.532 -38.051,8.224 -38.051,26.797l-0,3394.1c-0,15.701 12.749,28.45 28.45,28.45l683.424,-0c15.74,-0 28.489,-12.749 28.489,-28.45c-0,-20.737 -119.662,-221.46 -123.44,-237.632l19.754,-653.558l303.897,-682.952l397.942,82.123l646.908,-45.528l396.369,60.441c2.479,0.394 4.997,0.433 7.398,0.157l720.098,-51.311l205.523,43.087c5.981,1.26 12.001,0.512 17.196,-1.81l-0,0.04l195.803,-86.137c0.512,-0.236 0.945,-0.472 1.456,-0.708l137.252,-8.106l180.654,12.277c35.729,10.979 52.374,-43.324 16.684,-54.263" style="fill:#b9c0d0;fill-rule:nonzero;"/><path d="M4243.35,900.256l-21.485,-192.223l-47.416,-26.561l68.901,218.784Z" style="fill:url(#_Linear1);fill-rule:nonzero;"/><path d="M4068.79,581.013l70.908,15.897c21.249,11.884 125.683,65.124 133.671,79.722l2.675,6.729l11.097,96.643l37.933,-134.497l21.052,-317.591l-161.018,-60.638l-116.318,-6.256l0,319.991Z" style="fill:url(#_Linear2);fill-rule:nonzero;"/><path d="M4068.79,1434.03l0,823.351l327.9,-305.038l213.63,-518.864c1.81,-4.997 4.997,-9.523 9.522,-12.985l159.72,-121.709l-56.466,-13.497l-654.306,148.742Z" style="fill:url(#_Linear3);fill-rule:nonzero;"/><path d="M4068.79,1375.88l576.039,-130.995l-374.293,-208.828c-21.997,-12.238 -51.509,-23.807 -56.782,-40.609l-110.022,-349.346l-34.942,-7.161l0,736.939Z" style="fill:url(#_Linear4);fill-rule:nonzero;"/><path d="M4068.79,3358.35l289.731,-262.973l-289.731,-291.345l0,554.318Z" style="fill:url(#_Linear5);fill-rule:nonzero;"/><path d="M4068.79,204.122l132.215,8.46l108.211,40.767l-86.53,-143.548l-153.896,-43.717l0,138.038Z" style="fill:url(#_Linear6);fill-rule:nonzero;"/><path d="M4854.44,1313.19l-173.139,131.861l149.844,134.851l304.959,2.322l266.397,-111.045l-287.449,-167.315l-260.612,9.326Z" style="fill:url(#_Linear7);fill-rule:nonzero;"/><path d="M4113.96,3394.08l562.385,-0l-96.721,-180.733l-174.949,-83.067l-290.715,263.8Z" style="fill:url(#_Linear8);fill-rule:nonzero;"/><path d="M4435.02,1994.25l-366.227,340.689l0,388.539l320.109,321.919l205.641,-532.164l290.322,-652.535l-449.845,133.552Z" style="fill:url(#_Linear9);fill-rule:nonzero;"/><path d="M4435.57,3082.11l137.605,65.242l13.852,-457.322l-151.457,392.08Z" style="fill:url(#_Linear10);fill-rule:nonzero;"/><path d="M4469.37,1924.8l424.11,-125.879l-98.295,-173.02l-147.325,-134.576l-178.49,433.475Z" style="fill:url(#_Linear11);fill-rule:nonzero;"/><g opacity="0.25"><path d="M4185.24,715.797l36.635,20.501l16.605,148.427l4.88,15.504l-21.485,-192.184l-47.416,-26.561l10.781,34.313Z" style="fill:#b9c0d0;fill-rule:nonzero;"/></g><g opacity="0.25"><path d="M4344.29,355.481l1.849,-27.585l-161.058,-60.598l-116.278,-6.296l-0,28.253l116.278,6.335l159.209,59.891Z" style="fill:#b9c0d0;fill-rule:nonzero;"/></g><g opacity="0.25"><path d="M4213.75,1023.72c5.273,16.802 34.824,28.331 56.782,40.609l338.249,188.76l36.005,-8.185l-374.254,-208.868c-21.958,-12.238 -51.509,-23.767 -56.782,-40.569l-110.022,-349.346l-34.942,-7.162l0,28.253l34.942,7.162l110.022,349.346Z" style="fill:#b9c0d0;fill-rule:nonzero;"/></g><g opacity="0.25"><path d="M4751.31,1320.32l28.253,-21.524l-56.467,-13.497l-654.305,148.742l-0,28.292l654.305,-148.741l28.214,6.728Z" style="fill:#b9c0d0;fill-rule:nonzero;"/></g><g opacity="0.25"><path d="M4287.19,245.062l22.036,8.263l-86.569,-143.508l-153.857,-43.718l-0,28.254l153.857,43.717l64.533,106.992Z" style="fill:#b9c0d0;fill-rule:nonzero;"/></g><g opacity="0.25"><path d="M4358.51,3095.37l-289.691,-291.345l-0,28.253l274.935,276.51l14.756,-13.418Z" style="fill:#b9c0d0;fill-rule:nonzero;"/></g><g opacity="0.25"><path d="M4698.28,1460.36l156.139,-118.915l260.612,-9.326l259.196,150.827l28.253,-11.804l-287.449,-167.315l-260.612,9.326l-173.138,131.9l16.999,15.307Z" style="fill:#b9c0d0;fill-rule:nonzero;"/></g><g opacity="0.25"><path d="M4404.66,3130.26l-290.715,263.8l31.165,0l259.55,-235.507l174.987,83.027l81.612,152.48l15.11,0l-96.722,-180.733l-174.987,-83.067Z" style="fill:#b9c0d0;fill-rule:nonzero;"/></g><g opacity="0.25"><path d="M4587,2690.04l-151.417,392.08l9.247,4.368l141.265,-365.755l0.905,-30.693Z" style="fill:#b9c0d0;fill-rule:nonzero;"/></g><g opacity="0.25"><path d="M4068.81,2334.97l-0,28.292l366.227,-340.728l435.325,-129.263l14.48,-32.582l-449.805,133.553l-366.227,340.728Z" style="fill:#b9c0d0;fill-rule:nonzero;"/></g><g opacity="0.25"><path d="M4647.87,1491.3l-178.49,433.515l13.261,-3.935l165.229,-401.327l147.325,134.655l84.562,148.781l13.733,-4.093l-98.295,-172.981l-147.325,-134.615Z" style="fill:#b9c0d0;fill-rule:nonzero;"/></g><g opacity="0.25"><path d="M4161.49,602.454c25.144,14.088 83.185,41.829 120.292,68.036l17.746,-268.168l-123.715,-46.59l-62.526,-3.344l-0,237.357l42.497,9.522l5.706,3.187Z" style="fill:#d8dfeb;"/></g><g opacity="0.25"><path d="M4248.87,1119.3c-29.867,-16.684 -66.186,-29.866 -77.598,-66.107l-57.962,-184.078l0,495.333l408.449,-92.826l-272.889,-152.322Z" style="fill:#d8dfeb;"/></g><g opacity="0.25"><path d="M4568.86,1461.69c4.84,-12.789 13.103,-23.964 24.003,-32.267l45.842,-34.903l-525.396,119.426l0,685.628l245.935,-228.818l209.616,-509.066Z" style="fill:#d8dfeb;"/></g><g opacity="0.25"><path d="M4113.3,2956.3l0,345.922l180.812,-164.127l-180.812,-181.795Z" style="fill:#d8dfeb;"/></g><g opacity="0.25"><path d="M4193.61,192.223l-80.313,-22.823l0,37.382l92.629,5.942l-12.316,-20.501Z" style="fill:#d8dfeb;"/></g><g opacity="0.25"><path d="M4412.5,3227.68l-183.251,166.292l372.838,-0l-54.736,-102.349l-134.851,-63.943Z" style="fill:#d8dfeb;"/></g><g opacity="0.25"><path d="M4664.82,1611.46l-118.836,288.551l281.153,-83.46l-67.17,-118.128l-95.147,-86.963Z" style="fill:#d8dfeb;"/></g><g opacity="0.25"><path d="M5302.67,1508.96l-198.951,-115.767l-233.58,8.342l-119.15,90.78l97.39,87.592l279.028,2.125l175.263,-73.072Z" style="fill:#d8dfeb;"/></g><g opacity="0.25"><path d="M4491.97,3103.98l38.759,18.376l3.896,-128.791l-42.655,110.415Z" style="fill:#d8dfeb;"/></g><g opacity="0.25"><path d="M4113.3,2398.76l0,350.762l258.803,260.259l181.323,-469.205l251.483,-565.336l-347.26,103.096l-344.349,320.424Z" style="fill:#d8dfeb;"/></g><path d="M3187.18,1798.91l98.296,-172.981l147.285,-134.615l178.53,433.515l-424.111,-125.919Zm-60.677,-8.106l-395.975,82.713l-591.582,-46.905l5.981,-46.944l427.298,-103.607l367.997,-37.028l273.756,-2.165l-87.475,153.936Zm-1016.09,-162.789l291.463,30.968l-263.092,63.786l-28.371,-94.754Zm134.143,-87.396l365.48,-36.28l214.18,89.324l-256.56,25.774l-396.802,-42.144l73.702,-36.674Zm721.003,-238.498l260.613,10.979l173.217,131.978l-147.522,134.812l-307.32,2.361l-266.712,-111.241l287.724,-168.889Zm535.47,1911.21l174.988,-83.067l290.675,263.839l-562.424,0l96.761,-180.772Zm144.059,-131.231l-137.606,65.281l-13.811,-457.36l151.417,392.079Zm-1563.44,-1254.39l-397.943,60.717l-554.829,-132.609l550.028,-28.174l408.686,53.516l-5.942,46.55Zm-1100.61,11.136l-13.458,-63.274l371.54,88.773l-358.082,-25.499Zm720.216,-245.266l203.005,16.605l-228.779,60.796l-413.171,21.17l438.945,-98.571Zm378.229,129.303l-253.412,-33.172l225.552,-59.929l27.86,93.101Zm-1352.53,57.017l180.851,-12.316l12.671,59.772l-193.522,-47.456Zm24.397,100.027l-173.414,-76.299l-0.275,-1.928l252.034,61.818l-78.345,16.409Zm3106.65,-1770.1l153.857,-43.757l-0,137.92l-103.096,5.077l-139.022,47.062l88.261,-146.302Zm0.747,598.232l47.456,-26.561l-68.901,218.784l21.445,-192.223Zm162.239,1635.41c27.348,25.459 66.068,-16.134 38.681,-41.593l-375.711,-349.543l-213.629,-518.864c-1.81,-4.997 -4.997,-9.522 -9.522,-12.985l-159.681,-121.669l56.427,-13.497l676.538,153.778c36.399,8.224 48.951,-47.101 12.435,-55.365l-610.667,-138.825l372.877,-208.12c20.304,-10.585 53.083,-25.105 58.159,-41.317l110.061,-349.346c45.055,-9.287 98.846,-10.152 91.173,-47.692c-8.303,-40.53 -64.258,-13.93 -117.105,-4.879l-132.765,72.009c-8.539,4.801 -13.655,13.34 -14.442,22.39l-10.27,92.039l-37.972,-134.497l-21.013,-317.04l181.008,-62.88l126.076,-6.178c15.229,-0.748 27.073,-13.3 27.073,-28.371l0.079,-0l-0,-202.572c-0,-15.701 -12.75,-28.45 -28.489,-28.45l-208.553,58.237c-7.241,2.007 -13.065,6.69 -16.645,12.671l-0.04,-0.039l-134.615,223.23c-3.344,5.509 -4.564,11.687 -3.935,17.629l22.508,339.941l77.794,278.123l-7.122,63.825l-422.733,235.941l-113.287,27.072l-274.149,-11.569c-6.021,-0.236 -11.726,1.417 -16.409,4.447l-337.62,198.243c-13.142,4.289 -366.817,32.346 -381.73,39.743l-0.04,-0.039l-158.382,78.778c-11.372,2.243 -355.996,-33.329 -374.018,-28.607l-764.721,171.721l-384.878,26.168l-0.04,0.039l-0.472,0l-200.801,10.231l-259.983,79.762c-35.69,10.978 -19.045,65.202 16.684,54.263l257.111,-78.896l164.324,-7.476c3.187,25.262 5.942,48.793 22.39,56.033l195.804,86.176l0.039,-0.039c5.194,2.282 11.175,3.03 17.235,1.81l205.484,-43.127l720.058,51.351c2.44,0.236 4.919,0.197 7.398,-0.157l421.159,-64.258l621.803,49.305l-0,-0.04l398.297,-82.044l303.857,682.913l19.793,653.597l-120.016,224.254c-10.152,18.966 3.817,41.71 25.026,41.671l0,0.118l683.425,0c25.616,0 39.388,-32.149 17.864,-50.604l-336.046,-305.038l338.329,-340.217c26.364,-26.482 -13.93,-66.54 -40.294,-40.018l-328.412,330.3l-204.855,-530.275l-0.708,-1.81l-290.4,-652.653l449.845,133.553l375.356,349.228Z" style="fill:#b9c0d0;fill-rule:nonzero;"/><path d="M3144.86,1750.87c-35.966,0 -65.084,29.158 -65.084,65.084c-0,35.927 29.118,65.085 65.084,65.085c35.926,-0 65.084,-29.158 65.084,-65.085c0,-35.926 -29.158,-65.084 -65.084,-65.084" style="fill:#d5dce9;"/><path d="M3660.15,1903.85c-35.965,-0 -65.084,29.158 -65.084,65.084c-0,35.926 29.119,65.084 65.084,65.084c35.926,0 65.084,-29.158 65.084,-65.084c0,-35.926 -29.158,-65.084 -65.084,-65.084" style="fill:#d5dce9;"/><path d="M3443.59,1377.96c-35.965,-0 -65.084,29.158 -65.084,65.084c0,35.926 29.119,65.084 65.084,65.084c35.927,0 65.085,-29.158 65.085,-65.084c-0,-35.926 -29.158,-65.084 -65.085,-65.084" style="fill:#d5dce9;"/><path d="M3357.47,1191.11c-35.966,0 -65.084,29.158 -65.084,65.084c-0,35.927 29.118,65.085 65.084,65.085c35.926,-0 65.084,-29.158 65.084,-65.085c0,-35.926 -29.158,-65.084 -65.084,-65.084" style="fill:#d5dce9;"/><path d="M2614.44,1410.29c-35.926,0 -65.084,29.158 -65.084,65.085c-0,35.926 29.158,65.084 65.084,65.084c35.965,-0 65.084,-29.158 65.084,-65.084c0,-35.927 -29.119,-65.085 -65.084,-65.085" style="fill:#d5dce9;"/><path d="M2938.83,1545.58c-35.965,0 -65.084,29.158 -65.084,65.085c0,35.926 29.119,65.084 65.084,65.084c35.926,-0 65.085,-29.158 65.085,-65.084c-0,-35.927 -29.159,-65.085 -65.085,-65.085" style="fill:#d5dce9;"/><path d="M2119.27,1691.64c-35.965,0 -65.084,29.158 -65.084,65.084c-0,35.927 29.119,65.085 65.084,65.085c35.926,-0 65.084,-29.158 65.084,-65.085c0,-35.926 -29.158,-65.084 -65.084,-65.084" style="fill:#d5dce9;"/><path d="M2567.5,1582.93c-35.966,-0 -65.085,29.119 -65.085,65.084c0,35.926 29.119,65.045 65.085,65.045c35.926,0 65.045,-29.119 65.045,-65.045c-0,-35.965 -29.119,-65.084 -65.045,-65.084" style="fill:#d5dce9;"/><path d="M1679.91,1634.1c-35.926,0 -65.084,29.158 -65.084,65.085c-0,35.926 29.158,65.084 65.084,65.084c35.966,-0 65.084,-29.158 65.084,-65.084c0,-35.927 -29.118,-65.085 -65.084,-65.085" style="fill:#d5dce9;"/><path d="M1682.77,1852.27c-35.966,0 -65.085,29.158 -65.085,65.085c0,35.926 29.119,65.084 65.085,65.084c35.926,-0 65.084,-29.158 65.084,-65.084c0,-35.927 -29.158,-65.085 -65.084,-65.085" style="fill:#d5dce9;"/><path d="M930.481,1672.47c-35.926,0 -65.084,29.158 -65.084,65.084c-0,35.927 29.158,65.085 65.084,65.085c35.965,-0 65.084,-29.158 65.084,-65.085c0,-35.926 -29.119,-65.084 -65.084,-65.084" style="fill:#d5dce9;"/><path d="M957.687,1800.6c-35.926,0 -65.084,29.158 -65.084,65.085c-0,35.926 29.158,65.084 65.084,65.084c35.966,-0 65.084,-29.158 65.084,-65.084c0,-35.927 -29.118,-65.085 -65.084,-65.085" style="fill:#d5dce9;"/><path d="M2070.97,1530.17c-35.966,-0 -65.085,29.158 -65.085,65.084c0,35.926 29.119,65.085 65.085,65.085c35.926,-0 65.044,-29.159 65.044,-65.085c0,-35.926 -29.118,-65.084 -65.044,-65.084" style="fill:#d5dce9;"/><path d="M3460.29,2459.82c-35.966,0 -65.085,29.119 -65.085,65.085c0,35.926 29.119,65.084 65.085,65.084c35.926,0 65.084,-29.158 65.084,-65.084c-0,-35.966 -29.158,-65.085 -65.084,-65.085" style="fill:#d5dce9;"/><path d="M3681.06,3031.39c-35.966,0 -65.085,29.119 -65.085,65.045c0,35.966 29.119,65.124 65.085,65.124c35.926,0 65.084,-29.158 65.084,-65.124c-0,-35.926 -29.158,-65.045 -65.084,-65.045" style="fill:#d5dce9;"/><path d="M3480.46,3126.58c-35.965,0 -65.084,29.119 -65.084,65.084c-0,35.927 29.119,65.085 65.084,65.085c35.926,-0 65.084,-29.158 65.084,-65.085c0,-35.965 -29.158,-65.084 -65.084,-65.084" style="fill:#d5dce9;"/><path d="M3839.78,921.918c-35.926,0 -65.084,29.158 -65.084,65.085c-0,35.926 29.158,65.084 65.084,65.084c35.966,-0 65.084,-29.158 65.084,-65.084c0,-35.927 -29.118,-65.085 -65.084,-65.085" style="fill:#d5dce9;"/><path d="M542.824,1698.87c-35.965,-0 -65.084,29.118 -65.084,65.084c-0,35.926 29.119,65.084 65.084,65.084c35.926,0 65.045,-29.158 65.045,-65.084c-0,-35.966 -29.119,-65.084 -65.045,-65.084" style="fill:#d5dce9;"/><path d="M349.381,1707.66c-35.965,0 -65.084,29.119 -65.084,65.085c0,35.926 29.119,65.084 65.084,65.084c35.927,-0 65.085,-29.158 65.085,-65.084c-0,-35.966 -29.158,-65.085 -65.085,-65.085" style="fill:#d5dce9;"/><path d="M88.785,1787.59c-35.927,0 -65.085,29.158 -65.085,65.084c0,35.927 29.158,65.085 65.085,65.085c35.965,-0 65.084,-29.158 65.084,-65.085c-0,-35.926 -29.119,-65.084 -65.084,-65.084" style="fill:#d5dce9;"/><path d="M1650.57,1669.93l0.118,-0.079c7.398,-7.437 17.747,-12.041 29.237,-12.041c11.49,0 21.799,4.604 29.237,12.041l0.118,0.079c7.397,7.437 12.001,17.786 12.001,29.276c0,11.451 -4.604,21.8 -12.001,29.198l-0.118,0.118c-7.438,7.437 -17.747,12.001 -29.237,12.001c-11.49,0 -21.839,-4.564 -29.237,-12.001l-0.118,-0.118c-7.398,-7.398 -12.002,-17.747 -12.002,-29.198c0,-11.49 4.604,-21.839 12.002,-29.276m-33.408,91.999l0.039,0.04c16.134,16.094 38.327,26.01 62.724,26.01c24.397,-0 46.55,-9.916 62.684,-26.01l0.039,-0.04l0.039,-0.078c16.094,-16.094 26.011,-38.248 26.011,-62.645c-0,-24.397 -9.917,-46.59 -26.011,-62.723l-0.078,-0.079c-16.134,-16.094 -38.287,-26.01 -62.684,-26.01c-24.397,0 -46.59,9.916 -62.724,26.01l-0.078,0.079c-16.055,16.133 -26.01,38.326 -26.01,62.723c-0,24.397 9.955,46.551 26.01,62.645l0.039,0.078Z" style="fill:#b9c0d0;fill-rule:nonzero;"/><path d="M572.143,1793.18l-0.078,0.079c-7.437,7.437 -17.786,12.041 -29.237,12.041c-11.49,-0 -21.839,-4.604 -29.276,-12.041l-0.079,-0.079c-7.437,-7.398 -12.001,-17.747 -12.001,-29.237c-0,-11.49 4.564,-21.839 12.001,-29.237l0.079,-0.118c7.437,-7.397 17.786,-12.001 29.276,-12.001c11.451,-0 21.8,4.604 29.237,12.001l0.078,0.118c7.438,7.398 12.041,17.747 12.041,29.237c0,11.49 -4.603,21.839 -12.041,29.237m33.408,-91.96l-0.039,-0.079c-16.133,-16.094 -38.287,-26.01 -62.684,-26.01c-24.436,-0 -46.59,9.916 -62.723,26.01l-0.04,0.079l-0.039,0.039c-16.094,16.094 -26.01,38.287 -26.01,62.684c-0,24.397 9.916,46.551 26.01,62.684l0.039,0.039l0.04,0.079c16.133,16.055 38.287,26.01 62.723,26.01c24.397,0 46.551,-9.955 62.684,-26.01l0.039,-0.079l0.04,-0.039c16.094,-16.133 26.01,-38.287 26.01,-62.684c-0,-24.397 -9.916,-46.59 -26.01,-62.684l-0.04,-0.039Z" style="fill:#b9c0d0;fill-rule:nonzero;"/><path d="M378.72,1801.98l-0.078,0.079c-7.437,7.437 -17.786,12.041 -29.276,12.041c-11.49,0 -21.8,-4.604 -29.237,-12.041l-0.079,-0.079c-7.437,-7.397 -12.041,-17.746 -12.041,-29.236c0,-11.49 4.604,-21.839 12.041,-29.237l0.079,-0.118c7.437,-7.398 17.747,-12.002 29.237,-12.002c11.49,0 21.839,4.604 29.276,12.002l0.078,0.118c7.398,7.398 12.041,17.747 12.041,29.237c0,11.49 -4.643,21.839 -12.041,29.236m33.408,-91.96l-0.039,-0.078c-16.133,-16.094 -38.287,-26.011 -62.723,-26.011c-24.397,0 -46.551,9.917 -62.684,26.011l-0.04,0.078l-0.039,0.04c-16.094,16.094 -26.01,38.287 -26.01,62.684c-0,24.396 9.916,46.55 26.01,62.684l0.079,0.078c16.133,16.094 38.287,26.05 62.684,26.05c24.436,-0 46.59,-9.956 62.723,-26.05l0.079,-0.078c16.054,-16.134 26.01,-38.288 26.01,-62.684c-0,-24.397 -9.956,-46.59 -26.01,-62.684l-0.04,-0.04Z" style="fill:#b9c0d0;fill-rule:nonzero;"/><path d="M118.128,1881.91l-0.079,0.079c-7.437,7.437 -17.786,12.041 -29.276,12.041c-11.451,-0 -21.8,-4.604 -29.237,-12.041l-0.079,-0.079c-7.437,-7.397 -12.001,-17.746 -12.001,-29.236c-0,-11.491 4.564,-21.84 12.001,-29.237l0.079,-0.079c7.437,-7.437 17.786,-12.041 29.237,-12.041c11.49,0 21.839,4.604 29.276,12.041l0.079,0.079c7.397,7.397 12.041,17.746 12.041,29.237c-0,11.49 -4.644,21.839 -12.041,29.236m33.447,-91.92l-0.079,-0.079c-16.133,-16.094 -38.287,-26.05 -62.723,-26.05c-24.397,0 -46.551,9.956 -62.684,26.05l-0.079,0.079c-16.094,16.094 -26.01,38.287 -26.01,62.684c-0,24.396 9.916,46.589 26.01,62.683l0.039,0.079l0.04,0.04c16.133,16.054 38.287,26.01 62.684,26.01c24.436,-0 46.59,-9.956 62.723,-26.01l0.039,-0.04l0.04,-0.079c16.094,-16.094 26.01,-38.287 26.01,-62.683c-0,-24.397 -9.916,-46.59 -26.01,-62.684Z" style="fill:#b9c0d0;fill-rule:nonzero;"/><path d="M987.026,1894.92l-0.079,0.079c-7.437,7.437 -17.786,12.041 -29.276,12.041c-11.45,-0 -21.799,-4.604 -29.236,-12.041l-0.079,-0.079c-7.437,-7.397 -12.002,-17.746 -12.002,-29.236c0,-11.491 4.565,-21.84 12.002,-29.237l0.079,-0.118c7.437,-7.398 17.786,-12.002 29.236,-12.002c11.49,0 21.839,4.604 29.276,12.002l0.079,0.118c7.398,7.397 12.041,17.746 12.041,29.237c0,11.49 -4.643,21.839 -12.041,29.236m-85.9,-128.122c-7.398,-7.437 -12.002,-17.786 -12.002,-29.237c0,-11.49 4.604,-21.839 12.002,-29.276l0.118,-0.079c7.437,-7.437 17.747,-12.001 29.237,-12.001c11.49,-0 21.839,4.564 29.237,12.001l0.118,0.079c7.437,7.437 12.001,17.786 12.001,29.276c0,11.451 -4.564,21.8 -12.001,29.237l-0.118,0.118c-7.398,7.398 -17.747,12.002 -29.237,12.002c-11.49,-0 -21.8,-4.604 -29.237,-12.002l-0.118,-0.118Zm119.308,36.162l-0.039,-0.078c-5.313,-5.273 -11.254,-9.877 -17.747,-13.733c10.506,-14.56 16.645,-32.385 16.645,-51.588c-0,-24.397 -9.956,-46.59 -26.01,-62.723l-0.04,-0.039l-0.078,-0.04c-16.094,-16.054 -38.248,-26.01 -62.684,-26.01c-24.397,0 -46.59,9.956 -62.684,26.01l-0.04,0.04l-0.078,0.039c-16.055,16.133 -26.01,38.326 -26.01,62.723c-0,24.397 9.955,46.59 26.01,62.684l0.078,0.039l0.04,0.079c5.273,5.234 11.254,9.877 17.707,13.694c-10.467,14.559 -16.605,32.424 -16.605,51.627c-0,24.396 9.916,46.55 26.01,62.683l0.118,0.119c16.094,16.054 38.248,26.01 62.644,26.01c24.436,-0 46.59,-9.956 62.724,-26.01l0.039,-0.079l0.039,-0.04c16.055,-16.133 26.01,-38.287 26.01,-62.683c0,-24.397 -9.955,-46.59 -26.01,-62.684l-0.039,-0.04Z" style="fill:#b9c0d0;fill-rule:nonzero;"/><path d="M3509.8,3220.91l-0.079,0.079c-7.437,7.397 -17.786,12.041 -29.276,12.041c-11.45,-0 -21.799,-4.644 -29.236,-12.041l-0.079,-0.079c-7.437,-7.437 -12.002,-17.786 -12.002,-29.237c0,-11.49 4.565,-21.878 12.002,-29.276l0.079,-0.079c7.437,-7.437 17.786,-12.041 29.236,-12.041c11.49,0 21.839,4.604 29.276,12.041l0.079,0.079c7.398,7.398 12.041,17.786 12.041,29.276c0,11.451 -4.643,21.8 -12.041,29.237m33.447,-91.96l-0.078,-0.079c-16.134,-16.094 -38.288,-26.01 -62.724,-26.01c-24.396,0 -46.59,9.916 -62.684,26.01l-0.078,0.079c-16.094,16.094 -26.01,38.326 -26.01,62.723c-0,24.397 9.916,46.551 26.01,62.684l0.078,0.079c16.094,16.094 38.288,26.01 62.684,26.01c24.436,-0 46.59,-9.916 62.724,-26.01l0.078,-0.079c16.055,-16.133 26.01,-38.287 26.01,-62.684c0,-24.397 -9.955,-46.629 -26.01,-62.723Z" style="fill:#b9c0d0;fill-rule:nonzero;"/><path d="M3630.81,1939.71l0.079,-0.118c7.437,-7.398 17.786,-12.002 29.276,-12.002c11.49,0 21.8,4.604 29.237,12.002l0.078,0.118c7.437,7.398 12.002,17.747 12.002,29.237c0,11.49 -4.565,21.799 -12.002,29.237l-0.078,0.078c-7.437,7.437 -17.747,12.041 -29.237,12.041c-11.49,0 -21.839,-4.604 -29.276,-12.041l-0.079,-0.078c-7.398,-7.438 -12.041,-17.747 -12.041,-29.237c0,-11.49 4.643,-21.839 12.041,-29.237m-33.447,91.921l0.079,0.078c16.133,16.094 38.287,26.05 62.723,26.05c24.397,-0 46.551,-9.956 62.645,-26.05l0.078,-0.039l0.04,-0.039c16.094,-16.094 26.01,-38.287 26.01,-62.684c-0,-24.397 -9.916,-46.59 -26.01,-62.684l-0.04,-0.079l-0.078,-0.039c-16.094,-16.055 -38.248,-26.01 -62.645,-26.01c-24.436,-0 -46.59,9.955 -62.723,26.01l-0.04,0.039l-0.039,0.079c-16.094,16.094 -26.01,38.287 -26.01,62.684c-0,24.397 9.916,46.59 26.01,62.684Z" style="fill:#b9c0d0;fill-rule:nonzero;"/><path d="M3430.95,2495.68l0.079,-0.118c7.437,-7.398 17.786,-12.041 29.276,-12.041c11.49,-0 21.8,4.643 29.237,12.041l0.079,0.118c7.437,7.398 12.001,17.747 12.001,29.237c0,11.49 -4.564,21.839 -12.001,29.236l-0.079,0.079c-7.437,7.437 -17.747,12.041 -29.237,12.041c-11.49,0 -21.839,-4.604 -29.276,-12.041l-0.079,-0.079c-7.397,-7.397 -12.041,-17.746 -12.041,-29.236c0,-11.49 4.644,-21.839 12.041,-29.237m-33.407,91.999l0.039,0.04c16.133,16.054 38.287,26.01 62.723,26.01c24.397,-0 46.551,-9.956 62.645,-26.01l0.079,-0.04l0.039,-0.078c16.094,-16.094 26.01,-38.288 26.01,-62.684c-0,-24.397 -9.916,-46.551 -26.01,-62.724l-0.039,-0.039l-0.079,-0.039c-16.094,-16.055 -38.248,-26.01 -62.645,-26.01c-24.436,-0 -46.59,9.955 -62.723,26.01l-0.079,0.078c-16.094,16.173 -26.01,38.327 -26.01,62.724c0,24.396 9.916,46.59 26.01,62.684l0.04,0.078Z" style="fill:#b9c0d0;fill-rule:nonzero;"/><path d="M3328.14,1285.42c-7.398,-7.398 -12.002,-17.746 -12.002,-29.237c0,-11.49 4.604,-21.839 12.002,-29.236l0.078,-0.118c7.438,-7.398 17.786,-12.002 29.277,-12.002c11.49,0 21.799,4.604 29.236,12.002l0.079,0.118c7.437,7.397 12.041,17.746 12.041,29.236c0,11.491 -4.604,21.839 -12.041,29.237l-0.079,0.079c-7.437,7.437 -17.746,12.041 -29.236,12.041c-11.491,-0 -21.839,-4.604 -29.277,-12.041l-0.078,-0.079Zm92.039,33.565l0.039,-0.039l0.039,-0.079c16.094,-16.133 26.01,-38.287 26.01,-62.684c0,-24.396 -9.916,-46.589 -26.01,-62.683l-0.039,-0.04l-0.039,-0.079c-16.134,-16.054 -38.288,-26.01 -62.684,-26.01c-24.437,0 -46.59,9.956 -62.724,26.01l-0.039,0.079l-0.039,0.04c-16.055,16.094 -26.011,38.287 -26.011,62.683c0,24.397 9.956,46.551 26.011,62.684l0.039,0.079l0.039,0.039c16.134,16.055 38.287,26.011 62.724,26.011c24.396,-0 46.55,-9.956 62.684,-26.011" style="fill:#b9c0d0;fill-rule:nonzero;"/><path d="M3414.25,1413.81l0.079,-0.078c7.437,-7.438 17.786,-12.041 29.276,-12.041c11.49,-0 21.8,4.603 29.237,12.041l0.079,0.078c7.437,7.398 12.001,17.747 12.001,29.237c0,11.49 -4.564,21.8 -12.001,29.237l-0.079,0.118c-7.437,7.398 -17.747,12.001 -29.237,12.001c-11.49,0 -21.839,-4.603 -29.276,-12.001l-0.079,-0.118c-7.397,-7.437 -12.001,-17.747 -12.001,-29.237c-0,-11.49 4.604,-21.839 12.001,-29.237m-33.407,91.96l0.039,0.079c16.133,16.055 38.287,26.01 62.723,26.01c24.397,0 46.551,-9.955 62.684,-26.01l0.04,-0.079l0.039,-0.039c16.094,-16.094 26.01,-38.287 26.01,-62.684c-0,-24.397 -9.916,-46.59 -26.01,-62.684l-0.039,-0.079l-0.04,-0.039c-16.133,-16.055 -38.287,-26.01 -62.684,-26.01c-24.436,-0 -46.59,9.955 -62.723,26.01l-0.039,0.039l-0.04,0.079c-16.094,16.094 -26.01,38.287 -26.01,62.684c0,24.397 9.916,46.59 26.01,62.684l0.04,0.039Z" style="fill:#b9c0d0;fill-rule:nonzero;"/><path d="M1712.11,1946.59l-0.079,0.079c-7.437,7.437 -17.786,12.041 -29.276,12.041c-11.49,0 -21.8,-4.604 -29.237,-12.041l-0.079,-0.079c-7.437,-7.397 -12.001,-17.746 -12.001,-29.236c-0,-11.491 4.564,-21.839 12.001,-29.237l0.079,-0.118c7.437,-7.398 17.747,-12.002 29.237,-12.002c11.49,0 21.839,4.604 29.276,12.002l0.079,0.118c7.397,7.398 12.001,17.746 12.001,29.237c0,11.49 -4.604,21.839 -12.001,29.236m33.408,-91.96l-0.04,-0.078c-16.133,-16.055 -38.287,-26.011 -62.723,-26.011c-24.397,0 -46.59,9.956 -62.684,26.011l-0.039,0.078l-0.04,0.04c-16.094,16.094 -26.01,38.287 -26.01,62.684c0,24.396 9.916,46.59 26.01,62.684l0.04,0.039l0.039,0.079c16.094,16.054 38.287,26.01 62.684,26.01c24.436,-0 46.59,-9.956 62.723,-26.01l0.04,-0.079l0.039,-0.039c16.055,-16.094 26.01,-38.288 26.01,-62.684c0,-24.397 -9.955,-46.59 -26.01,-62.684l-0.039,-0.04Z" style="fill:#b9c0d0;fill-rule:nonzero;"/><path d="M3869.13,1016.24l-0.079,0.079c-7.437,7.437 -17.786,12.041 -29.276,12.041c-11.49,0 -21.8,-4.604 -29.237,-12.041l-0.118,-0.079c-7.397,-7.397 -12.001,-17.746 -12.001,-29.236c-0,-11.491 4.604,-21.8 12.001,-29.237l0.118,-0.118c7.437,-7.398 17.747,-12.002 29.237,-12.002c11.49,0 21.839,4.604 29.276,12.002l0.079,0.118c7.398,7.437 12.002,17.746 12.002,29.237c-0,11.49 -4.604,21.839 -12.002,29.236m33.408,-91.96l-0.04,-0.078c-16.133,-16.055 -38.287,-26.011 -62.723,-26.011c-24.397,0 -46.55,9.956 -62.684,26.011l-0.039,0.078l-0.079,0.04c-16.054,16.094 -25.971,38.287 -25.971,62.684c0,24.396 9.917,46.55 25.971,62.684l0.118,0.118c16.134,16.054 38.287,26.01 62.684,26.01c24.436,-0 46.59,-9.956 62.723,-26.01l0.04,-0.04l0.039,-0.078c16.094,-16.134 26.01,-38.288 26.01,-62.684c0,-24.397 -9.916,-46.59 -26.01,-62.684l-0.039,-0.04Z" style="fill:#b9c0d0;fill-rule:nonzero;"/><path d="M3710.39,3125.69l-0.079,0.118c-7.437,7.398 -17.786,12.002 -29.276,12.002c-11.49,-0 -21.8,-4.604 -29.237,-12.002l-0.079,-0.118c-7.437,-7.398 -12.001,-17.747 -12.001,-29.237c-0,-11.49 4.564,-21.839 12.001,-29.237l0.079,-0.078c7.437,-7.437 17.747,-12.041 29.237,-12.041c11.49,-0 21.839,4.604 29.276,12.041l0.079,0.078c7.397,7.398 12.001,17.747 12.001,29.237c0,11.49 -4.604,21.839 -12.001,29.237m33.447,-91.921l-0.079,-0.079c-16.133,-16.094 -38.287,-26.049 -62.723,-26.049c-24.397,-0 -46.59,9.955 -62.684,26.049l-0.079,0.079c-16.094,16.094 -26.01,38.327 -26.01,62.684c0,24.397 9.916,46.59 26.01,62.723l0.079,0.079c16.094,16.094 38.287,26.01 62.684,26.01c24.436,0 46.59,-9.916 62.723,-26.01l0.079,-0.079c16.055,-16.133 26.01,-38.326 26.01,-62.723c-0,-24.357 -9.955,-46.59 -26.01,-62.684Z" style="fill:#b9c0d0;fill-rule:nonzero;"/><path d="M2148.61,1785.96l-0.118,0.079c-7.397,7.437 -17.746,12.041 -29.237,12.041c-11.49,-0 -21.799,-4.604 -29.236,-12.041l-0.118,-0.079c-7.398,-7.397 -12.002,-17.746 -12.002,-29.237c0,-11.49 4.604,-21.799 12.002,-29.236l0.118,-0.118c7.437,-7.398 17.746,-12.002 29.236,-12.002c11.491,0 21.84,4.604 29.237,12.002l0.118,0.118c7.398,7.437 12.002,17.746 12.002,29.236c-0,11.491 -4.604,21.84 -12.002,29.237m-106.873,-161.373l-0.118,-0.118c-7.437,-7.397 -12.002,-17.746 -12.002,-29.236c0,-11.451 4.565,-21.8 12.002,-29.198l0.118,-0.118c7.397,-7.437 17.746,-12.001 29.236,-12.001c11.451,-0 21.8,4.564 29.237,12.001l0.079,0.118c7.398,7.398 12.041,17.747 12.041,29.198c-0,11.49 -4.643,21.839 -12.041,29.236l-0.079,0.118c-7.437,7.438 -17.786,12.041 -29.237,12.041c-11.49,0 -21.839,-4.603 -29.236,-12.041m140.281,69.413l-0.039,-0.079c-15.543,-15.503 -36.753,-25.262 -60.126,-25.97c4.21,-2.951 8.145,-6.296 11.804,-9.916l0.079,-0.079c16.094,-16.133 26.01,-38.287 26.01,-62.723c0,-24.358 -9.916,-46.551 -26.01,-62.645l-0.039,-0.079l-0.04,-0.039c-16.133,-16.094 -38.287,-26.01 -62.684,-26.01c-24.396,-0 -46.589,9.916 -62.723,26.01l-0.039,0.039l-0.04,0.079c-16.093,16.094 -26.01,38.287 -26.01,62.645c0,24.436 9.917,46.59 26.01,62.723l0.079,0.079c15.583,15.543 36.753,25.301 60.126,25.97c-4.21,2.952 -8.184,6.296 -11.804,9.916l-0.04,0.079l-0.039,0.04c-16.094,16.094 -26.01,38.287 -26.01,62.683c-0,24.397 9.916,46.551 26.01,62.684l0.039,0.079l0.04,0.039c16.094,16.055 38.287,26.011 62.683,26.011c24.437,-0 46.59,-9.956 62.724,-26.011l0.039,-0.039l0.039,-0.079c16.055,-16.133 26.011,-38.287 26.011,-62.684c-0,-24.396 -9.956,-46.589 -26.011,-62.683l-0.039,-0.04Z" style="fill:#b9c0d0;fill-rule:nonzero;"/><path d="M3174.2,1845.19l-0.079,0.118c-7.437,7.398 -17.786,12.002 -29.276,12.002c-11.49,-0 -21.799,-4.604 -29.236,-12.002l-0.079,-0.118c-7.437,-7.398 -12.041,-17.747 -12.041,-29.237c-0,-11.49 4.604,-21.799 12.041,-29.236l0.079,-0.118c7.437,-7.398 17.746,-12.002 29.236,-12.002c11.49,-0 21.839,4.604 29.276,12.002l0.079,0.118c7.398,7.437 12.002,17.746 12.002,29.236c-0,11.49 -4.604,21.839 -12.002,29.237m33.447,-91.921l-0.118,-0.118c-16.094,-16.054 -38.248,-26.01 -62.684,-26.01c-24.396,0 -46.55,9.956 -62.684,26.01l-0.039,0.079l-0.039,0.039c-16.094,16.094 -26.01,38.288 -26.01,62.684c-0,24.397 9.916,46.59 26.01,62.684l0.039,0.079l0.039,0.039c16.134,16.055 38.288,26.01 62.684,26.01c24.436,0 46.59,-9.955 62.684,-26.01l0.079,-0.039l0.039,-0.079c16.055,-16.094 26.01,-38.287 26.01,-62.684c0,-24.396 -9.955,-46.59 -26.01,-62.684Z" style="fill:#b9c0d0;fill-rule:nonzero;"/><path d="M2596.83,1677.25l-0.079,0.079c-7.437,7.397 -17.786,12.041 -29.236,12.041c-11.491,-0 -21.84,-4.644 -29.237,-12.041l-0.118,-0.079c-7.437,-7.398 -12.002,-17.747 -12.002,-29.237c0,-11.49 4.565,-21.839 12.002,-29.276l0.118,-0.079c7.397,-7.397 17.746,-12.001 29.237,-12.001c11.45,-0 21.799,4.604 29.236,12.001l0.079,0.079c7.437,7.437 12.041,17.786 12.041,29.276c-0,11.49 -4.604,21.839 -12.041,29.237m33.408,-91.999l-0.04,-0.04c-16.133,-16.094 -38.287,-26.01 -62.683,-26.01c-24.397,0 -46.59,9.916 -62.684,26.01l-0.079,0.04l-0.039,0.078c-16.094,16.094 -26.011,38.287 -26.011,62.684c0,24.397 9.917,46.551 26.011,62.684l0.118,0.118c16.094,16.055 38.287,25.971 62.684,25.971c24.396,-0 46.55,-9.916 62.683,-25.971l0.04,-0.078l0.039,-0.04c16.094,-16.133 26.01,-38.287 26.01,-62.684c0,-24.397 -9.916,-46.59 -26.01,-62.684l-0.039,-0.078Z" style="fill:#b9c0d0;fill-rule:nonzero;"/><path d="M3001.11,2473.08l-0.202,0.202c-19.086,18.986 -45.645,30.902 -75.032,30.902c-29.488,-0 -56.047,-11.916 -75.032,-30.902l-0.303,-0.202c-19.087,-18.985 -30.801,-45.544 -30.801,-75.032c-0,-29.488 11.714,-56.047 30.801,-75.134l0.303,-0.202c18.985,-18.985 45.544,-30.8 75.032,-30.8c29.387,-0 55.946,11.815 75.032,30.8l0.202,0.202c19.087,19.087 30.902,45.646 30.902,75.134c-0,29.488 -11.815,56.047 -30.902,75.032m85.737,-236.104l-0.101,-0.101c-41.404,-41.304 -98.259,-66.752 -160.87,-66.752c-62.611,-0 -119.567,25.448 -160.87,66.752l-0.202,0.101l-0.101,0.202c-41.304,41.303 -66.752,98.259 -66.752,160.87c0,62.611 25.448,119.466 66.752,160.87l0.303,0.303c41.303,41.202 98.259,66.651 160.87,66.651c62.611,-0 119.466,-25.449 160.87,-66.651l0.101,-0.202l0.101,-0.101c41.303,-41.404 66.752,-98.259 66.752,-160.87c-0,-62.611 -25.449,-119.567 -66.752,-160.87l-0.101,-0.202Z" style="fill:#b9c0d0;fill-opacity:0.4;fill-rule:nonzero;"/><path d="M2330.16,2785.58l-0.078,0.079c-7.438,7.397 -17.787,12.041 -29.237,12.041c-11.49,-0 -21.839,-4.644 -29.237,-12.041l-0.118,-0.079c-7.437,-7.398 -12.002,-17.747 -12.002,-29.237c0,-11.49 4.565,-21.839 12.002,-29.276l0.118,-0.079c7.398,-7.397 17.747,-12.001 29.237,-12.001c11.45,-0 21.799,4.604 29.237,12.001l0.078,0.079c7.437,7.437 12.041,17.786 12.041,29.276c0,11.49 -4.604,21.839 -12.041,29.237m33.408,-91.999l-0.039,-0.04c-16.134,-16.094 -38.287,-26.01 -62.684,-26.01c-24.397,0 -46.59,9.916 -62.684,26.01l-0.079,0.04l-0.039,0.078c-16.094,16.094 -26.01,38.287 -26.01,62.684c-0,24.397 9.916,46.551 26.01,62.684l0.118,0.118c16.094,16.055 38.287,25.971 62.684,25.971c24.397,-0 46.55,-9.916 62.684,-25.971l0.039,-0.079l0.039,-0.039c16.094,-16.133 26.01,-38.287 26.01,-62.684c0,-24.397 -9.916,-46.59 -26.01,-62.684l-0.039,-0.078Z" style="fill:#b9c0d0;fill-opacity:0.2;fill-rule:nonzero;"/><path d="M2546.88,3210.66l-0.062,0.062c-5.866,5.836 -14.03,9.499 -23.063,9.499c-9.063,-0 -17.227,-3.663 -23.063,-9.499l-0.093,-0.062c-5.866,-5.835 -9.467,-13.999 -9.467,-23.063c0,-9.063 3.601,-17.227 9.467,-23.094l0.093,-0.062c5.836,-5.835 14,-9.467 23.063,-9.467c9.033,0 17.197,3.632 23.063,9.467l0.062,0.062c5.867,5.867 9.499,14.031 9.499,23.094c-0,9.064 -3.632,17.228 -9.499,23.063m26.354,-72.572l-0.031,-0.031c-12.727,-12.695 -30.203,-20.518 -49.448,-20.518c-19.245,0 -36.751,7.823 -49.447,20.518l-0.062,0.031l-0.031,0.062c-12.695,12.696 -20.518,30.202 -20.518,49.447c0,19.245 7.823,36.721 20.518,49.448l0.093,0.093c12.696,12.664 30.202,20.486 49.447,20.486c19.245,0 36.721,-7.822 49.448,-20.486l0.031,-0.062l0.031,-0.031c12.695,-12.727 20.517,-30.203 20.517,-49.448c0,-19.245 -7.822,-36.751 -20.517,-49.447l-0.031,-0.062Z" style="fill:#b9c0d0;fill-opacity:0.1;fill-rule:nonzero;"/><path d="M2968.17,1639.89l-0.078,0.079c-7.437,7.437 -17.786,12.041 -29.276,12.041c-11.491,0 -21.8,-4.604 -29.237,-12.041l-0.079,-0.079c-7.437,-7.397 -12.002,-17.786 -12.002,-29.236c0,-11.49 4.565,-21.839 12.002,-29.237l0.079,-0.118c7.437,-7.398 17.746,-12.002 29.237,-12.002c11.49,0 21.839,4.604 29.276,12.002l0.078,0.118c7.398,7.398 12.002,17.747 12.002,29.237c-0,11.45 -4.604,21.839 -12.002,29.236m33.408,-91.999l-0.039,-0.039c-16.134,-16.055 -38.287,-26.01 -62.723,-26.01c-24.397,-0 -46.59,9.955 -62.684,26.01l-0.04,0.039l-0.039,0.079c-16.094,16.094 -26.01,38.287 -26.01,62.684c-0,24.396 9.916,46.55 26.01,62.684l0.039,0.039l0.04,0.079c16.094,16.054 38.287,26.01 62.684,26.01c24.436,-0 46.589,-9.956 62.723,-26.01l0.039,-0.079l0.04,-0.039c16.054,-16.134 26.01,-38.288 26.01,-62.684c-0,-24.397 -9.956,-46.59 -26.01,-62.684l-0.04,-0.079Z" style="fill:#b9c0d0;fill-rule:nonzero;"/><path d="M2643.8,1504.61l-0.118,0.118c-7.398,7.398 -17.747,12.002 -29.237,12.002c-11.49,0 -21.8,-4.604 -29.237,-12.002l-0.118,-0.118c-7.398,-7.397 -12.002,-17.746 -12.002,-29.236c0,-11.49 4.604,-21.8 12.002,-29.237l0.118,-0.118c7.437,-7.398 17.747,-12.002 29.237,-12.002c11.49,0 21.839,4.604 29.237,12.002l0.118,0.118c7.397,7.437 12.001,17.747 12.001,29.237c0,11.49 -4.604,21.839 -12.001,29.236m33.447,-91.92l-0.118,-0.118c-16.094,-16.055 -38.287,-26.01 -62.684,-26.01c-24.397,-0 -46.59,9.955 -62.684,26.01l-0.04,0.078l-0.078,0.04c-16.055,16.133 -26.01,38.287 -26.01,62.684c-0,24.396 9.955,46.59 26.01,62.684l0.118,0.118c16.094,16.054 38.287,26.01 62.684,26.01c24.397,-0 46.59,-9.956 62.684,-26.01l0.078,-0.04l0.04,-0.078c16.054,-16.094 26.01,-38.288 26.01,-62.684c-0,-24.397 -9.956,-46.551 -26.01,-62.684Z" style="fill:#b9c0d0;fill-rule:nonzero;"/></g><defs><linearGradient id="_Linear1" x1="0" y1="0" x2="1" y2="0" gradientUnits="userSpaceOnUse" gradientTransform="matrix(-7.78896,-269.153,269.153,-7.78896,4212.56,917.52)"><stop offset="0" style="stop-color:#d5dce9;stop-opacity:1"/><stop offset="1" style="stop-color:#d5dce9;stop-opacity:1"/></linearGradient><linearGradient id="_Linear2" x1="0" y1="0" x2="1" y2="0" gradientUnits="userSpaceOnUse" gradientTransform="matrix(-18.5351,-640.492,640.492,-18.5351,4218.09,820.971)"><stop offset="0" style="stop-color:#d5dce9;stop-opacity:1"/><stop offset="1" style="stop-color:#d5dce9;stop-opacity:1"/></linearGradient><linearGradient id="_Linear3" x1="0" y1="0" x2="1" y2="0" gradientUnits="userSpaceOnUse" gradientTransform="matrix(-33.6314,-1162.16,1162.16,-33.6314,4439.78,2317.41)"><stop offset="0" style="stop-color:#d5dce9;stop-opacity:1"/><stop offset="1" style="stop-color:#d5dce9;stop-opacity:1"/></linearGradient><linearGradient id="_Linear4" x1="0" y1="0" x2="1" y2="0" gradientUnits="userSpaceOnUse" gradientTransform="matrix(-26.0025,-898.536,898.536,-26.0025,4360.01,1422.11)"><stop offset="0" style="stop-color:#d5dce9;stop-opacity:1"/><stop offset="1" style="stop-color:#d5dce9;stop-opacity:1"/></linearGradient><linearGradient id="_Linear5" x1="0" y1="0" x2="1" y2="0" gradientUnits="userSpaceOnUse" gradientTransform="matrix(-19.5592,-675.883,675.883,-19.5592,4218.52,3395.14)"><stop offset="0" style="stop-color:#d5dce9;stop-opacity:1"/><stop offset="1" style="stop-color:#d5dce9;stop-opacity:1"/></linearGradient><linearGradient id="_Linear6" x1="0" y1="0" x2="1" y2="0" gradientUnits="userSpaceOnUse" gradientTransform="matrix(-6.85163,-236.763,236.763,-6.85163,4190.23,271.191)"><stop offset="0" style="stop-color:#d5dce9;stop-opacity:1"/><stop offset="1" style="stop-color:#d5dce9;stop-opacity:1"/></linearGradient><linearGradient id="_Linear7" x1="0" y1="0" x2="1" y2="0" gradientUnits="userSpaceOnUse" gradientTransform="matrix(-9.84404,-340.168,340.168,-9.84404,5046.17,1605.54)"><stop offset="0" style="stop-color:#d5dce9;stop-opacity:1"/><stop offset="1" style="stop-color:#d5dce9;stop-opacity:1"/></linearGradient><linearGradient id="_Linear8" x1="0" y1="0" x2="1" y2="0" gradientUnits="userSpaceOnUse" gradientTransform="matrix(-9.58495,-331.215,331.215,-9.58495,4395.98,3422.39)"><stop offset="0" style="stop-color:#d5dce9;stop-opacity:1"/><stop offset="1" style="stop-color:#d5dce9;stop-opacity:1"/></linearGradient><linearGradient id="_Linear9" x1="0" y1="0" x2="1" y2="0" gradientUnits="userSpaceOnUse" gradientTransform="matrix(-41.2956,-1427,1427,-41.2956,4501.04,3129.03)"><stop offset="0" style="stop-color:#d5dce9;stop-opacity:1"/><stop offset="1" style="stop-color:#d5dce9;stop-opacity:1"/></linearGradient><linearGradient id="_Linear10" x1="0" y1="0" x2="1" y2="0" gradientUnits="userSpaceOnUse" gradientTransform="matrix(-16.1232,-557.15,557.15,-16.1232,4519.86,3182.79)"><stop offset="0" style="stop-color:#d5dce9;stop-opacity:1"/><stop offset="1" style="stop-color:#d5dce9;stop-opacity:1"/></linearGradient><linearGradient id="_Linear11" x1="0" y1="0" x2="1" y2="0" gradientUnits="userSpaceOnUse" gradientTransform="matrix(-15.1154,-522.322,522.322,-15.1154,4683.99,1950.43)"><stop offset="0" style="stop-color:#d5dce9;stop-opacity:1"/><stop offset="1" style="stop-color:#d5dce9;stop-opacity:1"/></linearGradient></defs></svg>