<?xml version="1.0" encoding="UTF-8" standalone="no"?><!DOCTYPE svg PUBLIC "-//W3C//DTD SVG 1.1//EN" "http://www.w3.org/Graphics/SVG/1.1/DTD/svg11.dtd"><svg width="100%" height="100%" viewBox="0 0 2649 78" version="1.1" xmlns="http://www.w3.org/2000/svg" xmlns:xlink="http://www.w3.org/1999/xlink" xml:space="preserve" xmlns:serif="http://www.serif.com/" style="fill-rule:evenodd;clip-rule:evenodd;stroke-linejoin:round;stroke-miterlimit:2;"><path d="M5.585,12.465l605.848,64.829c0.373,0.04 0.749,0.046 1.124,0.019l880.19,-64.8c-0,0 1149.39,64.807 1149.39,64.807c3.444,0.194 6.397,-2.444 6.592,-5.888c0.194,-3.444 -2.445,-6.398 -5.889,-6.592l-1149.8,-64.83c-0.27,-0.015 -0.541,-0.013 -0.811,0.007l-880.032,64.788c-0.001,0 -605.287,-64.769 -605.287,-64.769c-3.429,-0.367 -6.512,2.12 -6.879,5.549c-0.367,3.43 2.12,6.513 5.549,6.88Z" style="fill:#fecc00;"/></svg>