<svg width="721" height="296" viewBox="0 0 721 296" version="1.1" xmlns="http://www.w3.org/2000/svg" xmlns:xlink="http://www.w3.org/1999/xlink" xml:space="preserve" xmlns:serif="http://www.serif.com/" style="fill-rule:evenodd;clip-rule:evenodd;stroke-linejoin:round;stroke-miterlimit:2;"><g id="text"><rect x="314.913" y="147.629" width="383.379" height="4.213"/><path d="M345.821,81.013c-0,-1.734 0.325,-3.017 0.979,-3.855c0.646,-0.833 1.679,-1.404 3.108,-1.716c1.421,-0.309 3.429,-0.463 6.029,-0.463c4.271,0 8.013,1.254 11.23,3.758c3.216,2.509 5.708,5.909 7.47,10.209c1.763,4.3 2.646,9.108 2.646,14.433c0,5.563 -0.929,10.346 -2.783,14.334c-1.858,3.991 -4.442,7.008 -7.75,9.049c-3.313,2.042 -7.1,3.063 -11.367,3.063c-3.775,0 -6.312,-0.537 -7.612,-1.625c-1.3,-1.083 -1.95,-2.892 -1.95,-5.425l-0,-41.763Zm-11.138,50.209l6.592,-0.096c1.796,0 3.404,0.029 4.825,0.096c1.425,0.058 2.6,0.116 3.529,0.183c2.533,0.184 4.763,0.279 6.679,0.279c5.629,0 10.796,-1.254 15.5,-3.758c4.7,-2.508 8.446,-6.067 11.225,-10.675c2.788,-4.608 4.179,-9.917 4.179,-15.917c0,-5.321 -1.345,-10.116 -4.037,-14.383c-2.688,-4.271 -6.479,-7.642 -11.367,-10.117c-4.887,-2.475 -10.487,-3.708 -16.8,-3.708c-1.05,-0 -3.125,0.058 -6.216,0.183c-2.538,0.188 -5.042,0.279 -7.517,0.279c-1.608,0 -3.775,-0.062 -6.496,-0.187l-4.917,-0.092c-0.129,0 -0.187,0.188 -0.187,0.559c-0,0.366 0.058,0.554 0.187,0.554c2.042,-0 3.555,0.171 4.546,0.512c0.988,0.342 1.654,0.942 1.996,1.809c0.338,0.866 0.508,2.229 0.508,4.083l0,42.967c0,1.858 -0.183,3.233 -0.554,4.133c-0.375,0.896 -1.037,1.496 -1.996,1.808c-0.962,0.309 -2.491,0.463 -4.595,0.463c-0.125,-0 -0.184,0.187 -0.184,0.558c0,0.371 0.059,0.554 0.184,0.554c2.104,0 3.741,-0.029 4.916,-0.087" style="fill-rule:nonzero;"/><path d="M409.904,100.454c0.771,-0.525 1.496,-0.787 2.179,-0.787c0.617,-0 1.142,0.137 1.58,0.416c0.429,0.275 0.929,0.696 1.483,1.25c0.554,0.621 1.096,1.105 1.625,1.442c0.525,0.342 1.187,0.508 1.996,0.508c1.237,0 2.208,-0.37 2.921,-1.112c0.712,-0.742 1.066,-1.7 1.066,-2.879c0,-1.296 -0.646,-2.413 -1.95,-3.338c-1.296,-0.929 -2.658,-1.396 -4.079,-1.396c-1.3,0 -2.754,0.53 -4.362,1.58c-1.613,1.054 -3.621,2.937 -6.034,5.662c-0.125,-2.167 -0.496,-3.912 -1.112,-5.246c-0.621,-1.329 -1.238,-1.996 -1.859,-1.996c-0.062,0 -0.279,0.063 -0.645,0.188l-12.159,5.942c-0.183,0.058 -0.216,0.245 -0.091,0.554c0.12,0.312 0.308,0.462 0.554,0.462l0.091,0c2.167,-0.925 3.713,-1.387 4.642,-1.387c1.05,-0 1.808,0.462 2.275,1.387c0.463,0.934 0.696,2.384 0.696,4.367l-0,17.721c-0,2.537 -0.342,4.241 -1.021,5.108c-0.683,0.867 -2.075,1.296 -4.179,1.296c-0.183,-0 -0.275,0.187 -0.275,0.558c-0,0.371 0.092,0.554 0.275,0.554c1.546,0 2.754,-0.029 3.621,-0.087l5.383,-0.096l7.329,0.096c1.238,0.058 2.879,0.087 4.921,0.087c0.246,0 0.371,-0.183 0.371,-0.554c-0,-0.371 -0.125,-0.558 -0.371,-0.558c-2.287,-0 -4.025,-0.188 -5.196,-0.558c-1.179,-0.371 -2.012,-1 -2.508,-1.9c-0.496,-0.896 -0.742,-2.213 -0.742,-3.946l0,-20.042c1.609,-1.675 2.8,-2.771 3.575,-3.296" style="fill-rule:nonzero;"/><path d="M472.313,105.696c-1.18,-0 -2.259,-0.121 -3.25,-0.371c-0.125,-0.062 -0.234,0 -0.325,0.188c-0.092,0.183 -0.138,0.366 -0.138,0.558c0,0.304 0.092,0.462 0.275,0.462c1.179,0.309 2.629,0.463 4.363,0.463c3.279,-0 6.483,-0.679 9.604,-2.042c3.125,-1.362 5.691,-3.404 7.704,-6.125c2.012,-2.721 3.017,-6.033 3.017,-9.929c-0,-5.383 -1.78,-9.375 -5.338,-11.975c-3.558,-2.6 -8.396,-3.896 -14.521,-3.896c-1.733,0 -3.237,0.029 -4.504,0.092c-1.267,0.062 -2.271,0.125 -3.012,0.187c-2.042,0.188 -3.775,0.28 -5.2,0.28c-1.671,-0 -3.867,-0.063 -6.588,-0.188l-4.825,-0.092c-0.183,0 -0.279,0.188 -0.279,0.555c-0,0.37 0.096,0.558 0.279,0.558c2.042,-0 3.538,0.171 4.5,0.512c0.958,0.338 1.608,0.942 1.95,1.809c0.338,0.866 0.508,2.229 0.508,4.083l0,42.967c0,1.921 -0.17,3.308 -0.508,4.175c-0.342,0.866 -0.975,1.454 -1.904,1.766c-0.929,0.309 -2.446,0.463 -4.546,0.463c-0.183,-0 -0.279,0.183 -0.279,0.558c-0,0.371 0.096,0.554 0.279,0.554c2.042,0 3.646,-0.029 4.825,-0.087l6.679,-0.096l8.079,0.096c1.421,0.058 3.4,0.087 5.938,0.087c0.183,0 0.279,-0.183 0.279,-0.554c0,-0.375 -0.096,-0.558 -0.279,-0.558c-2.846,-0 -4.933,-0.188 -6.267,-0.558c-1.329,-0.371 -2.225,-1.005 -2.687,-1.9c-0.467,-0.896 -0.7,-2.338 -0.7,-4.317l-0,-42.408c-0,-1.796 0.154,-3.113 0.466,-3.946c0.309,-0.838 0.85,-1.409 1.625,-1.717c0.771,-0.308 1.9,-0.467 3.388,-0.467c4.021,0 7.175,1.346 9.462,4.038c2.292,2.692 3.438,6.483 3.438,11.371c-0,4.95 -1.117,8.75 -3.342,11.412c-2.229,2.663 -4.954,3.992 -8.166,3.992" style="fill-rule:nonzero;"/><path d="M517.138,114.513l-0,10.112l-2.601,1.763c-1.237,0.745 -2.412,1.116 -3.529,1.116c-1.358,0 -2.52,-0.45 -3.479,-1.346c-0.958,-0.895 -1.437,-2.087 -1.437,-3.575c-0,-1.541 0.508,-2.733 1.529,-3.575c1.021,-0.829 2.337,-1.558 3.946,-2.179l5.571,-2.317Zm-9.005,1.763c-2.725,0.992 -4.779,1.808 -6.171,2.463c-1.391,0.645 -2.537,1.5 -3.437,2.549c-0.896,1.055 -1.342,2.413 -1.342,4.08c0,1.983 0.663,3.575 1.996,4.783c1.329,1.204 3.263,1.808 5.8,1.808c1.483,0 2.829,-0.216 4.034,-0.65c1.208,-0.429 2.554,-1.17 4.037,-2.225l4.271,-2.97c0.246,1.795 0.787,3.233 1.625,4.316c0.833,1.079 1.716,1.625 2.646,1.625c0.308,0 0.587,-0.062 0.833,-0.191l9.558,-4.546c0.246,-0.121 0.342,-0.325 0.28,-0.604c-0.063,-0.275 -0.217,-0.413 -0.467,-0.413l-0.183,0c-1.3,0.554 -2.413,0.833 -3.342,0.833c-1.175,0 -2.071,-0.495 -2.692,-1.483c-0.616,-0.987 -0.929,-2.446 -0.929,-4.362l0,-16.705c0,-3.341 -0.787,-5.846 -2.362,-7.52c-1.58,-1.667 -3.701,-2.505 -6.359,-2.505c-2.229,0 -4.812,0.513 -7.75,1.534c-2.941,1.02 -5.446,2.35 -7.516,3.991c-2.075,1.638 -3.109,3.325 -3.109,5.054c0,0.93 0.321,1.705 0.971,2.321c0.654,0.621 1.654,0.929 3.017,0.929c2.787,0 4.362,-1.579 4.733,-4.733c0.188,-1.854 0.729,-3.542 1.625,-5.058c0.896,-1.517 2.367,-2.275 4.408,-2.275c1.671,-0 2.892,0.883 3.667,2.646c0.775,1.762 1.163,4.562 1.163,8.4l-0,5.566l-9.005,3.342Z" style="fill-rule:nonzero;"/><path d="M541.45,128.85c-0.746,0.9 -2.133,1.346 -4.175,1.346c-0.188,-0 -0.279,0.183 -0.279,0.558c-0,0.371 0.091,0.554 0.279,0.554c1.546,0 2.783,-0.029 3.712,-0.087l5.38,-0.096l5.475,0.096c0.929,0.058 2.137,0.087 3.62,0.087c0.188,0 0.28,-0.183 0.28,-0.554c-0,-0.375 -0.092,-0.558 -0.28,-0.558c-2.104,-0 -3.495,-0.433 -4.175,-1.3c-0.683,-0.863 -1.02,-2.567 -1.02,-5.104l-0,-58.746c-0,-0.183 -0.175,-0.4 -0.513,-0.646c-0.342,-0.25 -0.633,-0.375 -0.879,-0.375l-0.371,0.092l-13.087,6.129c-0.125,0.125 -0.125,0.342 -0,0.65c0.125,0.308 0.308,0.462 0.558,0.462l0.092,0c1.545,-0.741 2.783,-1.112 3.712,-1.112c1.05,-0 1.779,0.479 2.179,1.433c0.404,0.967 0.604,2.525 0.604,4.692l0,47.421c0,2.475 -0.37,4.162 -1.112,5.058" style="fill-rule:nonzero;"/><path d="M565.575,129.221c1.862,2.075 4.454,3.108 7.8,3.108c4.825,0 9.4,-2.504 13.733,-7.516c0.063,2.354 0.338,4.22 0.838,5.616c0.492,1.392 1.05,2.088 1.671,2.088l0.366,-0.092l12.159,-5.846c0.187,-0.125 0.216,-0.337 0.096,-0.65c-0.125,-0.308 -0.28,-0.466 -0.467,-0.466l-0.188,0.095c-2.037,0.742 -3.429,1.113 -4.175,1.113c-0.987,-0 -1.7,-0.429 -2.133,-1.3c-0.433,-0.863 -0.65,-2.383 -0.65,-4.546l0,-25.15c0,-0.187 -0.154,-0.404 -0.462,-0.65c-0.313,-0.25 -0.588,-0.371 -0.838,-0.371c-0.183,0 -0.342,0.029 -0.462,0.092l-11.692,5.475c-0.25,0.062 -0.313,0.267 -0.188,0.604c0.125,0.342 0.309,0.508 0.559,0.508l0.091,0c1.175,-0.491 2.042,-0.741 2.6,-0.741c0.988,-0 1.717,0.512 2.179,1.533c0.463,1.021 0.696,2.617 0.696,4.779l0,15.963c-1.3,1.296 -2.77,2.321 -4.408,3.062c-1.642,0.742 -3.233,1.113 -4.779,1.113c-2.6,-0 -4.533,-0.85 -5.8,-2.55c-1.267,-1.704 -1.904,-4.288 -1.904,-7.754l-0,-21.063c-0,-0.187 -0.154,-0.404 -0.463,-0.65c-0.308,-0.25 -0.587,-0.371 -0.833,-0.371l-0.371,0.092l-11.787,5.475c-0.188,0.125 -0.217,0.342 -0.092,0.65c0.121,0.312 0.308,0.462 0.554,0.462l0.096,0c1.112,-0.491 1.979,-0.741 2.596,-0.741c1.916,-0 2.875,2.104 2.875,6.312l-0,13.825c-0,3.588 0.929,6.421 2.783,8.492" style="fill-rule:nonzero;"/><path d="M621.721,96.6c1.487,0 2.571,0.325 3.25,0.975c0.679,0.654 1.329,1.75 1.95,3.296c1.05,2.783 2.75,4.175 5.104,4.175c1.421,-0 2.537,-0.388 3.342,-1.163c0.804,-0.766 1.204,-1.679 1.204,-2.733c-0,-1.983 -1.175,-3.558 -3.525,-4.733c-2.35,-1.175 -4.984,-1.763 -7.892,-1.763c-3.4,0 -6.758,0.788 -10.067,2.367c-3.308,1.579 -6.016,3.837 -8.12,6.775c-2.105,2.937 -3.155,6.354 -3.155,10.25c0,3.096 0.68,6.054 2.038,8.867c1.362,2.816 3.45,5.104 6.271,6.866c2.808,1.763 6.229,2.646 10.25,2.646c2.846,0 5.383,-0.5 7.612,-1.483c2.229,-0.992 4.484,-2.509 6.775,-4.55c0.121,-0.121 0.109,-0.279 -0.046,-0.463c-0.158,-0.187 -0.329,-0.279 -0.512,-0.279l-0.092,0c-1.612,0.929 -3.096,1.608 -4.454,2.042c-1.362,0.433 -2.908,0.65 -4.642,0.65c-5.074,-0 -8.804,-1.596 -11.183,-4.779c-2.383,-3.188 -3.571,-7.346 -3.571,-12.484c0,-4.391 0.846,-7.9 2.55,-10.533c1.7,-2.629 4.005,-3.946 6.913,-3.946" style="fill-rule:nonzero;"/><path d="M639.683,70.85c0.15,0.342 0.321,0.508 0.509,0.508l0.091,0c1.609,-0.741 2.88,-1.112 3.809,-1.112c0.983,-0 1.7,0.479 2.133,1.437c0.429,0.963 0.65,2.521 0.65,4.688l0,47.421c0,2.479 -0.375,4.166 -1.117,5.058c-0.741,0.9 -2.133,1.346 -4.175,1.346c-0.183,-0 -0.279,0.187 -0.279,0.558c0,0.371 0.096,0.554 0.279,0.554c1.546,0 2.784,-0.029 3.713,-0.087l5.291,-0.096l5.288,0.096c0.929,0.058 2.167,0.087 3.712,0.087c0.246,0 0.371,-0.183 0.371,-0.554c0,-0.371 -0.125,-0.558 -0.371,-0.558c-2.104,-0 -3.512,-0.429 -4.225,-1.296c-0.708,-0.867 -1.062,-2.571 -1.062,-5.108l-0,-19.767c1.296,-1.3 2.796,-2.333 4.5,-3.108c1.7,-0.775 3.383,-1.163 5.058,-1.163c5.317,0 7.979,3.409 7.979,10.213l0,13.825c0,2.479 -0.37,4.166 -1.112,5.058c-0.746,0.9 -2.133,1.346 -4.179,1.346c-0.184,-0 -0.275,0.187 -0.275,0.558c-0,0.371 0.091,0.554 0.275,0.554c1.546,0 2.787,-0.029 3.712,-0.087l5.292,-0.096l5.287,0.096c0.93,0.058 2.167,0.087 3.713,0.087c0.246,0 0.371,-0.183 0.371,-0.554c-0,-0.371 -0.125,-0.558 -0.371,-0.558c-2.104,-0 -3.513,-0.429 -4.221,-1.296c-0.712,-0.867 -1.067,-2.571 -1.067,-5.108l0,-17.909c0,-3.529 -0.945,-6.312 -2.833,-8.354c-1.887,-2.041 -4.529,-3.062 -7.933,-3.062c-5.013,-0 -9.746,2.566 -14.196,7.7l-0,-37.117c-0,-0.188 -0.142,-0.404 -0.421,-0.65c-0.279,-0.25 -0.542,-0.371 -0.787,-0.371l-0.467,0.088l-12.9,6.129c-0.183,0.062 -0.2,0.262 -0.042,0.604" style="fill-rule:nonzero;"/><path d="M381.7,193.604c-1.971,0.109 -3.867,0.163 -5.692,0.163c-1.825,-0 -4.254,-0.092 -7.283,-0.271c-0.075,-0 -0.137,0.041 -0.192,0.133c-0.054,0.092 -0.083,0.192 -0.083,0.3c0,0.296 0.108,0.442 0.329,0.442c1.863,-0 3.167,0.125 3.917,0.383c0.746,0.254 1.229,0.758 1.45,1.504c0.221,0.75 0.329,2.071 0.329,3.971c0,1.825 -0.2,3.213 -0.604,4.163c-0.4,0.945 -1.038,1.604 -1.917,1.97c-0.875,0.363 -2.1,0.546 -3.666,0.546c-3.105,0 -5.85,-0.783 -8.242,-2.354c-2.392,-1.566 -4.238,-3.712 -5.529,-6.433c-1.296,-2.721 -1.946,-5.742 -1.946,-9.067c-0,-3.137 0.592,-5.9 1.779,-8.292c1.188,-2.387 2.813,-4.225 4.875,-5.504c2.063,-1.279 4.354,-1.916 6.871,-1.916c3.212,-0 5.842,0.958 7.887,2.875c2.042,1.916 3.45,4.025 4.213,6.325c0.037,0.145 0.158,0.2 0.358,0.162c0.2,-0.033 0.3,-0.104 0.3,-0.216l-0.712,-7.23c-0.038,-0.471 -0.084,-0.766 -0.134,-0.875c-0.054,-0.112 -0.25,-0.237 -0.575,-0.383c-1.095,-0.546 -2.512,-0.967 -4.245,-1.262c-1.734,-0.292 -3.513,-0.434 -5.338,-0.434c-3.983,0 -7.575,0.738 -10.787,2.217c-3.213,1.479 -5.734,3.567 -7.559,6.267c-1.825,2.704 -2.737,5.808 -2.737,9.312c-0,3.283 0.804,6.267 2.408,8.95c1.608,2.683 3.933,4.813 6.983,6.379c3.046,1.571 6.634,2.359 10.759,2.359c3.616,-0 7.721,-0.513 12.321,-1.538c0.258,-0.071 0.42,-0.146 0.491,-0.217c0.075,-0.07 0.113,-0.216 0.113,-0.437c-0,-0.183 -0.067,-0.621 -0.192,-1.317c-0.129,-0.691 -0.192,-1.858 -0.192,-3.504c0,-2.079 0.042,-3.542 0.138,-4.379c0.092,-0.838 0.279,-1.4 0.575,-1.671c0.292,-0.275 0.8,-0.392 1.529,-0.354c0.183,-0 0.275,-0.129 0.275,-0.388c0,-0.07 -0.025,-0.154 -0.079,-0.241c-0.058,-0.096 -0.121,-0.138 -0.196,-0.138" style="fill-rule:nonzero;"/><path d="M408.204,192.346l5.692,-12.763l6.3,12.763l-11.992,-0Zm27.488,14.125c-0.988,-0 -1.909,-0.483 -2.767,-1.45c-0.858,-0.971 -1.925,-2.767 -3.2,-5.396l-13.417,-27.05c-0.037,-0.108 -0.183,-0.163 -0.441,-0.163c-0.255,0 -0.417,0.055 -0.492,0.163l-11.771,26.504c-0.912,2.042 -1.7,3.588 -2.354,4.625c-0.658,1.042 -1.333,1.767 -2.025,2.167c-0.696,0.4 -1.554,0.6 -2.575,0.6c-0.183,-0 -0.275,0.108 -0.275,0.329c-0,0.217 0.092,0.329 0.275,0.329c0.767,0 1.733,-0.037 2.9,-0.112c1.317,-0.075 2.467,-0.109 3.45,-0.109c1.025,0 2.229,0.034 3.617,0.109c1.237,0.075 2.187,0.112 2.845,0.112c0.184,0 0.275,-0.112 0.275,-0.329c0,-0.221 -0.091,-0.329 -0.275,-0.329c-1.641,-0 -2.92,-0.329 -3.833,-0.983c-0.912,-0.659 -1.367,-1.625 -1.367,-2.905c0,-0.875 0.238,-1.862 0.713,-2.958l2.625,-5.912l13.25,-0l4.162,8.433c0.621,1.312 0.93,2.242 0.93,2.792c-0,0.55 -0.246,0.941 -0.738,1.179c-0.492,0.237 -1.267,0.354 -2.325,0.354c-0.146,-0 -0.221,0.108 -0.221,0.329c0,0.217 0.075,0.329 0.221,0.329c0.692,0 1.658,-0.037 2.9,-0.112c1.242,-0.075 2.317,-0.109 3.233,-0.109c0.692,0 1.805,0.034 3.338,0.109c1.533,0.075 2.646,0.112 3.342,0.112c0.179,0 0.275,-0.112 0.275,-0.329c-0,-0.221 -0.096,-0.329 -0.275,-0.329" style="fill-rule:nonzero;"/><path d="M464.821,206.088c-1.242,-0 -2.171,-0.117 -2.792,-0.355c-0.621,-0.237 -1.042,-0.596 -1.258,-1.07c-0.221,-0.471 -0.329,-1.13 -0.329,-1.971l-0,-13.304c0.875,-0.075 1.97,-0.113 3.283,-0.113c2.775,0 4.883,0.842 6.329,2.521c1.438,1.679 2.163,3.908 2.163,6.683c-0,5.075 -2.467,7.609 -7.396,7.609m-4.379,-28.638c-0,-1.458 0.208,-2.429 0.629,-2.9c0.421,-0.479 1.212,-0.717 2.383,-0.717c1.896,0 3.338,0.571 4.325,1.7c0.983,1.134 1.479,2.742 1.479,4.817c0,2.229 -0.55,4.042 -1.641,5.45c-1.096,1.408 -2.721,2.108 -4.875,2.108l-2.3,-0.054l-0,-10.404Zm7.446,10.458c2.083,-0.804 3.687,-1.908 4.82,-3.316c1.13,-1.4 1.696,-2.984 1.696,-4.734c0,-2.262 -0.858,-4.012 -2.571,-5.254c-1.716,-1.241 -4.2,-1.862 -7.45,-1.862c-0.729,-0 -1.379,0.016 -1.941,0.058c-0.567,0.033 -1.05,0.071 -1.455,0.104c-1.129,0.113 -2.208,0.167 -3.229,0.167c-0.987,-0 -2.283,-0.038 -3.887,-0.113l-2.85,-0.054c-0.071,0 -0.109,0.113 -0.109,0.334c0,0.216 0.038,0.325 0.109,0.325c1.171,-0 2.037,0.104 2.604,0.3c0.567,0.2 0.967,0.566 1.204,1.095c0.238,0.53 0.354,1.321 0.354,2.384l0,25.35c0,1.096 -0.116,1.9 -0.354,2.408c-0.237,0.517 -0.65,0.871 -1.233,1.071c-0.584,0.2 -1.459,0.3 -2.629,0.3c-0.109,-0 -0.163,0.108 -0.163,0.329c0,0.217 0.054,0.329 0.163,0.329c1.208,0 2.154,-0.021 2.85,-0.058l3.941,-0.054c0.913,-0 1.734,0.016 2.463,0.054c0.733,0.037 1.333,0.071 1.808,0.112c1.388,0.109 2.608,0.163 3.667,0.163c2.266,-0 4.321,-0.446 6.162,-1.342c1.842,-0.896 3.288,-2.116 4.325,-3.671c1.042,-1.55 1.563,-3.275 1.563,-5.17c-0,-2.484 -0.896,-4.567 -2.684,-6.242c-1.791,-1.683 -4.179,-2.683 -7.175,-3.017" style="fill-rule:nonzero;"/><path d="M505.808,175.013c0.2,-0.53 0.584,-0.905 1.15,-1.121c0.567,-0.221 1.45,-0.329 2.655,-0.329c0.108,-0 0.166,-0.109 0.166,-0.33c0,-0.22 -0.058,-0.329 -0.166,-0.329l-2.738,0.054c-1.608,0.071 -2.975,0.113 -4.108,0.113c-1.021,-0 -2.338,-0.042 -3.942,-0.113l-2.846,-0.054c-0.112,0 -0.166,0.109 -0.166,0.329c-0,0.221 0.054,0.33 0.166,0.33c1.242,-0 2.142,0.1 2.709,0.3c0.566,0.2 0.958,0.554 1.179,1.066c0.221,0.513 0.325,1.313 0.325,2.409l-0,25.354c-0,1.091 -0.104,1.904 -0.325,2.437c-0.221,0.529 -0.613,0.884 -1.179,1.063c-0.567,0.187 -1.467,0.279 -2.709,0.279c-0.112,-0 -0.166,0.108 -0.166,0.329c-0,0.217 0.054,0.329 0.166,0.329c1.204,0 2.15,-0.021 2.846,-0.058l3.942,-0.054l4.054,0.054c0.692,0.037 1.625,0.058 2.792,0.058c0.108,0 0.166,-0.112 0.166,-0.329c0,-0.221 -0.058,-0.329 -0.166,-0.329c-1.242,-0 -2.146,-0.092 -2.709,-0.279c-0.571,-0.179 -0.941,-0.521 -1.125,-1.034c-0.183,-0.512 -0.275,-1.337 -0.275,-2.466l0,-25.242c0,-1.096 0.1,-1.908 0.304,-2.437" style="fill-rule:nonzero;"/><path d="M561.963,172.958c-1.246,0.075 -2.23,0.113 -2.959,0.113c-0.766,-0 -1.733,-0.038 -2.9,-0.113l-2.246,-0.054c-0.075,0 -0.112,0.113 -0.112,0.334c-0,0.216 0.037,0.325 0.112,0.325c1.421,-0 2.517,0.516 3.284,1.562c0.766,1.038 1.15,2.525 1.15,4.458l-0,19.384l-19.713,-23.213l-1.312,-1.754c-0.296,-0.437 -0.513,-0.729 -0.659,-0.875c-0.145,-0.146 -0.366,-0.221 -0.658,-0.221c-0.621,0 -1.15,0.021 -1.587,0.054l-3.505,0.059c-0.875,-0 -1.55,-0.021 -2.025,-0.059l-2.191,-0.054c-0.071,0 -0.109,0.113 -0.109,0.334c0,0.216 0.038,0.325 0.109,0.325c0.879,-0 1.725,0.216 2.546,0.654c0.82,0.441 1.741,1.208 2.766,2.3l0,23.983c0,1.938 -0.429,3.417 -1.287,4.438c-0.854,1.025 -2.071,1.533 -3.642,1.533c-0.108,-0 -0.162,0.108 -0.162,0.329c-0,0.217 0.054,0.329 0.162,0.329c1.096,0 1.938,-0.021 2.521,-0.058l3.229,-0.054l2.9,0.054c0.513,0.037 1.263,0.058 2.246,0.058c0.075,0 0.108,-0.112 0.108,-0.329c0,-0.221 -0.037,-0.329 -0.108,-0.329c-1.458,-0 -2.575,-0.508 -3.338,-1.533c-0.766,-1.021 -1.154,-2.5 -1.154,-4.438l0,-22.283l25.684,29.841c0.07,0.075 0.204,0.092 0.383,0.055c0.183,-0.034 0.275,-0.109 0.275,-0.217l-0,-28.313c-0,-1.933 0.396,-3.42 1.204,-4.458c0.804,-1.046 1.933,-1.562 3.396,-1.562c0.071,-0 0.108,-0.109 0.108,-0.325c0,-0.221 -0.037,-0.334 -0.108,-0.334l-2.408,0.054Z" style="fill-rule:nonzero;"/><path d="M605.163,198.479c-0.146,0 -0.221,0.034 -0.221,0.104c-1.313,4.75 -4.417,7.121 -9.309,7.121l-2.683,0c-1.167,0 -1.979,-0.233 -2.433,-0.712c-0.459,-0.471 -0.684,-1.313 -0.684,-2.521l0,-12.425l5.2,-0c4.088,-0 6.134,1.566 6.134,4.708c-0,0.071 0.108,0.109 0.329,0.109c0.216,-0 0.325,-0.038 0.325,-0.109c-0,-0.729 -0.034,-1.679 -0.109,-2.85l-0.054,-2.571l0.054,-4.766c0,-0.109 -0.1,-0.163 -0.3,-0.163c-0.2,0 -0.304,0.054 -0.304,0.163c0,2.704 -2.004,4.054 -6.021,4.054l-5.254,-0l0,-11.171c0,-1.133 0.271,-1.938 0.817,-2.408c0.55,-0.475 1.479,-0.713 2.796,-0.713l2.187,0c4.2,0 6.738,2.079 7.613,6.242c0.037,0.112 0.154,0.146 0.354,0.112c0.204,-0.037 0.304,-0.096 0.304,-0.166l-0.112,-7.121c-0,-0.325 -0.18,-0.492 -0.546,-0.492l-22.779,0c-0.109,0 -0.163,0.113 -0.163,0.333c0,0.217 0.054,0.325 0.163,0.325c1.204,0 2.1,0.1 2.683,0.3c0.583,0.2 0.979,0.555 1.179,1.067c0.2,0.513 0.3,1.313 0.3,2.408l0,25.355c0,1.096 -0.1,1.908 -0.3,2.437c-0.2,0.529 -0.587,0.888 -1.15,1.067c-0.571,0.183 -1.471,0.275 -2.712,0.275c-0.109,-0 -0.163,0.108 -0.163,0.329c0,0.217 0.054,0.329 0.163,0.329l23.766,0c0.329,0 0.546,-0.062 0.654,-0.196c0.109,-0.125 0.167,-0.333 0.167,-0.629c0,-2.3 0.183,-4.833 0.546,-7.608c-0,-0.038 -0.046,-0.084 -0.133,-0.138c-0.096,-0.05 -0.196,-0.079 -0.305,-0.079" style="fill-rule:nonzero;"/><path d="M653.842,171.317c-0.184,-0 -0.296,0.075 -0.329,0.22c-0.184,0.546 -0.592,0.909 -1.234,1.096c-0.637,0.179 -1.654,0.271 -3.037,0.271l-3.725,0.054c-2.409,0.075 -4.692,0.113 -6.842,0.113c-4.2,-0 -7.871,-0.054 -11.008,-0.167c-2.046,0 -3.067,-0.4 -3.067,-1.208c0,-0.179 -0.1,-0.271 -0.3,-0.271c-0.2,-0 -0.3,0.092 -0.3,0.271c0,1.137 -0.092,2.825 -0.275,5.066c-0.183,2.246 -0.35,4.084 -0.492,5.505c0,0.112 0.1,0.166 0.3,0.166c0.2,0 0.3,-0.037 0.3,-0.112c0.767,-2.775 1.871,-4.842 3.313,-6.213c1.442,-1.371 3.275,-2.054 5.504,-2.054c0.987,0 1.717,0.092 2.192,0.275c0.471,0.179 0.8,0.492 0.983,0.929c0.183,0.438 0.275,1.134 0.275,2.079l0,25.355c0,1.091 -0.121,1.904 -0.358,2.437c-0.238,0.529 -0.692,0.888 -1.367,1.067c-0.679,0.183 -1.725,0.275 -3.15,0.275c-0.071,-0 -0.108,0.108 -0.108,0.329c-0,0.217 0.037,0.329 0.108,0.329c1.35,0 2.412,-0.021 3.179,-0.058l4.271,-0.054l4.487,0.054c0.73,0.037 1.734,0.058 3.013,0.058c0.108,0 0.167,-0.112 0.167,-0.329c-0,-0.221 -0.059,-0.329 -0.167,-0.329c-1.425,-0 -2.462,-0.092 -3.121,-0.275c-0.658,-0.179 -1.096,-0.525 -1.312,-1.038c-0.221,-0.512 -0.329,-1.333 -0.329,-2.466l-0,-25.242c-0,-0.988 0.079,-1.708 0.245,-2.163c0.163,-0.458 0.492,-0.779 0.984,-0.958c0.491,-0.183 1.25,-0.275 2.275,-0.275c2.3,0 4.125,0.667 5.475,2c1.35,1.329 2.208,3.404 2.575,6.213c0.033,0.112 0.154,0.166 0.354,0.166c0.2,0 0.3,-0.054 0.3,-0.166c-0,-1.421 0.054,-3.284 0.166,-5.588c0.109,-2.296 0.217,-4.012 0.325,-5.142c0,-0.145 -0.087,-0.22 -0.27,-0.22" style="fill-rule:nonzero;"/></g><g id="logo"><path d="M166.688,10.958c-74.405,0 -134.934,60.53 -134.934,134.934c0,74.404 60.529,134.937 134.934,134.937c74.404,0 134.937,-60.533 134.937,-134.937c0,-74.404 -60.533,-134.934 -134.937,-134.934" style="fill:#fff;fill-rule:nonzero;"/><path d="M133.296,133.196c-0,-0 3.204,-1.896 2.629,-5.396c0,0 -1.312,4.813 -3.504,4.813c-2.188,-0 -4.367,-0.434 -4.367,-0.434l5.242,1.017Z" style="fill-rule:nonzero;"/><path d="M153.421,125.613c-2.188,-0.001 -4.671,-1.021 -7.004,-0.725c-2.325,0.291 -7.142,2.325 -7.871,3.058c-0.729,0.729 -2.046,1.312 -1.742,1.9c0.288,0.575 2.029,2.912 4.367,4.079c-1.313,-2.337 -1.313,-1.904 -1.742,-3.654c0,-0 1.5,-1.671 3.746,-2.704c-0.367,0.575 -0.583,1.254 -0.583,1.979c-0,2.054 1.662,3.725 3.721,3.725c2.058,-0 3.712,-1.671 3.712,-3.725c0,-0.975 -0.375,-1.842 -0.983,-2.504c2.391,0.475 3.596,1.487 4.962,2.504c1.746,1.316 5.684,0.3 5.684,0.3c-0,-0 -4.08,-4.234 -6.267,-4.234" style="fill-rule:nonzero;"/><path d="M151.967,135.967c-2.634,0.729 -8.9,-0.146 -8.9,-0.146c3.645,2.329 5.254,1.454 6.42,1.6c1.163,0.154 4.813,-1.304 6.996,-2.913c2.184,-1.604 -2.479,-1.604 -2.479,-1.604c0,0 0.579,2.329 -2.037,3.063" style="fill-rule:nonzero;"/><path d="M151.675,165.713c0.579,-1.9 2.037,-8.905 3.787,-10.65c1.755,-1.742 2.042,-3.788 2.042,-3.788c-0.733,-0.146 -1.754,0.438 -2.625,1.463c-0.875,1.016 -5.546,7.583 -6.708,8.454c-1.167,0.871 -3.209,2.766 -4.813,2.766c-1.604,0 -3.066,2.338 -3.929,3.355c-0.883,1.02 -1.471,6.129 -3.216,8.166c-1.751,2.042 -2.48,7.146 -2.771,7.579c-0.296,0.442 5.104,-4.662 7,-6.558c1.891,-1.892 2.916,-3.5 4.954,-4.954c2.046,-1.467 5.691,-3.938 6.279,-5.833" style="fill-rule:nonzero;"/><path d="M106.029,147.483c-0.287,2.484 2.629,6.275 3.646,7.288c1.025,1.021 3.646,0.879 3.208,-1.45c-0.433,-2.334 0.584,-7.296 1.309,-8.463c0.737,-1.166 0.15,-4.079 -0.434,-4.808c0,0 1.6,-3.646 -0.875,-4.817c-2.475,-1.162 -2.925,-4.812 -2.925,-4.812c-3.054,-0.15 -6.112,-2.767 -8.308,-3.35c-2.183,-0.579 -0.871,3.496 -0.438,5.833c0.438,2.329 -1.887,6.421 -0.579,8.459c1.313,2.037 2.78,11.52 3.946,14.287c1.163,2.767 2.175,6.129 3.342,5.246c1.175,-0.875 -2.179,-6.85 -3.342,-9.767c-1.166,-2.925 -1.025,-7.583 -1.612,-9.183c-0.58,-1.6 0.15,-4.671 0.729,-4.525c0.583,0.154 1.316,-2.767 1.021,-3.788c-0.288,-1.02 -0.288,-2.62 0.145,-2.77c0.442,-0.142 1.459,0.291 2.917,1.6c1.459,1.316 0.292,3.504 0.142,4.958c-0.142,1.462 -1.6,7.583 -1.892,10.062" style="fill-rule:nonzero;"/><path d="M145.396,200.117c2.05,-1.742 1.75,-2.767 2.625,-3.792c0.875,-1.017 0.3,-1.892 0.3,-1.892c-0,0 -2.338,2.625 -2.629,3.355c-0.296,0.733 -3.359,3.062 -3.938,4.812c-0.583,1.754 -2.629,1.896 -4.079,2.775c-1.462,0.871 -1.896,2.621 -0.729,4.221c1.167,1.612 8.158,3.796 8.6,3.796c-0,-0 0.296,-1.604 0.296,-3.054c-0,-1.467 -0.296,-1.175 -1.025,-2.342c-0.725,-1.171 -1.021,-2.479 -1.459,-3.942c-0.433,-1.454 0,-2.183 2.038,-3.937" style="fill-rule:nonzero;"/><path d="M143.5,145.004c0.883,0.729 1.754,1.454 3.213,1.454c1.458,0 6.566,-4.37 7.145,-5.829c0.65,-1.625 -3.358,2.188 -4.671,2.188c-1.308,-0 -4.37,-0.579 -5.391,-0.579c-1.017,-0 -1.163,2.045 -0.296,2.766" style="fill-rule:nonzero;"/><path d="M114.783,160.613c0.146,-0.884 1.159,-2.055 0.146,-1.905c-1.029,0.154 -2.479,1.313 -2.479,1.313c0.871,0.592 2.188,1.462 2.333,0.592" style="fill-rule:nonzero;"/><path d="M159.396,163.233c0.729,0.296 2.921,-0.295 2.921,-0.295l-1.025,-0.73c-1.017,-0.733 -2.038,-0.875 -3.067,-0.729c0,0 0.442,1.459 1.171,1.754" style="fill-rule:nonzero;"/><path d="M161.433,115.996c-1.162,-1.025 -2.916,-2.484 -4.662,-3.209c-1.75,-0.733 -7.438,-1.32 -9.329,-1.016c-1.896,0.283 -3.504,2.321 -4.809,3.2c-1.316,0.875 -2.341,1.604 -3.941,2.921c-1.6,1.304 -3.059,1.6 -4.084,3.491c-1.025,1.896 -2.187,4.084 -2.187,4.084c-0,-0 2.925,-2.329 4.379,-3.35c1.458,-1.025 5.975,-3.059 8.163,-3.355c0.183,-0.024 0.37,-0.054 0.562,-0.087c-1.608,0.571 -3.262,1.329 -5.083,1.979c-4.084,1.459 -6.709,8.025 -6.709,8.025c0,0 3.942,-3.066 6.271,-5.25c2.042,-1.921 8.892,-4.525 11.084,-4.371c2.191,0.142 6.85,2.48 6.85,2.48c-0,-0.001 -1.784,-1.763 -4.517,-2.884c2.046,0.667 4.804,1.567 4.804,1.567l4.233,-2.479l-1.025,-1.746Z" style="fill-rule:nonzero;"/><path d="M193.008,136.433c2.059,0 3.713,-1.658 3.713,-3.712c-0,-0.871 -0.308,-1.671 -0.817,-2.313c0.838,0.263 1.679,0.509 2.025,0.567c0.771,0.1 3.717,2.954 4.154,3.387c0.442,0.438 0.442,1.092 0.109,1.963c-0.321,0.879 -1.534,1.537 -2.4,2.187c-0.884,0.655 -4.817,0.88 -4.817,0.88c0,-0 2.846,0.437 3.933,0.437c1.096,0 2.634,-1.096 3.284,-1.646c0.658,-0.546 1.862,-1.312 3.071,-1.962c1.191,-0.659 -0.334,-1.859 -0.446,-2.629c-0.109,-0.759 -1.967,-2.834 -2.513,-2.73c-0.546,0.113 0.221,0.988 -0.658,0.988c-0.875,-0 -6.013,-3.721 -10.067,-3.283c-4.037,0.433 -8.087,3.6 -8.087,3.6c-1.425,0.666 -0.546,1.537 0.758,1.425c1.317,-0.109 1.317,-1.092 2.963,-2.4c0.67,-0.542 1.916,-0.88 3.145,-1.084c-0.658,0.671 -1.075,1.596 -1.075,2.613c0,2.054 1.675,3.712 3.725,3.712" style="fill-rule:nonzero;"/><path d="M98.158,213.092c1.309,-2.034 8.313,-9.621 8.313,-9.621c-0,-0 5.679,-6.85 6.996,-10.058c1.316,-3.209 7.729,-12.834 7.729,-12.834c-0,0 -2.475,-5.541 -3.354,-11.221c-0,0 -3.792,6.267 -7.142,3.642c-3.354,-2.629 -5.546,-4.808 -6.421,-14.292c0,0 -2.333,-4.22 -3.208,-9.475c-0,0 -1.746,-5.687 -2.038,-8.166c-0.291,-2.475 -0.725,-14.284 -0.291,-15.021c0.433,-0.725 1.308,-3.35 3.354,-3.496c2.037,-0.146 4.083,0.146 4.083,0.146l1.892,-3.5c-0,-0 0.142,-8.313 -0.292,-9.042c-0.433,-0.725 -4.962,-6.266 -5.683,-12.391c-0.729,-6.121 3.208,-15.163 5.975,-18.375c2.771,-3.205 8.317,-9.042 9.921,-13.996c1.6,-4.959 6.116,-9.621 10.496,-11.954c4.375,-2.334 15.895,-4.967 17.495,-5.546c1.6,-0.579 9.625,-3.504 13.121,-2.042c3.5,1.463 14.146,2.188 16.479,1.608c2.338,-0.591 8.604,-1.17 11.813,0.146c3.204,1.313 11.512,7 13.554,7l0,-0.004c0.329,0.333 0.671,0.625 1.025,0.804c0.875,0.438 5.471,1.971 6.996,3.067c1.529,1.092 7,4.15 7.216,5.029c0.059,0.208 0.226,0.567 0.434,0.971c-0.242,0.362 -0.6,0.883 -1.379,1.367c-1.888,1.162 -4.23,4.075 -6.271,4.954c-2.038,0.866 -5.679,2.771 -6.85,3.204c-1.171,0.437 -6.271,0.583 -7.292,0.437c-1.017,-0.15 -3.642,-0.729 -4.379,-0.87c-0.721,-0.155 -2.321,-2.196 -4.075,-1.905c-1.754,0.3 -5.688,2.775 -6.563,3.067c-0.875,0.296 -2.916,1.9 -2.916,1.9c-0,0 7.291,1.888 9.183,1.746c1.896,-0.142 11.521,0.437 12.688,0.587c1.166,0.146 3.787,1.317 5.245,2.038c1.463,0.725 2.488,-0.592 4.375,1.171c1.896,1.746 2.625,1.596 2.775,3.933c0.146,2.333 -1.162,4.513 -1.02,6.121c0.141,1.604 -1.313,10.208 -1.459,12.683c-0.15,2.484 -0.15,2.338 0.579,5.979c0.738,3.65 0.3,5.4 0,6.859c-0.291,1.454 -4.079,1.6 -5.25,2.912c-1.162,1.313 0.742,3.354 0.742,3.354c0.283,0.584 1.883,3.5 2.038,4.813c0.141,1.308 -0,2.621 0.291,3.642c0.288,1.02 1.154,3.062 0.142,3.65c0.004,-0.005 0.142,-0.596 -0.879,-2.63c-1.025,-2.041 -6.413,-9.183 -7.579,-10.204c-0.742,-0.637 -2.696,-1.571 -4.221,-2.362c0.654,0.05 1.454,0.108 2.466,0.175c2.338,0.154 2.78,-0.725 4.23,-2.479c1.466,-1.75 -2.184,-3.355 -3.055,-3.213c-0.879,0.154 -5.687,2.342 -7.437,3.504c-1.754,1.171 -4.525,0 -7.15,-0.15c-2.621,-0.141 -4.663,-1.75 -7.283,-3.354c-0,0 -0.734,2.192 -0,3.792c0.395,0.891 0.762,1.371 1.275,1.675c-2.55,0.379 -4.659,2.262 -4.784,4.166c-0.141,2.18 0.734,6.267 1.025,8.305c0.296,2.05 -1.458,8.025 -1.746,10.795c-0.3,2.767 2.042,7.142 2.763,10.059c0.733,2.921 2.942,3.766 0.879,5.829c-3.062,3.062 -9.767,3.062 -6.562,5.692c3.208,2.62 9.337,4.366 10.354,4.083c1.021,-0.292 6.125,-1.317 7.146,-2.483c1.016,-1.167 2.616,-2.625 2.616,-5.105c0,-2.479 -6.554,-9.037 -7.283,-11.52c-0.729,-2.484 3.354,-4.805 3.504,-6.555c0.142,-1.754 -1.317,-2.912 -2.775,-5.254c-1.133,-1.808 -1.567,-6.158 -1.633,-8.704c2.066,-1.329 7.108,-3.625 7.979,-3.8c1.087,-0.221 3.604,-1.317 6.121,-1.196c2.516,0.104 7.541,4.7 7.329,4.038c-0.221,-0.654 -4.704,-4.038 -5.254,-4.804c-0.55,-0.771 -1.313,-0.442 -4.704,-0.113c-3.392,0.325 -7.325,2.513 -8.196,3.058c-0.696,0.438 -2.267,1.546 -3.275,2.155c-0,-0.421 0.008,-0.763 0.029,-0.984c0.146,-1.458 2.333,-3.937 4.083,-4.954c1.742,-1.025 5.392,-0.879 9.184,-0.442c3.795,0.442 4.666,2.334 7.008,4.521c2.321,2.188 5.821,8.45 5.825,8.463c-1.021,0.575 -4.229,1.746 -4.229,1.746c-0,-0 -0.442,2.483 0.296,3.058c0.72,0.587 2.62,1.896 1.891,2.917c-0.733,1.02 -0.291,0.295 -2.483,1.166c-2.183,0.879 -5.533,1.321 -5.533,1.321c-0,0 -1.167,1.446 -0.446,1.738c0.729,0.3 4.229,1.904 4.675,1.604c0.433,-0.292 1.454,-2.621 3.496,-2.325c2.041,0.283 2.479,0.579 3.495,1.454c1.021,0.871 5.396,4.667 4.521,5.396c-0.871,0.729 -5.104,-0.434 -5.975,-0.434c-0.875,0 -1.754,0.871 -1.896,2.184c-0.145,1.312 0.146,3.933 0.73,4.954c0.579,1.025 1.604,3.504 2.037,4.375c0.446,0.875 1.458,3.208 0.729,4.087c-0.729,0.875 -1.308,1.6 -2.033,2.188c-0.733,0.579 -2.2,6.408 -2.629,7.579c-0.442,1.167 -1.896,1.754 -1.896,1.754l0.725,2.471c-0,0 0.879,1.896 2.192,2.917c1.312,1.016 3.208,3.058 3.208,3.058c-0,0 0.058,-0.146 0.162,-0.4c0.488,2.254 1.959,8.988 2.675,11.704c0.875,3.279 1.971,7.221 1.971,7.221c0,0 15.092,10.721 16.188,10.929c0.737,0.154 15.579,6.238 25.321,10.138c20.437,-21.621 33.004,-50.779 33.004,-82.896c-0,-66.671 -54.054,-120.729 -120.734,-120.729c-66.683,-0 -120.737,54.058 -120.737,120.729c-0,30.558 11.379,58.446 30.1,79.721c8.021,-4.296 21.112,-11.1 22.108,-12.65" style="fill-rule:nonzero;"/><path d="M193.663,251.813c-0.321,0.108 -1.326,0.241 -2.68,0.387c0.725,-0.229 0.8,-0.387 -0.308,-0.387c-4.375,-0 -8.092,1.095 -8.092,-2.63c0,-2.791 -1.729,-4.841 -2.125,-5.045c2.121,-0.009 7.496,-2.009 11.138,-3.405c0.962,1.725 1.904,3.484 2.283,4.734c0.884,2.841 1.096,5.904 -0.216,6.346m-36.096,1.75c-1.742,-0 -4.146,-1.971 -5.675,-4.596c-0.846,-1.446 -2.35,-4.742 -3.534,-7.421c1.171,0.175 14.209,2.104 16.809,2.162c0.446,1.905 1.729,7.596 1.854,10.579c-3.558,0.167 -7.854,-0.725 -9.454,-0.725m79.404,-28.87l-9.629,-3.063l-9.617,-7.437l-10.279,-7.659l-3.071,4.375l-2.183,10.504c-0,0 -5.246,0.434 -5.684,1.092c-0.433,0.65 -6.183,5.971 -7.379,7.167c-2.796,0.754 -5.058,0.937 -6.662,1.304c0.308,-0.429 0.616,-0.854 0.921,-1.254c1.312,-1.754 5.02,-4.596 5.895,-5.254c0.88,-0.659 10.067,-3.5 10.509,-4.15c0.3,-0.455 0.079,-7.28 -0.092,-11.455c0.913,-1.866 2.142,-4.42 2.563,-5.391c0.587,-1.309 2.337,-2.917 2.037,-3.638c-0.287,-0.737 -3.2,-2.046 -5.242,-3.941c-2.046,-1.896 -1.025,-0.725 -4.804,-4.08c-3.8,-3.358 -3.8,-3.5 -5.987,-5.254c-2.192,-1.746 -2.471,-1.746 -5.105,-3.5c-2.62,-1.746 -2.037,-2.179 -3.787,-2.325c-1.746,-0.15 -3.787,-1.608 -4.813,-2.337c-1.016,-0.729 -1.166,-1.317 -2.475,-1.025c-1.312,0.296 -1.458,-0 -2.629,0.437c-1.166,0.438 -5.829,0.438 -6.708,1.021c-0.871,0.588 -2.917,2.771 -3.496,3.504c-0.587,0.725 -0.733,1.017 -2.483,2.329c-1.75,1.313 -2.625,1.755 -3.492,2.771c-0.875,1.021 -1.9,3.65 -1.9,4.229c0,0.584 -0.879,2.63 -0.879,2.63l2.337,-2.338c1.746,-1.75 1.309,-2.187 2.771,-3.5c1.454,-1.312 2.48,-0.729 4.663,-1.312c2.187,-0.584 2.916,-1.021 4.379,-2.33c1.454,-1.316 1.454,-1.754 2.475,-1.754c1.021,0 1.613,-0.725 3.504,0.146c1.896,0.879 1.6,0.442 3.934,1.754c2.333,1.309 3.504,1.896 4.812,1.896c1.317,0 0.729,4.229 0.292,4.517c-0.438,0.291 -2.188,1.016 -3.788,0.875c-1.612,-0.142 -2.046,-1.025 -3.071,0.141c-1.016,1.171 -1.6,2.63 -2.179,3.363c-0.587,0.729 -2.625,1.308 -3.358,1.746c-0.725,0.441 -1.6,1.6 -2.333,1.9c-0.725,0.287 -2.334,0.871 -2.771,1.158c-0.429,0.296 -2.184,1.171 -2.334,1.608c-0.145,0.434 0.438,2.334 0.438,2.334c0.875,-0.729 1.896,-3.504 4.083,-3.354c2.192,0.15 9.192,-1.309 11.379,-0.146c2.192,1.167 1.6,2.183 0,2.771c-1.6,0.587 -3.8,-0.296 -5.691,0.287c-1.896,0.584 -3.354,2.192 -5.246,2.775c-1.904,0.579 -4.225,0.296 -4.525,2.042c-0.288,1.746 -2.333,1.746 -2.479,3.937c-0.146,2.184 -0.146,3.354 0.437,5.1c0.104,0.309 0.596,0.575 1.338,0.804l-2,1.163c-0,-0 3.071,2.408 5.258,3.725c2.188,1.304 2.188,0.867 4.371,2.617c2.192,1.75 3.721,1.533 4.158,3.72c0.438,2.188 1.529,3.717 1.529,4.375c0,0.655 1.092,1.967 1.755,1.746c0.608,-0.2 4.008,0.146 5.02,-0.85c-0.421,4.117 -2.37,8.863 0.73,8.925c-0.038,0.029 0.02,0.184 0.229,0.467c0.833,1.162 0.645,6.162 0.508,8.454c-1.583,0.125 -2.858,0.229 -3.425,0.288c-2.017,0.204 -5.313,0.4 -8.721,0.775c-0.537,-4.23 -1.691,-10.346 -3.966,-11.059c-0,0 0.037,0.171 0.104,0.442c-2.329,-0.671 -13.38,-2.813 -15.563,-4.813c-0.075,-0.066 -0.142,-0.116 -0.217,-0.179c1.209,-0.258 2.117,-0.479 2.117,-0.479c0,0 -15.308,-11.154 -19.908,-17.929c-0,-0 10.496,19.025 12.037,19.242c0.559,0.079 1.805,-0.084 3.134,-0.317l0.646,1.058l7.562,26.092c1.367,0.133 2.746,0.225 4.121,0.321c0.812,-0.65 1.575,-1.188 2.025,-1.346c1.317,-0.438 9.192,-1.746 10.941,-2.408c1.755,-0.65 8.309,-1.534 11.15,-1.742c2.834,-0.221 9.63,-1.317 12.905,-1.317c3.283,0 5.254,0 8.095,-0.437c2.363,-0.363 4.259,-0.563 6.096,-0.625c15.846,-6.142 30.084,-15.496 41.875,-27.313l-6.416,-3.121l-8.746,-3.495Z" style="fill-rule:nonzero;"/><path d="M166.688,16.25c71.604,0 129.641,58.05 129.641,129.642c0,71.596 -58.037,129.637 -129.642,129.637c-71.591,0 -129.637,-58.041 -129.637,-129.637c-0,-71.592 58.046,-129.642 129.637,-129.642m0,266.696c75.571,-0 137.059,-61.483 137.059,-137.054c-0,-19.104 -3.929,-37.304 -11.021,-53.838c-20.962,-48.887 -69.567,-83.217 -126.037,-83.217c-75.571,0.001 -137.055,61.48 -137.055,137.055c0,75.571 61.484,137.054 137.055,137.054" style="fill-rule:nonzero;"/></g></svg>