<?xml version="1.0" encoding="UTF-8" standalone="no"?><!DOCTYPE svg PUBLIC "-//W3C//DTD SVG 1.1//EN" "http://www.w3.org/Graphics/SVG/1.1/DTD/svg11.dtd"><svg width="100%" height="100%" viewBox="0 0 928 1074" version="1.1" xmlns="http://www.w3.org/2000/svg" xmlns:xlink="http://www.w3.org/1999/xlink" xml:space="preserve" xmlns:serif="http://www.serif.com/" style="fill-rule:evenodd;clip-rule:evenodd;stroke-linejoin:round;stroke-miterlimit:2;"><g><path d="M463.881,5.307c-186.33,0 -337.92,151.594 -337.92,337.932c0,186.33 151.59,337.928 337.92,337.928c186.342,-0 337.944,-151.598 337.944,-337.928c-0,-186.338 -151.602,-337.932 -337.944,-337.932" style="fill:#fff;fill-rule:nonzero;"/><rect x="0" y="926.939" width="927.785" height="10.193" style="fill:#fff;"/><path d="M380.258,311.45c0,0 8.031,-4.754 6.587,-13.52c0,-0 -3.291,12.053 -8.769,12.053c-5.478,0 -10.941,-1.085 -10.941,-1.085l13.123,2.552Z" style="fill-rule:nonzero;"/><path d="M430.663,292.452c-5.478,-0 -11.695,-2.557 -17.543,-1.813c-5.82,0.727 -17.885,5.82 -19.71,7.653c-1.829,1.832 -5.12,3.287 -4.365,4.758c0.727,1.439 5.089,7.295 10.94,10.225c-3.283,-5.86 -3.283,-4.77 -4.365,-9.155c0,-0 3.764,-4.189 9.383,-6.776c-0.912,1.439 -1.455,3.138 -1.455,4.963c0,5.14 4.153,9.32 9.317,9.32c5.147,-0 9.296,-4.18 9.296,-9.32c0,-2.442 -0.94,-4.613 -2.466,-6.277c5.99,1.184 9.002,3.724 12.424,6.277c4.377,3.295 14.236,0.743 14.236,0.743c-0,0 -10.213,-10.598 -15.692,-10.598" style="fill-rule:nonzero;"/><path d="M427.015,318.382c-6.591,1.821 -22.282,-0.37 -22.282,-0.37c9.128,5.84 13.151,3.65 16.077,4.008c2.91,0.385 12.049,-3.264 17.515,-7.291c5.475,-4.019 -6.205,-4.019 -6.205,-4.019c-0,-0 1.455,5.835 -5.105,7.672" style="fill-rule:nonzero;"/><path d="M426.286,392.879c1.455,-4.763 5.104,-22.294 9.485,-26.671c4.393,-4.365 5.12,-9.486 5.12,-9.486c-1.84,-0.373 -4.392,1.098 -6.575,3.666c-2.198,2.544 -13.894,18.982 -16.804,21.165c-2.922,2.182 -8.026,6.933 -12.049,6.933c-4.023,0 -7.677,5.856 -9.844,8.4c-2.21,2.56 -3.681,15.345 -8.058,20.453c-4.377,5.113 -6.205,17.894 -6.933,18.975c-0.739,1.109 12.781,-11.672 17.532,-16.422c4.735,-4.735 7.303,-8.758 12.407,-12.408c5.12,-3.665 14.248,-9.855 15.719,-14.605" style="fill-rule:nonzero;"/><path d="M311.981,347.224c-0.728,6.221 6.575,15.71 9.127,18.255c2.568,2.552 9.128,2.198 8.031,-3.634c-1.086,-5.852 1.467,-18.275 3.28,-21.197c1.84,-2.918 0.373,-10.213 -1.086,-12.037c0,-0 4.008,-9.136 -2.194,-12.066c-6.19,-2.906 -7.319,-12.053 -7.319,-12.053c-7.656,-0.37 -15.317,-6.925 -20.807,-8.388c-5.478,-1.455 -2.183,8.758 -1.097,14.606c1.097,5.835 -4.735,16.076 -1.455,21.188c3.291,5.097 6.96,28.846 9.882,35.779c2.91,6.925 5.447,15.349 8.373,13.139c2.937,-2.195 -5.463,-17.154 -8.373,-24.465c-2.922,-7.318 -2.568,-18.986 -4.035,-22.998c-1.455,-3.999 0.37,-11.691 1.825,-11.333c1.455,0.385 3.296,-6.926 2.552,-9.486c-0.715,-2.552 -0.715,-6.559 0.37,-6.933c1.101,-0.362 3.653,0.732 7.303,4.011c3.653,3.292 0.727,8.77 0.358,12.408c-0.358,3.665 -4.008,18.998 -4.735,25.204" style="fill-rule:nonzero;"/><path d="M410.567,479.04c5.136,-4.365 4.381,-6.929 6.575,-9.501c2.194,-2.544 0.743,-4.735 0.743,-4.735c0,0 -5.847,6.576 -6.575,8.4c-0.743,1.837 -8.416,7.669 -9.871,12.05c-1.455,4.4 -6.575,4.754 -10.213,6.953c-3.665,2.182 -4.746,6.559 -1.824,10.566c2.921,4.039 20.437,9.513 21.534,9.513c0,0 0.744,-4.019 0.744,-7.656c-0,-3.666 -0.744,-2.934 -2.568,-5.864c-1.813,-2.926 -2.553,-6.205 -3.65,-9.871c-1.085,-3.641 0,-5.462 5.105,-9.855" style="fill-rule:nonzero;"/><path d="M405.818,341.02c2.21,1.824 4.393,3.637 8.042,3.637c3.654,0 16.446,-10.948 17.901,-14.594c1.629,-4.078 -8.415,5.478 -11.695,5.478c-3.28,0 -10.952,-1.455 -13.509,-1.455c-2.552,0 -2.906,5.121 -0.739,6.934" style="fill-rule:nonzero;"/><path d="M333.902,380.1c0.358,-2.21 2.895,-5.136 0.358,-4.767c-2.568,0.386 -6.205,3.292 -6.205,3.292c2.182,1.475 5.478,3.657 5.847,1.475" style="fill-rule:nonzero;"/><path d="M445.626,386.669c1.825,0.735 7.318,-0.736 7.318,-0.736l-2.568,-1.828c-2.552,-1.837 -5.108,-2.191 -7.676,-1.825c-0,-0 1.101,3.653 2.926,4.389" style="fill-rule:nonzero;"/><path d="M450.732,268.37c-2.91,-2.568 -7.303,-6.225 -11.68,-8.046c-4.381,-1.833 -18.629,-3.296 -23.363,-2.544c-4.751,0.711 -8.774,5.816 -12.038,8.022c-3.296,2.187 -5.864,4.015 -9.871,7.311c-4.007,3.264 -7.661,4.007 -10.229,8.742c-2.564,4.75 -5.478,10.233 -5.478,10.233c0,-0 7.319,-5.84 10.968,-8.393c3.654,-2.568 14.964,-7.66 20.442,-8.4c0.456,-0.059 0.928,-0.137 1.412,-0.216c-4.035,1.428 -8.172,3.323 -12.738,4.959c-10.225,3.642 -16.8,20.088 -16.8,20.088c0,-0 9.871,-7.673 15.703,-13.147c5.12,-4.809 22.278,-11.33 27.756,-10.944c5.49,0.358 17.158,6.205 17.158,6.205c0,0 -4.463,-4.412 -11.31,-7.216c5.12,1.667 12.038,3.921 12.038,3.921l10.598,-6.206l-2.568,-4.369Z" style="fill-rule:nonzero;"/><path d="M529.806,319.554c5.152,-0 9.301,-4.153 9.301,-9.301c-0,-2.183 -0.783,-4.184 -2.053,-5.793c2.096,0.661 4.208,1.278 5.077,1.416c1.927,0.256 9.3,7.401 10.398,8.487c1.113,1.097 1.113,2.737 0.271,4.919c-0.798,2.202 -3.838,3.85 -6.005,5.478c-2.21,1.636 -12.069,2.195 -12.069,2.195c-0,-0 7.134,1.101 9.859,1.101c2.737,-0 6.587,-2.741 8.215,-4.125c1.656,-1.361 4.664,-3.28 7.688,-4.912c2.993,-1.648 -0.83,-4.656 -1.113,-6.583c-0.271,-1.9 -4.919,-7.103 -6.292,-6.835c-1.368,0.275 0.559,2.469 -1.652,2.469c-2.186,0 -15.05,-9.32 -25.204,-8.227c-10.11,1.094 -20.256,9.026 -20.256,9.026c-3.563,1.667 -1.369,3.85 1.899,3.567c3.296,-0.272 3.296,-2.738 7.417,-6.017c1.683,-1.357 4.806,-2.199 7.885,-2.714c-1.652,1.683 -2.694,4.004 -2.694,6.548c0,5.148 4.192,9.301 9.328,9.301" style="fill-rule:nonzero;"/><path d="M292.266,511.533c3.268,-5.093 20.812,-24.092 20.812,-24.092c-0,0 14.232,-17.157 17.527,-25.188c3.296,-8.038 19.357,-32.149 19.357,-32.149c-0,0 -6.202,-13.878 -8.4,-28.098c-0,-0 -9.502,15.699 -17.886,9.116c-8.4,-6.576 -13.894,-12.042 -16.088,-35.787c-0,0 -5.836,-10.571 -8.031,-23.725c0,-0 -4.377,-14.244 -5.104,-20.45c-0.731,-6.209 -1.813,-35.782 -0.731,-37.627c1.085,-1.809 3.279,-8.384 8.403,-8.754c5.105,-0.366 10.225,0.37 10.225,0.37l4.735,-8.77c0,0 0.358,-20.811 -0.727,-22.636c-1.082,-1.821 -12.424,-15.703 -14.233,-31.044c-1.828,-15.325 8.031,-37.969 14.96,-46.007c6.945,-8.031 20.827,-22.652 24.846,-35.059c4.011,-12.415 15.322,-24.091 26.29,-29.939c10.952,-5.84 39.805,-12.435 43.813,-13.882c4.011,-1.459 24.106,-8.782 32.864,-5.116c8.758,3.657 35.429,5.478 41.265,4.03c5.86,-1.478 21.551,-2.933 29.581,0.362c8.026,3.288 28.838,17.532 33.946,17.532l0,-0.008c0.826,0.834 1.683,1.557 2.568,2.013c2.194,1.094 13.705,4.94 17.528,7.673c3.822,2.737 17.531,10.402 18.07,12.596c0.145,0.531 0.558,1.428 1.085,2.442c-0.601,0.901 -1.498,2.206 -3.452,3.41c-4.735,2.922 -10.595,10.213 -15.703,12.411c-5.105,2.179 -14.232,6.937 -17.158,8.03c-2.938,1.09 -15.703,1.455 -18.259,1.09c-2.553,-0.374 -9.128,-1.821 -10.968,-2.183c-1.809,-0.377 -5.821,-5.498 -10.209,-4.758c-4.397,0.743 -14.236,6.941 -16.435,7.676c-2.194,0.739 -7.302,4.751 -7.302,4.751c-0,-0 18.259,4.734 22.993,4.377c4.751,-0.358 28.854,1.097 31.78,1.47c2.922,0.362 9.485,3.296 13.135,5.105c3.665,1.821 6.233,-1.483 10.956,2.93c4.746,4.373 6.575,3.999 6.945,9.851c0.369,5.848 -2.91,11.302 -2.556,15.329c0.357,4.015 -3.28,25.562 -3.65,31.764c-0.37,6.221 -0.37,5.851 1.455,14.979c1.841,9.143 0.743,13.52 0,17.174c-0.727,3.637 -10.213,4.007 -13.15,7.294c-2.911,3.288 1.852,8.4 1.852,8.4c0.716,1.463 4.723,8.758 5.108,12.046c0.358,3.28 0,6.567 0.728,9.128c0.727,2.552 2.89,7.668 0.358,9.139c0.008,-0.016 0.354,-1.498 -2.199,-6.587c-2.568,-5.113 -16.06,-22.998 -18.982,-25.558c-1.856,-1.597 -6.749,-3.937 -10.571,-5.911c1.64,0.118 3.638,0.264 6.178,0.433c5.848,0.385 6.961,-1.817 10.594,-6.202c3.67,-4.389 -5.474,-8.404 -7.656,-8.042c-2.199,0.381 -14.236,5.86 -18.629,8.766c-4.393,2.933 -11.322,-0 -17.897,-0.37c-6.564,-0.354 -11.684,-4.381 -18.247,-8.396c-0,-0 -1.837,5.486 -0,9.493c0.998,2.226 1.911,3.426 3.197,4.192c-6.391,0.944 -11.668,5.663 -11.979,10.437c-0.358,5.455 1.837,15.692 2.564,20.796c0.743,5.128 -3.649,20.096 -4.377,27.033c-0.743,6.933 5.12,17.889 6.929,25.192c1.829,7.315 7.362,9.438 2.199,14.598c-7.673,7.672 -24.461,7.672 -16.431,14.255c8.031,6.568 23.38,10.941 25.928,10.225c2.552,-0.727 15.333,-3.292 17.889,-6.217c2.552,-2.926 6.56,-6.576 6.56,-12.781c-0,-6.218 -16.419,-22.636 -18.244,-28.854c-1.824,-6.221 8.401,-12.037 8.774,-16.418c0.354,-4.389 -3.295,-7.295 -6.949,-13.151c-2.835,-4.534 -3.921,-15.431 -4.094,-21.806c5.18,-3.323 17.803,-9.077 19.986,-9.513c2.721,-0.555 9.029,-3.296 15.329,-2.997c6.308,0.26 18.888,11.767 18.357,10.115c-0.554,-1.64 -11.778,-10.115 -13.162,-12.038c-1.369,-1.927 -3.28,-1.105 -11.782,-0.279c-8.487,0.818 -18.342,6.296 -20.524,7.665c-1.738,1.085 -5.675,3.865 -8.204,5.391c0,-1.054 0.032,-1.911 0.075,-2.466c0.37,-3.653 5.848,-9.859 10.225,-12.407c4.365,-2.568 13.508,-2.198 23.006,-1.101c9.501,1.101 11.683,5.84 17.547,11.318c5.812,5.482 14.578,21.165 14.59,21.189l-0.004,-0c-2.552,1.447 -10.583,4.377 -10.583,4.377c0,-0 -1.109,6.221 0.732,7.661c1.809,1.466 6.571,4.75 4.746,7.302c-1.84,2.553 -0.739,0.744 -6.217,2.926c-5.478,2.195 -13.867,3.3 -13.867,3.3c0,-0 -2.921,3.629 -1.112,4.357c1.828,0.751 10.586,4.766 11.711,4.023c1.085,-0.735 3.637,-6.567 8.746,-5.832c5.12,0.716 6.217,1.451 8.758,3.642c2.552,2.19 13.52,11.687 11.322,13.516c-2.183,1.825 -12.777,-1.089 -14.96,-1.089c-2.198,-0 -4.393,2.186 -4.75,5.474c-0.37,3.287 0.369,9.847 1.824,12.403c1.455,2.568 4.023,8.778 5.109,10.96c1.109,2.187 3.649,8.038 1.824,10.233c-1.824,2.194 -3.283,4.007 -5.092,5.478c-1.841,1.455 -5.506,16.053 -6.591,18.983c-1.097,2.925 -4.747,4.392 -4.747,4.392l1.825,6.194c-0,0 2.194,4.743 5.478,7.303c3.292,2.548 8.042,7.657 8.042,7.657c0,-0 0.142,-0.366 0.401,-0.999c1.227,5.647 4.904,22.506 6.701,29.309c2.199,8.216 4.936,18.083 4.936,18.083c-0,-0 37.796,26.847 40.537,27.374c1.852,0.386 39.023,15.621 63.413,25.389c51.191,-54.152 82.655,-127.176 82.655,-207.601c0,-166.974 -135.371,-302.362 -302.365,-302.362c-166.99,0 -302.362,135.388 -302.362,302.362c0,76.524 28.496,146.363 75.38,199.642c20.084,-10.752 52.874,-27.796 55.367,-31.677" style="fill-rule:nonzero;"/><path d="M531.446,608.507c-0.806,0.267 -3.319,0.605 -6.713,0.963c1.817,-0.574 2.006,-0.963 -0.775,-0.963c-10.952,-0 -20.264,2.741 -20.264,-6.587c-0,-6.992 -4.326,-12.125 -5.321,-12.632l-0.004,0c5.317,-0.023 18.774,-5.037 27.902,-8.526c2.41,4.322 4.758,8.719 5.718,11.849c2.21,7.118 2.741,14.791 -0.543,15.896m-90.399,4.381c-4.365,-0 -10.382,-4.936 -14.22,-11.511c-2.108,-3.618 -5.879,-11.876 -8.848,-18.578c2.934,0.433 35.59,5.262 42.094,5.412c1.121,4.77 4.334,19.018 4.653,26.49c-8.916,0.416 -19.671,-1.813 -23.679,-1.813m198.856,-72.309l-24.119,-7.665l-24.075,-18.628l-25.747,-19.176l-7.688,10.961l-5.474,26.301c0,-0 -13.139,1.085 -14.236,2.737c-1.081,1.624 -15.479,14.955 -18.479,17.94c-6.996,1.896 -12.667,2.348 -16.682,3.264c0.77,-1.073 1.549,-2.135 2.3,-3.134c3.296,-4.393 12.581,-11.511 14.771,-13.158c2.202,-1.644 25.212,-8.762 26.321,-10.39c0.755,-1.141 0.2,-18.24 -0.228,-28.689c2.281,-4.671 5.36,-11.074 6.418,-13.504c1.471,-3.276 5.844,-7.299 5.104,-9.112c-0.723,-1.84 -8.014,-5.12 -13.131,-9.867c-5.124,-4.754 -2.568,-1.821 -12.037,-10.217c-9.517,-8.411 -9.517,-8.765 -14.995,-13.158c-5.482,-4.369 -6.19,-4.369 -12.777,-8.77c-6.564,-4.373 -5.109,-5.454 -9.49,-5.824c-4.373,-0.37 -9.481,-4.023 -12.053,-5.852c-2.548,-1.824 -2.922,-3.291 -6.202,-2.56c-3.279,0.736 -3.649,0 -6.579,1.097c-2.918,1.094 -14.598,1.094 -16.8,2.549c-2.179,1.474 -7.299,6.945 -8.758,8.781c-1.471,1.809 -1.836,2.545 -6.217,5.832c-4.377,3.288 -6.576,4.389 -8.742,6.941c-2.195,2.553 -4.763,9.144 -4.763,10.587c0,1.463 -2.198,6.587 -2.198,6.587l5.852,-5.852c4.377,-4.385 3.275,-5.478 6.945,-8.769c3.633,-3.28 6.201,-1.825 11.675,-3.28c5.479,-1.467 7.307,-2.564 10.968,-5.836c3.642,-3.296 3.642,-4.401 6.194,-4.401c2.556,0 4.035,-1.809 8.774,0.37c4.75,2.206 4.007,1.109 9.851,4.389c5.852,3.279 8.774,4.75 12.053,4.75c3.3,0 1.829,10.599 0.728,11.314c-1.093,0.728 -5.478,2.549 -9.482,2.191c-4.042,-0.354 -5.12,-2.564 -7.688,0.358c-2.552,2.929 -4.007,6.579 -5.462,8.415c-1.467,1.825 -6.575,3.28 -8.404,4.373c-1.825,1.105 -4.007,4.012 -5.844,4.755c-1.825,0.727 -5.848,2.186 -6.937,2.91c-1.085,0.735 -5.474,2.926 -5.844,4.023c-0.37,1.089 1.093,5.844 1.093,5.844c2.187,-1.821 4.751,-8.774 10.225,-8.4c5.482,0.377 23.014,-3.28 28.492,-0.37c5.49,2.926 4.007,5.47 -0,6.949c-4.008,1.467 -9.513,-0.747 -14.248,0.712c-4.751,1.467 -8.404,5.49 -13.139,6.949c-4.762,1.451 -10.582,0.743 -11.33,5.116c-0.723,4.377 -5.843,4.377 -6.213,9.855c-0.362,5.478 -0.362,8.412 1.097,12.781c0.26,0.767 1.494,1.439 3.355,2.01l-5.011,2.914c0,-0 7.689,6.028 13.163,9.328c5.478,3.264 5.478,2.171 10.956,6.559c5.482,4.377 9.316,3.835 10.41,9.313c1.089,5.478 3.826,9.312 3.826,10.952c0,1.644 2.733,4.932 4.393,4.381c1.522,-0.503 10.036,0.358 12.58,-2.135c-1.054,10.307 -5.938,22.195 1.817,22.349c-0.094,0.082 0.059,0.46 0.578,1.168c2.084,2.921 1.616,15.439 1.278,21.173c-3.968,0.318 -7.157,0.574 -8.581,0.719c-5.049,0.515 -13.308,1.007 -21.837,1.943c-1.353,-10.587 -4.236,-25.912 -9.942,-27.686c-0,0 0.102,0.417 0.263,1.102c-5.828,-1.684 -33.505,-7.04 -38.972,-12.05c-0.188,-0.173 -0.357,-0.291 -0.542,-0.456c3.024,-0.649 5.293,-1.192 5.293,-1.192c0,0 -38.327,-27.941 -49.853,-44.906c-0,0 26.289,47.647 30.143,48.186c1.408,0.201 4.526,-0.208 7.853,-0.794l1.613,2.658l18.943,65.34c3.425,0.331 6.874,0.563 10.327,0.803c2.025,-1.625 3.936,-2.977 5.065,-3.367c3.292,-1.097 23.018,-4.377 27.398,-6.032c4.393,-1.625 20.812,-3.839 27.93,-4.366c7.098,-0.554 24.114,-3.291 32.318,-3.291c8.215,-0 13.15,-0 20.268,-1.097c5.919,-0.909 10.67,-1.416 15.275,-1.569c39.679,-15.377 75.336,-38.807 104.862,-68.396l-16.06,-7.814l-21.909,-8.766Z" style="fill-rule:nonzero;"/><path d="M463.881,18.57c179.331,-0 324.675,145.372 324.675,324.667c0,179.306 -145.344,324.663 -324.675,324.663c-179.287,-0 -324.655,-145.357 -324.655,-324.663c0,-179.295 145.368,-324.667 324.655,-324.667m0,667.904c189.268,-0 343.249,-153.977 343.249,-343.237c-0,-189.264 -153.981,-343.237 -343.249,-343.237c-189.256,0 -343.229,153.973 -343.229,343.237c0,189.26 153.973,343.237 343.229,343.237" style="fill-rule:nonzero;"/><path d="M74.804,765.726c0,-4.192 0.787,-7.299 2.36,-9.32c1.569,-2.026 4.074,-3.406 7.523,-4.157c3.441,-0.747 8.305,-1.125 14.598,-1.125c10.331,0 19.387,3.036 27.174,9.1c7.782,6.064 13.811,14.295 18.078,24.705c4.267,10.405 6.402,22.042 6.402,34.925c0,13.469 -2.245,25.039 -6.74,34.694c-4.491,9.654 -10.744,16.957 -18.751,21.896c-8.011,4.94 -17.181,7.413 -27.512,7.413c-9.136,0 -15.271,-1.305 -18.417,-3.932c-3.146,-2.62 -4.715,-6.997 -4.715,-13.135l0,-101.064Zm-26.954,121.501l15.951,-0.228c4.337,0 8.231,0.075 11.676,0.228c3.441,0.15 6.288,0.295 8.533,0.449c6.139,0.444 11.527,0.676 16.171,0.676c13.623,0 26.128,-3.036 37.505,-9.096c11.377,-6.068 20.438,-14.676 27.175,-25.829c6.74,-11.153 10.106,-23.997 10.106,-38.52c0,-12.875 -3.256,-24.48 -9.768,-34.811c-6.513,-10.331 -15.683,-18.487 -27.513,-24.477c-11.829,-5.989 -25.377,-8.982 -40.651,-8.982c-2.544,0 -7.562,0.15 -15.046,0.448c-6.139,0.449 -12.203,0.677 -18.188,0.677c-3.897,-0 -9.136,-0.15 -15.723,-0.456l-11.904,-0.221c-0.302,0 -0.448,0.449 -0.448,1.345c0,0.897 0.146,1.349 0.448,1.349c4.944,0 8.609,0.417 11.008,1.239c2.391,0.822 4.003,2.281 4.825,4.377c0.822,2.096 1.239,5.392 1.239,9.879l-0,103.981c-0,4.495 -0.452,7.826 -1.349,10.001c-0.901,2.167 -2.509,3.626 -4.829,4.377c-2.325,0.747 -6.029,1.125 -11.118,1.125c-0.303,-0 -0.448,0.444 -0.448,1.341c-0,0.9 0.145,1.353 0.448,1.353c5.089,-0 9.057,-0.075 11.9,-0.225" style="fill:#fff;fill-rule:nonzero;"/><path d="M229.881,812.779c1.871,-1.274 3.625,-1.911 5.277,-1.911c1.494,-0 2.769,0.338 3.819,1.011c1.046,0.668 2.245,1.683 3.594,3.028c1.345,1.498 2.655,2.666 3.929,3.488c1.27,0.822 2.878,1.227 4.829,1.227c2.993,-0 5.348,-0.897 7.071,-2.694c1.722,-1.789 2.583,-4.11 2.583,-6.961c0,-3.142 -1.569,-5.836 -4.715,-8.085c-3.142,-2.246 -6.437,-3.366 -9.882,-3.366c-3.142,-0 -6.662,1.274 -10.555,3.818c-3.898,2.548 -8.758,7.11 -14.598,13.701c-0.303,-5.246 -1.2,-9.469 -2.694,-12.694c-1.498,-3.213 -2.997,-4.825 -4.491,-4.825c-0.153,-0 -0.676,0.145 -1.573,0.444l-29.42,14.381c-0.448,0.146 -0.527,0.598 -0.224,1.341c0.295,0.756 0.747,1.125 1.345,1.125l0.224,0c5.242,-2.245 8.986,-3.366 11.232,-3.366c2.54,-0 4.377,1.121 5.501,3.366c1.125,2.25 1.683,5.765 1.683,10.559l0,42.889c0,6.147 -0.821,10.264 -2.469,12.36c-1.648,2.096 -5.018,3.142 -10.107,3.142c-0.448,0 -0.672,0.445 -0.672,1.345c-0,0.897 0.224,1.349 0.672,1.349c3.74,0 6.662,-0.075 8.758,-0.22l13.025,-0.232l17.744,0.232c2.992,0.145 6.964,0.22 11.903,0.22c0.598,0 0.901,-0.452 0.901,-1.349c0,-0.9 -0.303,-1.345 -0.901,-1.345c-5.541,0 -9.737,-0.456 -12.576,-1.352c-2.847,-0.901 -4.869,-2.427 -6.064,-4.602c-1.199,-2.166 -1.797,-5.352 -1.797,-9.548l-0,-48.505c3.893,-4.046 6.772,-6.705 8.648,-7.971" style="fill:#fff;fill-rule:nonzero;"/><path d="M380.909,825.468c-2.847,-0 -5.466,-0.299 -7.861,-0.901c-0.299,-0.153 -0.563,0 -0.787,0.449c-0.22,0.452 -0.334,0.896 -0.334,1.353c0,0.743 0.224,1.12 0.673,1.12c2.843,0.751 6.362,1.121 10.555,1.121c7.936,0 15.683,-1.644 23.245,-4.939c7.559,-3.296 13.772,-8.235 18.641,-14.826c4.864,-6.587 7.299,-14.598 7.299,-24.032c-0,-13.025 -4.307,-22.679 -12.915,-28.972c-8.612,-6.288 -20.324,-9.434 -35.146,-9.434c-4.192,0 -7.826,0.079 -10.893,0.228c-3.071,0.15 -5.502,0.303 -7.299,0.449c-4.939,0.452 -9.135,0.676 -12.576,0.676c-4.043,-0 -9.36,-0.15 -15.947,-0.452l-11.68,-0.224c-0.444,-0 -0.672,0.452 -0.672,1.344c-0,0.901 0.228,1.353 0.672,1.353c4.943,0 8.569,0.413 10.894,1.235c2.32,0.822 3.893,2.281 4.719,4.381c0.822,2.096 1.234,5.392 1.234,9.875l0,103.985c0,4.645 -0.412,8.011 -1.234,10.107c-0.826,2.096 -2.36,3.52 -4.605,4.271c-2.246,0.743 -5.919,1.121 -11.008,1.121c-0.444,-0 -0.672,0.444 -0.672,1.345c-0,0.896 0.228,1.353 0.672,1.353c4.943,-0 8.833,-0.079 11.68,-0.225l16.171,-0.232l19.541,0.232c3.441,0.146 8.231,0.225 14.37,0.225c0.452,-0 0.676,-0.457 0.676,-1.353c0,-0.901 -0.224,-1.345 -0.676,-1.345c-6.886,-0 -11.94,-0.452 -15.161,-1.353c-3.216,-0.897 -5.387,-2.426 -6.508,-4.597c-1.125,-2.167 -1.687,-5.655 -1.687,-10.449l-0,-102.629c-0,-4.342 0.374,-7.527 1.125,-9.548c0.747,-2.022 2.056,-3.402 3.928,-4.157c1.872,-0.743 4.605,-1.121 8.2,-1.121c9.729,0 17.366,3.256 22.907,9.769c5.537,6.516 8.31,15.687 8.31,27.516c-0,11.979 -2.698,21.181 -8.086,27.619c-5.391,6.445 -11.982,9.662 -19.765,9.662" style="fill:#fff;fill-rule:nonzero;"/><path d="M489.384,846.799l-0,24.476l-6.292,4.271c-2.993,1.797 -5.836,2.698 -8.534,2.698c-3.292,-0 -6.1,-1.086 -8.42,-3.256c-2.324,-2.167 -3.48,-5.054 -3.48,-8.652c-0,-3.74 1.235,-6.619 3.704,-8.648c2.47,-2.017 5.652,-3.779 9.545,-5.277l13.477,-5.612Zm-21.787,4.271c-6.591,2.395 -11.566,4.377 -14.932,5.95c-3.37,1.569 -6.143,3.633 -8.313,6.178c-2.171,2.548 -3.257,5.836 -3.257,9.874c0,4.794 1.609,8.652 4.83,11.57c3.22,2.918 7.896,4.377 14.039,4.377c3.591,0 6.847,-0.523 9.765,-1.565c2.922,-1.046 6.178,-2.843 9.772,-5.392l10.331,-7.192c0.598,4.349 1.911,7.829 3.929,10.449c2.021,2.619 4.157,3.932 6.402,3.932c0.747,0 1.424,-0.153 2.021,-0.456l23.132,-11.003c0.598,-0.295 0.822,-0.787 0.676,-1.463c-0.153,-0.665 -0.527,-1.003 -1.128,-1.003l-0.449,-0c-3.142,1.341 -5.836,2.017 -8.081,2.017c-2.847,0 -5.018,-1.195 -6.516,-3.594c-1.499,-2.387 -2.246,-5.915 -2.246,-10.551l0,-40.427c0,-8.086 -1.907,-14.146 -5.726,-18.197c-3.818,-4.038 -8.946,-6.06 -15.384,-6.06c-5.388,0 -11.645,1.239 -18.751,3.705c-7.114,2.473 -13.178,5.69 -18.192,9.662c-5.018,3.964 -7.523,8.05 -7.523,12.235c0,2.249 0.783,4.125 2.356,5.615c1.573,1.499 4.003,2.25 7.299,2.25c6.74,-0 10.555,-3.827 11.455,-11.46c0.449,-4.487 1.758,-8.565 3.929,-12.234c2.171,-3.673 5.726,-5.51 10.669,-5.51c4.043,0 7,2.136 8.872,6.406c1.872,4.263 2.808,11.039 2.808,20.324l-0,13.473l-21.787,8.09Z" style="fill:#fff;fill-rule:nonzero;"/><path d="M548.223,881.5c-1.797,2.174 -5.164,3.256 -10.103,3.256c-0.452,-0 -0.676,0.444 -0.676,1.345c-0,0.896 0.224,1.353 0.676,1.353c3.74,-0 6.737,-0.079 8.982,-0.225l13.025,-0.232l13.249,0.232c2.249,0.146 5.167,0.225 8.762,0.225c0.448,-0 0.672,-0.457 0.672,-1.353c0,-0.901 -0.224,-1.345 -0.672,-1.345c-5.093,-0 -8.459,-1.046 -10.107,-3.142c-1.648,-2.096 -2.47,-6.214 -2.47,-12.357l0,-142.163c0,-0.448 -0.417,-0.971 -1.239,-1.569c-0.825,-0.598 -1.533,-0.901 -2.131,-0.901l-0.897,0.225l-31.669,14.826c-0.299,0.298 -0.299,0.825 0,1.573c0.299,0.747 0.751,1.12 1.349,1.12l0.224,0c3.744,-1.797 6.737,-2.693 8.986,-2.693c2.541,-0 4.298,1.156 5.274,3.476c0.975,2.328 1.463,6.107 1.463,11.345l-0,114.761c-0,5.99 -0.901,10.076 -2.698,12.243" style="fill:#fff;fill-rule:nonzero;"/><path d="M606.613,882.398c4.495,5.014 10.779,7.519 18.868,7.519c11.68,0 22.754,-6.06 33.239,-18.188c0.145,5.691 0.818,10.217 2.021,13.587c1.192,3.374 2.541,5.054 4.043,5.054l0.896,-0.221l29.42,-14.149c0.448,-0.299 0.523,-0.822 0.228,-1.573c-0.307,-0.747 -0.676,-1.125 -1.128,-1.125l-0.449,0.224c-4.939,1.797 -8.305,2.698 -10.103,2.698c-2.398,-0 -4.121,-1.046 -5.167,-3.15c-1.046,-2.088 -1.573,-5.761 -1.573,-10.999l-0,-60.865c-0,-0.452 -0.374,-0.976 -1.121,-1.573c-0.755,-0.598 -1.423,-0.897 -2.021,-0.897c-0.449,0 -0.826,0.075 -1.125,0.22l-28.295,13.249c-0.602,0.154 -0.755,0.645 -0.452,1.467c0.303,0.822 0.751,1.231 1.349,1.231l0.224,-0c2.843,-1.192 4.943,-1.797 6.288,-1.797c2.395,-0 4.157,1.235 5.278,3.708c1.12,2.474 1.687,6.332 1.687,11.57l-0,38.626c-3.146,3.142 -6.705,5.616 -10.669,7.413c-3.972,1.797 -7.826,2.694 -11.566,2.694c-6.288,-0 -10.968,-2.057 -14.04,-6.175c-3.067,-4.117 -4.605,-10.37 -4.605,-18.758l0,-50.978c0,-0.452 -0.369,-0.976 -1.12,-1.573c-0.752,-0.598 -1.424,-0.897 -2.018,-0.897l-0.9,0.22l-28.523,13.249c-0.449,0.307 -0.527,0.83 -0.225,1.577c0.299,0.751 0.748,1.121 1.345,1.121l0.228,-0c2.694,-1.192 4.79,-1.797 6.289,-1.797c4.636,-0 6.96,5.093 6.96,15.278l0,33.455c0,8.687 2.246,15.541 6.737,20.555" style="fill:#fff;fill-rule:nonzero;"/><path d="M742.487,803.454c3.594,0 6.213,0.783 7.861,2.36c1.648,1.573 3.217,4.232 4.715,7.971c2.548,6.737 6.662,10.107 12.356,10.107c3.441,0 6.135,-0.936 8.086,-2.812c1.942,-1.864 2.918,-4.07 2.918,-6.618c-0,-4.794 -2.847,-8.613 -8.534,-11.452c-5.69,-2.843 -12.057,-4.271 -19.093,-4.271c-8.231,0 -16.359,1.912 -24.366,5.73c-8.011,3.819 -14.562,9.285 -19.651,16.391c-5.093,7.11 -7.633,15.384 -7.633,24.815c-0,7.491 1.639,14.641 4.935,21.452c3.292,6.815 8.345,12.352 15.164,16.615c6.807,4.271 15.082,6.407 24.815,6.407c6.882,-0 13.028,-1.208 18.416,-3.595c5.392,-2.399 10.854,-6.068 16.395,-11.007c0.299,-0.299 0.26,-0.677 -0.11,-1.121c-0.378,-0.452 -0.791,-0.676 -1.239,-0.676l-0.22,-0c-3.901,2.249 -7.492,3.893 -10.783,4.939c-3.296,1.05 -7.04,1.573 -11.228,1.573c-12.281,-0 -21.303,-3.854 -27.064,-11.566c-5.765,-7.712 -8.648,-17.775 -8.648,-30.21c0,-10.622 2.057,-19.116 6.178,-25.483c4.114,-6.367 9.69,-9.549 16.73,-9.549" style="fill:#fff;fill-rule:nonzero;"/><path d="M785.945,741.132c0.374,0.826 0.787,1.235 1.235,1.235l0.224,-0c3.893,-1.797 6.965,-2.694 9.21,-2.694c2.391,-0 4.118,1.16 5.164,3.48c1.046,2.324 1.573,6.104 1.573,11.342l-0,114.761c-0,5.993 -0.901,10.079 -2.694,12.242c-1.797,2.175 -5.164,3.256 -10.107,3.256c-0.448,0 -0.672,0.449 -0.672,1.345c-0,0.901 0.224,1.353 0.672,1.353c3.74,-0 6.737,-0.075 8.982,-0.224l12.805,-0.228l12.8,0.228c2.246,0.149 5.238,0.224 8.982,0.224c0.594,-0 0.901,-0.452 0.901,-1.353c-0,-0.896 -0.307,-1.345 -0.901,-1.345c-5.092,0 -8.498,-1.042 -10.221,-3.138c-1.718,-2.1 -2.579,-6.214 -2.579,-12.36l-0,-47.836c3.142,-3.142 6.772,-5.647 10.893,-7.519c4.117,-1.876 8.196,-2.812 12.238,-2.812c12.876,-0 19.313,8.243 19.313,24.708l0,33.459c0,5.993 -0.896,10.079 -2.69,12.242c-1.801,2.175 -5.167,3.256 -10.11,3.256c-0.449,0 -0.673,0.449 -0.673,1.345c0,0.901 0.224,1.353 0.673,1.353c3.739,-0 6.736,-0.075 8.982,-0.224l12.8,-0.228l12.805,0.228c2.245,0.149 5.238,0.224 8.982,0.224c0.598,-0 0.9,-0.452 0.9,-1.353c0,-0.896 -0.302,-1.345 -0.9,-1.345c-5.093,0 -8.499,-1.042 -10.217,-3.138c-1.723,-2.1 -2.584,-6.214 -2.584,-12.36l0,-43.341c0,-8.534 -2.285,-15.271 -6.85,-20.218c-4.57,-4.939 -10.968,-7.405 -19.203,-7.405c-12.128,0 -23.58,6.214 -34.359,18.633l-0,-89.829c-0,-0.452 -0.339,-0.971 -1.011,-1.573c-0.676,-0.597 -1.313,-0.896 -1.911,-0.896l-1.121,0.22l-31.221,14.826c-0.448,0.153 -0.488,0.637 -0.11,1.459" style="fill:#fff;fill-rule:nonzero;"/><path d="M161.632,1038.2c-4.77,0.267 -9.363,0.401 -13.779,0.401c-4.421,-0 -10.296,-0.217 -17.626,-0.661c-0.177,-0 -0.331,0.106 -0.464,0.33c-0.13,0.221 -0.197,0.46 -0.197,0.728c-0,0.708 0.263,1.062 0.794,1.062c4.507,-0 7.665,0.306 9.474,0.928c1.809,0.613 2.981,1.836 3.512,3.641c0.531,1.813 0.794,5.014 0.794,9.608c0,4.416 -0.484,7.774 -1.455,10.071c-0.975,2.297 -2.517,3.885 -4.64,4.77c-2.12,0.881 -5.081,1.326 -8.876,1.326c-7.511,-0 -14.158,-1.896 -19.946,-5.699c-5.785,-3.795 -10.249,-8.986 -13.383,-15.569c-3.134,-6.583 -4.703,-13.894 -4.703,-21.936c-0,-7.598 1.435,-14.287 4.306,-20.068c2.871,-5.785 6.799,-10.225 11.794,-13.32c4.99,-3.095 10.535,-4.64 16.631,-4.64c7.774,-0 14.133,2.32 19.081,6.961c4.947,4.636 8.349,9.737 10.205,15.297c0.086,0.362 0.373,0.492 0.861,0.401c0.484,-0.086 0.727,-0.259 0.727,-0.53l-1.722,-17.489c-0.09,-1.144 -0.201,-1.86 -0.33,-2.119c-0.134,-0.272 -0.598,-0.578 -1.392,-0.932c-2.651,-1.318 -6.076,-2.34 -10.272,-3.048c-4.197,-0.708 -8.503,-1.058 -12.919,-1.058c-9.631,0 -18.334,1.789 -26.105,5.368c-7.774,3.579 -13.87,8.632 -18.286,15.168c-4.42,6.544 -6.627,14.051 -6.627,22.53c0,7.948 1.943,15.176 5.832,21.668c3.886,6.489 9.517,11.641 16.895,15.436c7.374,3.803 16.053,5.702 26.038,5.702c8.746,0 18.683,-1.239 29.817,-3.712c0.617,-0.177 1.014,-0.354 1.191,-0.531c0.177,-0.177 0.264,-0.527 0.264,-1.058c-0,-0.444 -0.154,-1.506 -0.461,-3.181c-0.31,-1.68 -0.464,-4.507 -0.464,-8.487c0,-5.03 0.107,-8.565 0.331,-10.598c0.22,-2.03 0.68,-3.382 1.392,-4.043c0.704,-0.661 1.943,-0.944 3.708,-0.857c0.441,-0 0.665,-0.307 0.665,-0.932c-0,-0.177 -0.067,-0.374 -0.201,-0.59c-0.133,-0.224 -0.287,-0.338 -0.464,-0.338" style="fill:#fff;fill-rule:nonzero;"/><path d="M225.767,1035.15l13.78,-30.879l15.239,30.879l-29.019,0Zm66.524,34.186c-2.387,0 -4.621,-1.172 -6.693,-3.508c-2.076,-2.344 -4.66,-6.697 -7.751,-13.06l-32.468,-65.454c-0.09,-0.267 -0.44,-0.401 -1.061,-0.401c-0.618,-0 -1.015,0.134 -1.192,0.401l-28.492,64.137c-2.206,4.943 -4.105,8.679 -5.694,11.188c-1.593,2.521 -3.229,4.271 -4.904,5.238c-1.679,0.975 -3.756,1.459 -6.229,1.459c-0.441,0 -0.661,0.264 -0.661,0.794c0,0.527 0.22,0.799 0.661,0.799c1.856,-0 4.196,-0.095 7.023,-0.272c3.182,-0.177 5.962,-0.259 8.349,-0.259c2.474,-0 5.388,0.082 8.746,0.259c3.001,0.177 5.301,0.272 6.89,0.272c0.441,-0 0.661,-0.272 0.661,-0.799c-0,-0.53 -0.22,-0.794 -0.661,-0.794c-3.976,0 -7.067,-0.798 -9.273,-2.387c-2.214,-1.589 -3.315,-3.925 -3.315,-7.02c-0,-2.119 0.574,-4.51 1.722,-7.161l6.359,-14.307l32.071,0l10.071,20.407c1.502,3.181 2.25,5.43 2.25,6.76c-0,1.321 -0.594,2.273 -1.79,2.851c-1.191,0.574 -3.067,0.857 -5.631,0.857c-0.354,0 -0.527,0.264 -0.527,0.794c-0,0.527 0.173,0.799 0.527,0.799c1.679,-0 4.019,-0.095 7.023,-0.272c3.005,-0.177 5.612,-0.259 7.822,-0.259c1.676,-0 4.373,0.082 8.082,0.259c3.708,0.177 6.402,0.272 8.085,0.272c0.437,-0 0.661,-0.272 0.661,-0.799c-0,-0.53 -0.224,-0.794 -0.661,-0.794" style="fill:#fff;fill-rule:nonzero;"/><path d="M362.786,1068.41c-3.004,0 -5.258,-0.283 -6.76,-0.861c-1.502,-0.574 -2.517,-1.436 -3.048,-2.588c-0.527,-1.144 -0.794,-2.733 -0.794,-4.77l-0,-32.196c2.12,-0.177 4.77,-0.272 7.952,-0.272c6.712,0 11.813,2.037 15.305,6.1c3.488,4.062 5.234,9.454 5.234,16.167c0,12.281 -5.961,18.42 -17.889,18.42m-10.602,-69.304c-0,-3.532 0.507,-5.875 1.526,-7.02c1.014,-1.152 2.933,-1.73 5.765,-1.73c4.589,-0 8.081,1.376 10.465,4.109c2.387,2.745 3.578,6.631 3.578,11.661c0,5.391 -1.325,9.784 -3.976,13.19c-2.65,3.401 -6.583,5.096 -11.794,5.096l-5.564,-0.13l-0,-25.176Zm18.023,25.306c5.034,-1.943 8.923,-4.613 11.66,-8.018c2.737,-3.394 4.106,-7.221 4.106,-11.46c-0,-5.474 -2.073,-9.713 -6.226,-12.718c-4.152,-3.005 -10.161,-4.507 -18.023,-4.507c-1.765,0 -3.335,0.044 -4.703,0.138c-1.369,0.082 -2.541,0.177 -3.512,0.259c-2.737,0.268 -5.344,0.402 -7.818,0.402c-2.387,-0 -5.521,-0.095 -9.407,-0.272l-6.893,-0.13c-0.177,0 -0.264,0.268 -0.264,0.799c0,0.531 0.087,0.79 0.264,0.79c2.827,0 4.927,0.248 6.296,0.732c1.368,0.483 2.34,1.368 2.918,2.65c0.57,1.282 0.857,3.201 0.857,5.761l-0,61.353c-0,2.65 -0.287,4.593 -0.857,5.832c-0.578,1.243 -1.573,2.104 -2.985,2.588c-1.416,0.483 -3.536,0.727 -6.359,0.727c-0.268,0 -0.397,0.264 -0.397,0.791c-0,0.53 0.129,0.802 0.397,0.802c2.914,-0 5.21,-0.047 6.89,-0.142l9.54,-0.13c2.206,0 4.196,0.048 5.962,0.13c1.77,0.095 3.225,0.177 4.373,0.272c3.358,0.267 6.316,0.397 8.88,0.397c5.478,-0 10.445,-1.082 14.908,-3.249c4.46,-2.166 7.952,-5.124 10.469,-8.879c2.517,-3.756 3.775,-7.925 3.775,-12.518c0,-6.009 -2.167,-11.046 -6.493,-15.109c-4.329,-4.062 -10.114,-6.489 -17.358,-7.291" style="fill:#fff;fill-rule:nonzero;"/><path d="M461.971,993.21c0.484,-1.274 1.412,-2.183 2.784,-2.71c1.369,-0.53 3.512,-0.802 6.426,-0.802c0.263,0 0.397,-0.259 0.397,-0.79c0,-0.531 -0.134,-0.799 -0.397,-0.799l-6.626,0.13c-3.89,0.177 -7.201,0.272 -9.938,0.272c-2.478,-0 -5.655,-0.095 -9.541,-0.272l-6.893,-0.13c-0.264,0 -0.398,0.268 -0.398,0.799c0,0.531 0.134,0.79 0.398,0.79c3.004,0 5.191,0.248 6.559,0.732c1.369,0.483 2.32,1.345 2.851,2.579c0.531,1.247 0.795,3.182 0.795,5.832l-0,61.353c-0,2.65 -0.264,4.617 -0.795,5.899c-0.531,1.282 -1.482,2.143 -2.851,2.58c-1.368,0.448 -3.555,0.668 -6.559,0.668c-0.264,0 -0.398,0.264 -0.398,0.794c0,0.527 0.134,0.799 0.398,0.799c2.918,-0 5.21,-0.047 6.893,-0.138l9.541,-0.134l9.804,0.134c1.679,0.091 3.932,0.138 6.76,0.138c0.263,-0 0.397,-0.272 0.397,-0.799c0,-0.53 -0.134,-0.794 -0.397,-0.794c-3.005,0 -5.191,-0.22 -6.56,-0.668c-1.372,-0.437 -2.277,-1.275 -2.717,-2.509c-0.444,-1.239 -0.665,-3.229 -0.665,-5.97l0,-61.085c0,-2.651 0.244,-4.617 0.732,-5.899" style="fill:#fff;fill-rule:nonzero;"/><path d="M597.862,988.24c-3.008,0.177 -5.391,0.268 -7.157,0.268c-1.856,-0 -4.196,-0.091 -7.02,-0.268l-5.434,-0.129c-0.177,-0 -0.268,0.267 -0.268,0.798c0,0.531 0.091,0.79 0.268,0.79c3.445,0 6.091,1.259 7.947,3.78c1.857,2.52 2.785,6.115 2.785,10.799l-0,46.907l-47.707,-56.184l-3.177,-4.24c-0.708,-1.062 -1.239,-1.769 -1.593,-2.119c-0.35,-0.354 -0.881,-0.531 -1.589,-0.531c-1.502,-0 -2.784,0.047 -3.842,0.129l-8.482,0.138c-2.12,0 -3.756,-0.047 -4.9,-0.138l-5.302,-0.129c-0.177,-0 -0.267,0.267 -0.267,0.798c0,0.531 0.09,0.79 0.267,0.79c2.12,0 4.173,0.531 6.163,1.589c1.986,1.062 4.216,2.922 6.689,5.569l0,58.037c0,4.688 -1.038,8.266 -3.114,10.74c-2.073,2.473 -5.015,3.708 -8.813,3.708c-0.264,0 -0.398,0.26 -0.398,0.791c0,0.531 0.134,0.798 0.398,0.798c2.654,0 4.683,-0.043 6.099,-0.138l7.818,-0.129l7.02,0.129c1.238,0.095 3.051,0.138 5.435,0.138c0.177,0 0.263,-0.267 0.263,-0.798c0,-0.531 -0.086,-0.791 -0.263,-0.791c-3.532,0 -6.23,-1.235 -8.086,-3.708c-1.852,-2.474 -2.78,-6.052 -2.78,-10.74l-0,-53.928l62.147,72.218c0.177,0.177 0.487,0.221 0.928,0.13c0.444,-0.086 0.66,-0.263 0.66,-0.531l0,-68.505c0,-4.684 0.972,-8.279 2.922,-10.799c1.939,-2.521 4.68,-3.78 8.212,-3.78c0.176,0 0.267,-0.259 0.267,-0.79c-0,-0.531 -0.091,-0.798 -0.267,-0.798l-5.829,0.129Z" style="fill:#fff;fill-rule:nonzero;"/><path d="M702.414,1049.99c-0.354,0 -0.531,0.083 -0.531,0.26c-3.177,11.491 -10.693,17.229 -22.526,17.229l-6.496,-0c-2.824,-0 -4.79,-0.567 -5.895,-1.719c-1.105,-1.144 -1.656,-3.181 -1.656,-6.099l-0,-30.077l12.588,0c9.891,0 14.842,3.799 14.842,11.397c-0,0.177 0.263,0.259 0.794,0.259c0.531,0 0.795,-0.082 0.795,-0.259c-0,-1.766 -0.087,-4.063 -0.264,-6.89l-0.13,-6.229l0.13,-11.531c0,-0.267 -0.248,-0.397 -0.731,-0.397c-0.484,0 -0.728,0.13 -0.728,0.397c0,6.54 -4.857,9.804 -14.574,9.804l-12.722,0l-0,-27.029c-0,-2.737 0.661,-4.687 1.986,-5.832c1.325,-1.144 3.579,-1.718 6.76,-1.718l5.301,-0c10.158,-0 16.297,5.03 18.417,15.097c0.09,0.271 0.377,0.354 0.861,0.271c0.487,-0.086 0.731,-0.224 0.731,-0.401l-0.267,-17.228c-0,-0.791 -0.441,-1.188 -1.325,-1.188l-55.124,0c-0.267,0 -0.397,0.267 -0.397,0.798c0,0.531 0.13,0.791 0.397,0.791c2.914,-0 5.081,0.244 6.493,0.731c1.412,0.484 2.364,1.341 2.851,2.58c0.484,1.243 0.728,3.178 0.728,5.828l-0,61.356c-0,2.651 -0.244,4.617 -0.728,5.899c-0.487,1.282 -1.416,2.144 -2.784,2.58c-1.373,0.445 -3.559,0.669 -6.56,0.669c-0.267,-0 -0.397,0.259 -0.397,0.79c0,0.531 0.13,0.798 0.397,0.798l57.511,0c0.794,0 1.325,-0.153 1.588,-0.468c0.264,-0.306 0.401,-0.814 0.401,-1.521c0,-5.569 0.441,-11.704 1.326,-18.417c-0,-0.086 -0.114,-0.2 -0.331,-0.33c-0.224,-0.13 -0.468,-0.201 -0.731,-0.201" style="fill:#fff;fill-rule:nonzero;"/><path d="M820.215,984.269c-0.444,0 -0.712,0.177 -0.794,0.531c-0.445,1.322 -1.436,2.202 -2.985,2.651c-1.546,0.436 -3.999,0.66 -7.354,0.66l-9.01,0.13c-5.828,0.177 -11.353,0.268 -16.564,0.268c-10.161,-0 -19.037,-0.13 -26.631,-0.398c-4.951,0 -7.425,-0.971 -7.425,-2.922c0,-0.436 -0.244,-0.66 -0.727,-0.66c-0.488,-0 -0.728,0.224 -0.728,0.66c0,2.745 -0.224,6.831 -0.665,12.262c-0.444,5.435 -0.841,9.875 -1.191,13.316c-0,0.271 0.244,0.401 0.727,0.401c0.488,0 0.728,-0.086 0.728,-0.271c1.856,-6.713 4.53,-11.719 8.018,-15.038c3.489,-3.312 7.929,-4.967 13.316,-4.967c2.387,-0 4.153,0.22 5.305,0.668c1.145,0.437 1.939,1.188 2.383,2.25c0.441,1.058 0.661,2.741 0.661,5.03l0,61.356c0,2.646 -0.287,4.613 -0.861,5.899c-0.574,1.282 -1.675,2.143 -3.311,2.58c-1.64,0.444 -4.177,0.668 -7.622,0.668c-0.177,0 -0.263,0.26 -0.263,0.791c-0,0.53 0.086,0.798 0.263,0.798c3.268,-0 5.832,-0.047 7.689,-0.138l10.334,-0.13l10.866,0.13c1.766,0.091 4.196,0.138 7.287,0.138c0.268,-0 0.401,-0.268 0.401,-0.798c0,-0.531 -0.133,-0.791 -0.401,-0.791c-3.445,0 -5.962,-0.224 -7.554,-0.668c-1.589,-0.437 -2.647,-1.275 -3.178,-2.513c-0.531,-1.235 -0.794,-3.225 -0.794,-5.966l-0,-61.089c-0,-2.387 0.196,-4.129 0.598,-5.23c0.397,-1.105 1.191,-1.88 2.383,-2.317c1.191,-0.448 3.024,-0.668 5.501,-0.668c5.565,-0 9.981,1.612 13.249,4.837c3.268,3.225 5.345,8.243 6.23,15.038c0.082,0.271 0.373,0.401 0.861,0.401c0.483,0 0.727,-0.13 0.727,-0.401c0,-3.441 0.13,-7.948 0.398,-13.516c0.263,-5.561 0.53,-9.718 0.794,-12.451c-0,-0.354 -0.22,-0.531 -0.661,-0.531" style="fill:#fff;fill-rule:nonzero;"/></g></svg>