<svg width="100%" height="100%" viewBox="0 0 417 417" version="1.1" xmlns="http://www.w3.org/2000/svg" xmlns:xlink="http://www.w3.org/1999/xlink" xml:space="preserve" xmlns:serif="http://www.serif.com/" style="fill-rule:evenodd;clip-rule:evenodd;stroke-linejoin:round;stroke-miterlimit:2;"><path d="M240,213.333l-7.5,-7.5c-6.667,-6.666 -17.5,-6.666 -23.333,0c-3.334,3.334 -5,7.5 -5,11.667c-0,4.167 1.666,8.333 5,11.667l7.5,7.5c-2.5,0.833 -5.834,1.666 -7.5,4.166c-3.334,3.334 -5,7.5 -5,11.667c-0,4.167 1.666,8.333 5,11.667l53.333,53.333l-18.333,0c-4.167,0 -7.5,1.667 -9.167,2.5c-5,3.333 -8.333,9.167 -8.333,15c-0,4.167 1.666,8.333 4.166,10.833c3.334,3.334 6.667,5 10.834,5l57.5,7.5l0.833,0c2.5,0 4.167,-1.666 4.167,-3.333c-0,-0.833 -0,-2.5 -0.834,-3.333c-0.833,-0.834 -1.666,-1.667 -2.5,-1.667l-57.5,-7.5c-2.5,-0 -4.166,-0.833 -5,-2.5c-1.666,-1.667 -1.666,-3.333 -1.666,-5c-0,-3.333 1.666,-6.667 4.166,-8.333c0.834,-0.834 2.5,-0.834 5,-0.834l32.5,0c0.834,0 2.5,0 3.334,-0.833c0.833,-0.833 0.833,-1.667 0.833,-3.333c0,-2.5 -1.667,-4.167 -4.167,-4.167l-3.333,0l-60,-59.167c-1.667,-1.666 -2.5,-3.333 -2.5,-5.833c-0,-2.5 0.833,-4.167 2.5,-5.833c3.333,-3.334 8.333,-3.334 11.667,-0l55,55c0.833,0.833 1.666,0.833 3.333,0.833c0.833,0 2.5,0 3.333,-0.833c0.834,-0.834 0.834,-1.667 0.834,-3.334c-0,-1.666 -0.834,-2.5 -0.834,-3.333l-72.5,-72.5c-1.666,-1.667 -2.5,-4.167 -2.5,-5.833c0,-2.5 0.834,-4.167 2.5,-5.834c3.334,-3.333 8.334,-3.333 11.667,0l58.333,58.334c1.667,1.666 4.167,1.666 5.834,-0c1.666,-1.667 1.666,-4.167 -0,-5.834l-41.667,-40c-1.667,-1.666 -2.5,-3.333 -2.5,-5.833c-0,-2.5 0.833,-4.167 2.5,-5.833c3.333,-3.334 8.333,-3.334 11.667,-0l55,55c0.833,0.833 1.666,0.833 3.333,0.833c0.833,0 2.5,-0.833 3.333,-0.833c1.667,-1.667 1.667,-4.167 0,-5.834l-37.5,-37.5c-1.666,-1.666 -2.5,-3.333 -2.5,-5.833c0,-2.5 0.834,-4.167 2.5,-5.833c3.334,-3.334 8.334,-3.334 11.667,-0l51.667,51.666c10,10 15,22.5 15,36.667c-0,14.167 -5,26.667 -15,36.667c-5,5 -11.667,9.166 -19.167,11.666c-2.5,0.834 -3.333,3.334 -2.5,5c0.833,1.667 2.5,2.5 4.167,2.5l1.666,0c8.334,-3.333 15.834,-7.5 21.667,-14.166c11.667,-11.667 17.5,-26.667 17.5,-42.5c0,-15.834 -6.667,-30.834 -17.5,-42.5l-51.667,-52.5c-6.666,-6.667 -17.5,-6.667 -23.333,-0c-2.5,2.5 -3.333,5 -4.167,7.5l-7.5,-7.5c-3.333,-3.334 -7.5,-5 -11.666,-5c-4.167,-0 -8.334,1.666 -11.667,5c-2.5,3.333 -4.167,5.833 -5,9.166Z" style="fill:#fff;fill-rule:nonzero;"/><path d="M297.5,275.833c-1.667,1.667 -1.667,4.167 0,5.834c0.833,0.833 1.667,0.833 3.333,0.833c0.834,0 2.5,0 2.5,-0.833c0.834,-0.834 1.667,-1.667 1.667,-3.334c0,-0.833 -0.833,-2.5 -1.667,-3.333c-1.666,-0.833 -4.166,-0.833 -5.833,0.833Z" style="fill:#fff;fill-rule:nonzero;"/><path d="M316.667,360c2.5,0 4.166,-2.5 4.166,-4.167c0,-2.5 -1.666,-4.166 -4.166,-4.166c-2.5,-0 -4.167,2.5 -4.167,4.166c-0.833,2.5 1.667,4.167 4.167,4.167c-0.834,0 -0.834,0 -0,0Z" style="fill:#fff;fill-rule:nonzero;"/><path d="M81.667,296.667l18.333,-0l0,5c0,5.833 4.167,11.666 10.833,12.5l2.5,0.833c15,2.5 29.167,3.333 44.167,3.333c15,0 29.167,-0.833 44.167,-3.333l2.5,-0.833c5.833,-0.834 10.833,-5.834 10.833,-12.5l0,-9.167c0,-2.5 -1.667,-4.167 -4.167,-4.167c-2.5,0 -4.166,1.667 -4.166,4.167l-0,9.167c-0,1.666 -1.667,4.166 -3.334,4.166l-3.333,0.834c-28.333,4.166 -57.5,4.166 -85.833,-0l-2.5,-0.834c-1.667,0 -3.334,-1.666 -3.334,-4.166l0,-9.167c0,-2.5 -1.666,-4.167 -4.166,-4.167l-22.5,0c-6.667,0 -12.5,-5.833 -12.5,-12.5c-0,-6.666 5.833,-12.5 12.5,-12.5l23.333,0c2.5,0 4.167,-1.666 4.167,-4.166l-0,-6.667c-0,-0.833 0.833,-2.5 1.666,-3.333c0.834,-0.834 2.5,-0.834 3.334,-0.834c28.333,4.167 56.666,5 85,0.834c2.5,-0 4.166,-2.5 3.333,-5c0,-2.5 -2.5,-4.167 -5,-3.334c-27.5,4.167 -55,4.167 -82.5,-0.833c-3.333,-0.833 -7.5,0.833 -10,2.5c-3.333,3.333 -5,7.5 -5,10.833l0,2.5l-18.333,0c-11.667,0 -20.834,9.167 -20.834,20.834c0,11.666 9.167,20 20.834,20Z" style="fill:#fff;fill-rule:nonzero;"/><path d="M215.833,170.833c2.5,0 5,1.667 5,4.167l0,6.667c0,0.833 0.834,2.5 0.834,2.5c0.833,0.833 1.666,1.666 3.333,1.666l23.333,0c2.5,0 4.167,-1.666 4.167,-4.166c0,-2.5 -1.667,-4.167 -4.167,-4.167l-19.166,0l-0,-2.5c-0,-6.667 -5.834,-12.5 -12.5,-12.5l-2.5,0c-20.834,3.333 -41.667,4.167 -62.5,2.5c-2.5,0 -4.167,1.667 -4.167,4.167c0,0.833 0,2.5 0.833,3.333c0.834,0.833 1.667,1.667 3.334,1.667c20.833,0.833 42.5,-0 64.166,-3.334Z" style="fill:#fff;fill-rule:nonzero;"/><path d="M125,235.833l2.5,0c15,2.5 29.167,3.334 44.167,3.334c9.166,-0 18.333,-0.834 27.5,-1.667c0.833,0 2.5,-0.833 2.5,-1.667c0.833,-0.833 0.833,-1.666 0.833,-3.333c0,-2.5 -2.5,-4.167 -4.167,-4.167c-23.333,2.5 -46.666,1.667 -69.166,-2.5l-2.5,-0.833c-1.667,0 -3.334,-1.667 -3.334,-4.167l0,-9.166c0,-0.834 0,-2.5 -0.833,-3.334c-0.833,-0.833 -1.667,-0.833 -3.333,-0.833l-23.334,0c-6.666,0 -12.5,-5.833 -12.5,-12.5c0,-6.667 5.834,-12.5 12.5,-12.5l23.334,0c0.833,0 2.5,-0.833 3.333,-1.667c0.833,-0.833 0.833,-1.666 0.833,-2.5l0,-3.333c0,-0.833 0,-1.667 0.834,-2.5c0.833,-1.667 0.833,-4.167 -1.667,-5.833c-1.667,-0.834 -4.167,-0 -5.833,1.666c-0.834,1.667 -1.667,4.167 -1.667,5.834l0,2.5l-19.167,-0c-11.666,-0 -20.833,9.166 -20.833,20.833c0,11.667 9.167,20.833 20.833,20.833l19.167,0l0,5c-0.833,6.667 3.333,11.667 10,12.5Z" style="fill:#fff;fill-rule:nonzero;"/><path d="M134.167,171.667c1.666,-0 4.166,-1.667 4.166,-3.334c0,-0.833 0,-2.5 -0.833,-3.333c-0.833,-0.833 -1.667,-1.667 -2.5,-1.667c-2.5,0 -4.167,1.667 -5,3.334c0,0.833 0,2.5 0.833,3.333c0.834,0.833 1.667,1.667 3.334,1.667Z" style="fill:#fff;fill-rule:nonzero;"/><path d="M81.667,140l18.333,0l0,5c0,5.833 4.167,11.667 10.833,12.5l2.5,0.833c15,2.5 29.167,3.334 44.167,3.334c15,-0 29.167,-0.834 44.167,-3.334l2.5,-0.833c5.833,-0.833 10.833,-5.833 10.833,-12.5l0,-5l19.167,0c11.666,0 20.833,-9.167 20.833,-20.833c0,-11.667 -9.167,-20.834 -20.833,-20.834l-19.167,0l0,-2.5c0,-3.333 -1.667,-7.5 -4.167,-9.166c-2.5,-2.5 -6.666,-3.334 -10,-2.5c-28.333,4.166 -57.5,4.166 -85.833,-0c-3.333,-0.834 -7.5,0.833 -10,2.5c-2.5,2.5 -4.167,5.833 -4.167,9.166l0,2.5l-19.166,0c-11.667,0 -20.834,9.167 -20.834,20.834c0,11.666 9.167,20.833 20.834,20.833Zm-0,-33.333l23.333,-0c2.5,-0 4.167,-1.667 4.167,-4.167l-0,-6.667c-0,-0.833 0.833,-2.5 1.666,-3.333c0.834,-0.833 2.5,-0.833 3.334,-0.833c29.166,5 59.166,5 88.333,-0c0.833,-0 2.5,-0 3.333,0.833c0.834,0.833 1.667,1.667 1.667,3.333l0,6.667c0,2.5 1.667,4.167 4.167,4.167l23.333,-0c6.667,-0 12.5,5.833 12.5,12.5c0,6.666 -5.833,12.5 -12.5,12.5l-23.333,-0c-2.5,-0 -4.167,1.666 -4.167,4.166l0,9.167c0,1.667 -1.667,4.167 -3.333,4.167l-4.167,-0c-28.333,4.166 -57.5,4.166 -85.833,-0l-2.5,-0.834c-1.667,0 -3.334,-1.666 -3.334,-4.166l0,-9.167c0,-2.5 -1.666,-4.167 -4.166,-4.167l-22.5,0c-6.667,0 -12.5,-5.833 -12.5,-12.5c-0,-6.666 5,-11.666 12.5,-11.666Z" style="fill:#fff;fill-rule:nonzero;"/><path d="M190.833,140c2.5,0 4.167,-1.667 4.167,-4.167c0,-2.5 -1.667,-4.166 -4.167,-4.166c-2.5,-0 -4.166,1.666 -4.166,4.166c-0,2.5 1.666,4.167 4.166,4.167Z" style="fill:#fff;fill-rule:nonzero;"/><path d="M186.667,119.167c-0,2.5 1.666,4.166 4.166,4.166c2.5,0 4.167,-1.666 4.167,-4.166l0,-17.5c0,-0.834 0,-0.834 -0.833,-2.5c-1.667,-1.667 -4.167,-2.5 -5.834,-0.834c-1.666,0.834 -2.5,3.334 -1.666,4.167l-0,16.667Z" style="fill:#fff;fill-rule:nonzero;"/><path d="M194.167,179.167c-1.667,-1.667 -4.167,-2.5 -5.834,-1.667c-1.666,0.833 -2.5,2.5 -1.666,5l-0,15c-0,2.5 1.666,4.167 4.166,4.167c2.5,-0 4.167,-1.667 4.167,-4.167l0,-17.5c0,1.667 0,0.833 -0.833,-0.833Z" style="fill:#fff;fill-rule:nonzero;"/><path d="M190.833,219.167c2.5,-0 4.167,-1.667 4.167,-4.167c0,-2.5 -1.667,-4.167 -4.167,-4.167c-2.5,0 -4.166,1.667 -4.166,4.167c-0,2.5 1.666,4.167 4.166,4.167Z" style="fill:#fff;fill-rule:nonzero;"/><path d="M190.833,290c-2.5,0 -4.166,1.667 -4.166,4.167c-0,0.833 -0,2.5 0.833,2.5c0.833,0.833 1.667,1.666 2.5,1.666c2.5,0 4.167,-1.666 4.167,-4.166c0.833,-2.5 -0.834,-4.167 -3.334,-4.167Z" style="fill:#fff;fill-rule:nonzero;"/><path d="M195,275.833l0,-15.833c0,-0.833 0,-0.833 -0.833,-2.5c-1.667,-1.667 -4.167,-2.5 -5.834,-1.667c-1.666,0.834 -2.5,3.334 -1.666,5l-0,15c-0,2.5 1.666,4.167 4.166,4.167c2.5,0 4.167,-1.667 4.167,-4.167Z" style="fill:#fff;fill-rule:nonzero;"/></svg>