<svg width="100%" height="100%" viewBox="0 0 417 417" version="1.1" xmlns="http://www.w3.org/2000/svg" xmlns:xlink="http://www.w3.org/1999/xlink" xml:space="preserve" xmlns:serif="http://www.serif.com/" style="fill-rule:evenodd;clip-rule:evenodd;stroke-linejoin:round;stroke-miterlimit:2;"><g><path d="M400.392,162.659l-15.702,-0l5.089,-28.865c0.62,-3.516 -1.763,-6.92 -5.28,-7.54l-72.733,-12.824l-0,-77.656c-0,-3.571 -2.938,-6.509 -6.509,-6.509c-0.001,0 -0.001,0 -0.002,0l-199.651,0c-0.001,0 -0.002,0 -0.002,0c-3.571,0 -6.509,2.938 -6.509,6.509l0,19.539l-34.925,0c-3.571,0 -6.509,2.938 -6.509,6.509l0,74.795l-41.385,0c-3.57,0 -6.508,2.938 -6.508,6.509c-0,0 -0,0.001 -0,0.001l-0,214.164c0.019,16.511 13.599,30.091 30.11,30.111l336.914,-0c16.511,-0.02 30.092,-13.6 30.111,-30.111l0,-188.122c0,-0 0,-0.001 0,-0.002c0,-3.57 -2.938,-6.508 -6.509,-6.508Zm-28.924,-0l-205.136,-0l10.54,-59.796l198.955,35.083l-4.359,24.713Zm-259.354,-120.373l186.631,-0l-0,68.848l-13.021,-2.296l0,-47.016c0,-3.571 -2.938,-6.509 -6.509,-6.509c-0,0 -0.001,0 -0.001,0l-167.1,0l-0,-13.027Zm-41.434,26.048l202.023,0l0,38.209l-99.98,-17.629c-0.376,-0.066 -0.757,-0.1 -1.138,-0.1c-3.145,0 -5.861,2.281 -6.405,5.377l-9.559,54.216l-4.095,-8.191c-1.101,-2.203 -3.361,-3.599 -5.823,-3.599l-75.023,0l0,-68.283Zm323.2,288.957c-0.011,9.371 -7.719,17.078 -17.09,17.09l-336.914,-0c-9.371,-0.012 -17.078,-7.719 -17.09,-17.09l0,-207.653l118.892,-0l11.221,22.443c1.102,2.202 3.362,3.599 5.824,3.599l235.157,-0l0,181.611Zm-352.478,-8.952l333.863,0c3.571,0 6.51,2.939 6.51,6.51c-0,3.572 -2.939,6.511 -6.51,6.511l-333.863,-0c-3.571,-0 -6.51,-2.939 -6.51,-6.511c-0,-3.571 2.939,-6.51 6.51,-6.51Zm35.127,-179.168l0,-0.004c0,-1.784 1.469,-3.253 3.254,-3.253l13.022,-0c1.786,-0 3.255,1.469 3.255,3.255c0,1.786 -1.469,3.255 -3.255,3.255l-13.022,0c-1.785,0 -3.254,-1.468 -3.254,-3.253Zm32.552,-0l0,-0.004c0,-1.784 1.469,-3.253 3.254,-3.253l13.022,-0c1.786,-0 3.256,1.469 3.256,3.255c-0,1.786 -1.47,3.255 -3.256,3.255l-13.022,0c-1.785,0 -3.254,-1.468 -3.254,-3.253Zm-65.104,-0l0,-0.004c0,-1.784 1.469,-3.253 3.253,-3.253l13.023,-0c1.786,-0 3.255,1.469 3.255,3.255c0,1.786 -1.469,3.255 -3.255,3.255l-13.023,0c-1.784,0 -3.253,-1.468 -3.253,-3.253Z" style="fill:#fff;fill-rule:nonzero;"/></g></svg>