<svg width="100%" height="100%" viewBox="0 0 417 417" version="1.1" xmlns="http://www.w3.org/2000/svg" xmlns:xlink="http://www.w3.org/1999/xlink" xml:space="preserve" xmlns:serif="http://www.serif.com/" style="fill-rule:evenodd;clip-rule:evenodd;stroke-linejoin:round;stroke-miterlimit:2;"><path d="M94.167,145.833c9.583,-2.916 14.583,-4.166 25,-5.833c7.5,-1.25 15,-2.083 22.5,-3.75c9.583,-2.083 21.25,-5.833 29.583,-15.833c10.833,-13.334 10.833,-31.25 8.75,-48.334c0,-1.25 -0.833,-2.5 -2.083,-3.333c-1.25,-0.833 -2.5,-1.25 -3.75,-1.25l-10,1.25c-2.917,0.417 -5,2.917 -4.584,5.833c1.25,12.084 2.084,25.417 -4.166,33.334c-4.167,5 -11.667,7.5 -18.334,8.75c-6.666,1.666 -14.166,2.5 -21.25,3.75c-10.416,1.666 -16.666,3.333 -27.5,6.25c-22.916,6.666 -40.416,20 -48.75,37.5c-0.416,0.416 -6.25,11.666 -11.666,35.833c-4.584,20.417 -7.084,42.083 -7.084,64.167l0,2.083c0,2.917 2.5,5 5,5l10,-0c2.917,-0 5,-2.5 5,-5l0,-2.083c0,-20.417 2.084,-40.417 6.667,-59.584c4.583,-21.25 9.583,-31.25 9.583,-31.25c8.75,-17.083 26.667,-24.583 37.084,-27.5Z" style="fill:#fff;fill-rule:nonzero;"/><path d="M87.5,290.417l8.333,5.833c1.25,0.833 2.5,1.25 4.167,0.833c1.25,-0.416 2.5,-1.25 3.333,-2.5c2.084,-3.333 3.75,-7.916 5.417,-13.333c3.333,7.5 5.833,14.583 7.5,21.667c3.75,13.75 5.417,25 4.583,32.083c-0.416,2.5 1.25,5 3.75,5.833l10,2.5l1.25,0c0.834,0 2.084,-0.416 2.917,-0.833c1.25,-0.833 2.083,-2.083 2.083,-3.333c1.667,-10 0,-23.75 -5,-40.834c-3.333,-12.083 -7.916,-24.166 -14.583,-37.083c-2.5,-5 -4.583,-10.417 -6.667,-15.833c0,-0.834 -0.416,-1.667 -0.833,-2.5c-3.333,-10.417 -4.167,-19.167 -4.583,-23.334c-0.417,-2.5 -2.5,-4.583 -5,-4.583l-10,0c-1.25,0 -2.917,0.833 -3.75,1.667c-0.834,0.833 -1.25,2.5 -1.25,3.75c0.416,5.416 1.666,16.25 5.833,29.583c0,5.833 -4.583,25.833 -9.167,34.583c-1.25,1.25 -0.416,4.167 1.667,5.834Z" style="fill:#fff;fill-rule:nonzero;"/><path d="M377.5,164.167c-8.75,-17.5 -26.25,-30.834 -49.167,-37.917c-10.833,-3.333 -17.083,-5 -27.916,-6.667c-7.084,-1.25 -14.167,-2.083 -20.834,-3.75c-6.666,-1.666 -14.166,-3.75 -18.333,-8.75c-6.25,-7.5 -5.833,-20.833 -4.167,-33.333c0.417,-2.917 -1.666,-5.417 -4.583,-5.833l-10,-1.25c-1.25,-0 -2.917,0.416 -3.75,1.25c-1.25,0.833 -1.667,2.083 -2.083,3.333c-2.084,17.5 -2.084,35 8.75,48.333c8.333,10 20,13.75 29.583,15.834c7.5,1.666 15,2.916 22.5,3.75c10,1.666 15.417,2.916 25,5.833c10,2.917 28.333,10.417 36.667,27.5c-0,-0 5,10 9.583,31.25c4.167,19.167 6.667,39.167 6.667,59.583l-0,2.084c-0,2.916 2.5,5 5,5l10,-0c2.916,-0 5,-2.5 5,-5l-0,-2.084c-0,-22.083 -2.5,-43.75 -7.084,-64.166c-5,-23.75 -10.833,-34.584 -10.833,-35Z" style="fill:#fff;fill-rule:nonzero;"/><path d="M321.667,249.167c4.166,-13.334 5.416,-24.167 5.833,-29.167c0,-1.25 -0.417,-2.917 -1.25,-3.75c-0.833,-0.833 -2.5,-1.667 -3.75,-1.667l-10,0c-2.917,0 -5,2.084 -5.417,4.584c-0.416,4.166 -1.25,12.916 -4.583,23.333c-0.417,0.833 -0.833,1.667 -0.833,2.5c-1.667,5.417 -4.167,10.833 -6.667,15.833c-6.667,12.917 -11.25,25 -14.583,37.084c-4.584,17.083 -6.25,31.25 -5,40.833c0.416,1.25 0.833,2.917 2.083,3.333c0.833,0.417 2.083,0.834 2.917,0.834l1.25,-0l10,-2.5c2.5,-0.417 4.166,-2.917 3.75,-5.834c-0.834,-7.083 0.833,-18.333 4.583,-32.083c2.083,-7.083 4.583,-14.167 7.5,-21.667c1.667,5.417 3.75,9.584 5.417,13.334c0.833,1.25 2.083,2.083 3.333,2.5c1.25,0.416 2.917,-0 4.167,-0.834l8.333,-5.833c2.083,-1.667 2.917,-4.583 1.667,-6.667c-4.167,-8.333 -8.75,-28.333 -8.75,-34.166Z" style="fill:#fff;fill-rule:nonzero;"/><path d="M200,349.583l10,0c2.917,0 5,-2.5 5,-5l0,-125c0,-2.916 -2.5,-5 -5,-5l-10,0c-2.917,0 -5,2.5 -5,5l0,125c-0.417,2.5 2.083,5 5,5Z" style="fill:#fff;fill-rule:nonzero;"/></svg>