<svg width="100%" height="100%" viewBox="0 0 504 674" version="1.1" xmlns="http://www.w3.org/2000/svg" xmlns:xlink="http://www.w3.org/1999/xlink" xml:space="preserve" xmlns:serif="http://www.serif.com/" style="fill-rule:evenodd;clip-rule:evenodd;stroke-linejoin:round;stroke-miterlimit:2;"><path d="M251.954,673.323c139.057,-0 251.954,-112.897 251.954,-251.954l0,-169.415c0,-139.057 -112.897,-251.954 -251.954,-251.954c-139.057,0 -251.954,112.897 -251.954,251.954l0,169.415c0,139.057 112.897,251.954 251.954,251.954Zm0,-4.167c-136.758,0 -247.787,-111.03 -247.787,-247.787c-0,-0 -0,-169.415 -0,-169.415c-0,-136.758 111.029,-247.787 247.787,-247.787c136.758,-0 247.787,111.029 247.787,247.787l0,169.415c0,136.757 -111.029,247.787 -247.787,247.787Z" style="fill:var(--rounded-circle-fill);"/></svg>