<?xml version="1.0" encoding="UTF-8" standalone="no"?><!DOCTYPE svg PUBLIC "-//W3C//DTD SVG 1.1//EN" "http://www.w3.org/Graphics/SVG/1.1/DTD/svg11.dtd"><svg width="100%" height="100%" viewBox="0 0 2134 2134" version="1.1" xmlns="http://www.w3.org/2000/svg" xmlns:xlink="http://www.w3.org/1999/xlink" xml:space="preserve" xmlns:serif="http://www.serif.com/" style="fill-rule:evenodd;clip-rule:evenodd;stroke-linejoin:round;stroke-miterlimit:2;"><rect id="favicon" x="0" y="0" width="2133.33" height="2133.33" style="fill:none;"/><path d="M1066.64,150.322c-505.261,0 -916.318,411.068 -916.318,916.35c0,505.261 411.057,916.339 916.318,916.339c505.293,0 916.382,-411.078 916.382,-916.339c-0,-505.282 -411.089,-916.35 -916.382,-916.35" style="fill:#fff;fill-rule:nonzero;"/><path d="M839.884,980.472c0,0 21.776,-12.892 17.862,-36.662c0,0 -8.926,32.685 -23.78,32.685c-14.855,-0 -29.667,-2.943 -29.667,-2.943l35.585,6.92Z" style="fill-rule:nonzero;"/><path d="M976.565,928.956c-14.855,-0 -31.714,-6.932 -47.571,-4.916c-15.782,1.972 -48.499,15.782 -53.447,20.751c-4.959,4.97 -13.884,8.915 -11.837,12.904c1.973,3.902 13.799,19.781 29.667,27.725c-8.904,-15.889 -8.904,-12.935 -11.837,-24.825c0,0 10.205,-11.357 25.444,-18.374c-2.474,3.903 -3.946,8.51 -3.946,13.458c0,13.938 11.261,25.273 25.263,25.273c13.959,0 25.209,-11.335 25.209,-25.273c0,-6.622 -2.549,-12.509 -6.686,-17.019c16.241,3.209 24.409,10.098 33.687,17.019c11.869,8.936 38.603,2.016 38.603,2.016c-0,-0 -27.694,-28.739 -42.549,-28.739" style="fill-rule:nonzero;"/><path d="M966.672,999.269c-17.872,4.938 -60.421,-1.002 -60.421,-1.002c24.751,15.836 35.66,9.896 43.594,10.866c7.891,1.045 32.674,-8.851 47.496,-19.77c14.844,-10.899 -16.827,-10.899 -16.827,-10.899c-0,0 3.946,15.825 -13.842,20.805" style="fill-rule:nonzero;"/><path d="M964.694,1201.28c3.946,-12.914 13.842,-60.453 25.721,-72.322c11.912,-11.837 13.885,-25.721 13.885,-25.721c-4.991,-1.013 -11.912,2.975 -17.83,9.939c-5.961,6.899 -37.675,51.474 -45.567,57.392c-7.923,5.918 -21.764,18.8 -32.674,18.8c-10.909,0 -20.815,15.879 -26.691,22.778c-5.993,6.942 -9.981,41.61 -21.85,55.463c-11.869,13.862 -16.828,48.52 -18.8,51.452c-2.005,3.007 34.657,-31.65 47.539,-44.532c12.839,-12.839 19.802,-23.748 33.644,-33.644c13.884,-9.939 38.635,-26.723 42.623,-39.605" style="fill-rule:nonzero;"/><path d="M654.741,1077.48c-1.973,16.87 17.829,42.601 24.75,49.501c6.964,6.921 24.751,5.961 21.776,-9.853c-2.943,-15.868 3.977,-49.555 8.893,-57.478c4.991,-7.913 1.013,-27.694 -2.943,-32.642c0,-0 10.867,-24.772 -5.95,-32.717c-16.785,-7.88 -19.846,-32.684 -19.846,-32.684c-20.762,-1.002 -41.535,-18.779 -56.422,-22.746c-14.854,-3.946 -5.918,23.748 -2.975,39.605c2.975,15.825 -12.839,43.594 -3.945,57.457c8.925,13.82 18.874,78.219 26.798,97.019c7.891,18.779 14.769,41.621 22.703,35.628c7.966,-5.951 -14.812,-46.516 -22.703,-66.34c-7.924,-19.845 -6.964,-51.484 -10.941,-62.362c-3.946,-10.845 1.002,-31.703 4.948,-30.733c3.945,1.045 8.936,-18.779 6.92,-25.721c-1.94,-6.92 -1.94,-17.787 1.003,-18.8c2.986,-0.981 9.906,1.984 19.802,10.877c9.907,8.926 1.973,23.78 0.971,33.644c-0.971,9.939 -10.867,51.517 -12.839,68.345" style="fill-rule:nonzero;"/><path d="M922.07,1434.92c13.927,-11.837 11.879,-18.79 17.83,-25.764c5.95,-6.899 2.015,-12.839 2.015,-12.839c0,0 -15.857,17.83 -17.83,22.778c-2.015,4.98 -22.82,20.794 -26.766,32.674c-3.945,11.933 -17.829,12.892 -27.693,18.853c-9.939,5.919 -12.872,17.788 -4.948,28.654c7.923,10.952 55.419,25.796 58.394,25.796c0,-0 2.016,-10.899 2.016,-20.763c-0,-9.938 -2.016,-7.955 -6.964,-15.899c-4.916,-7.934 -6.92,-16.828 -9.896,-26.767c-2.943,-9.874 0,-14.812 13.842,-26.723" style="fill-rule:nonzero;"/><path d="M909.193,1060.65c5.994,4.948 11.912,9.864 21.808,9.864c9.907,0 44.596,-29.688 48.541,-39.573c4.415,-11.058 -22.82,14.855 -31.714,14.855c-8.893,-0 -29.698,-3.946 -36.63,-3.946c-6.921,0 -7.88,13.884 -2.005,18.8" style="fill-rule:nonzero;"/><path d="M714.184,1166.63c0.97,-5.993 7.848,-13.927 0.97,-12.925c-6.963,1.045 -16.827,8.926 -16.827,8.926c5.918,3.999 14.854,9.917 15.857,3.999" style="fill-rule:nonzero;"/><path d="M1017.14,1184.44c4.948,1.994 19.845,-1.995 19.845,-1.995l-6.963,-4.958c-6.921,-4.98 -13.853,-5.94 -20.816,-4.948c-0,-0 2.986,9.906 7.934,11.901" style="fill-rule:nonzero;"/><path d="M1030.98,863.655c-7.892,-6.964 -19.803,-16.881 -31.672,-21.818c-11.879,-4.97 -50.514,-8.936 -63.353,-6.9c-12.882,1.93 -23.791,15.772 -32.642,21.754c-8.937,5.929 -15.9,10.888 -26.766,19.824c-10.867,8.851 -20.773,10.867 -27.737,23.706c-6.953,12.882 -14.855,27.747 -14.855,27.747c0,0 19.846,-15.836 29.742,-22.756c9.906,-6.964 40.575,-20.773 55.43,-22.778c1.237,-0.16 2.517,-0.373 3.828,-0.587c-10.941,3.871 -22.159,9.011 -34.54,13.447c-27.725,9.875 -45.555,54.471 -45.555,54.471c-0,-0 26.766,-20.805 42.58,-35.649c13.884,-13.042 60.411,-30.722 75.265,-29.677c14.887,0.97 46.526,16.827 46.526,16.827c0,0 -12.103,-11.965 -30.669,-19.568c13.884,4.521 32.642,10.632 32.642,10.632l28.739,-16.828l-6.963,-11.847Z" style="fill-rule:nonzero;"/><path d="M1245.4,1002.45c13.969,0 25.219,-11.261 25.219,-25.22c0,-5.918 -2.122,-11.346 -5.566,-15.707c5.684,1.791 11.41,3.465 13.767,3.839c5.225,0.693 25.22,20.069 28.195,23.012c3.018,2.975 3.018,7.422 0.736,13.34c-2.165,5.972 -10.408,10.44 -16.284,14.855c-5.993,4.436 -32.727,5.95 -32.727,5.95c-0,0 19.344,2.986 26.734,2.986c7.422,0 17.862,-7.432 22.277,-11.186c4.489,-3.69 12.647,-8.894 20.847,-13.319c8.115,-4.468 -2.25,-12.626 -3.017,-17.851c-0.736,-5.151 -13.341,-19.259 -17.063,-18.534c-3.711,0.747 1.515,6.697 -4.478,6.697c-5.929,-0 -40.811,-25.273 -68.345,-22.309c-27.416,2.965 -54.929,24.474 -54.929,24.474c-9.661,4.521 -3.711,10.439 5.151,9.672c8.936,-0.736 8.936,-7.422 20.112,-16.316c4.564,-3.679 13.031,-5.961 21.381,-7.358c-4.479,4.564 -7.305,10.856 -7.305,17.755c0,13.959 11.368,25.22 25.295,25.22" style="fill-rule:nonzero;"/><path d="M601.282,1523.02c8.862,-13.809 56.433,-65.326 56.433,-65.326c-0,0 38.592,-46.526 47.528,-68.301c8.937,-21.797 52.487,-87.177 52.487,-87.177c0,0 -16.816,-37.632 -22.777,-76.193c-0,0 -25.764,42.57 -48.499,24.719c-22.778,-17.83 -37.675,-32.653 -43.626,-97.04c0,-0 -15.825,-28.665 -21.775,-64.335c-0,-0 -11.869,-38.624 -13.842,-55.452c-1.983,-16.838 -4.916,-97.03 -1.983,-102.031c2.943,-4.905 8.893,-22.735 22.788,-23.737c13.842,-0.992 27.726,1.002 27.726,1.002l12.839,-23.78c0,-0 0.971,-56.433 -1.973,-61.381c-2.932,-4.937 -33.687,-42.581 -38.592,-84.18c-4.959,-41.557 21.776,-102.959 40.565,-124.756c18.832,-21.775 56.476,-61.423 67.374,-95.067c10.877,-33.666 41.546,-65.327 71.287,-81.184c29.699,-15.835 107.939,-33.718 118.806,-37.643c10.877,-3.956 65.369,-23.812 89.117,-13.873c23.748,9.917 96.07,14.854 111.895,10.93c15.889,-4.01 58.437,-7.955 80.213,0.981c21.765,8.915 78.197,47.539 92.05,47.539l-0,-0.021c2.239,2.261 4.564,4.223 6.963,5.46c5.951,2.964 37.163,13.393 47.529,20.805c10.365,7.422 47.539,28.206 49,34.156c0.394,1.44 1.514,3.871 2.943,6.622c-1.632,2.442 -4.063,5.983 -9.363,9.246c-12.839,7.923 -28.728,27.693 -42.58,33.655c-13.842,5.907 -38.593,18.81 -46.526,21.775c-7.966,2.954 -42.581,3.946 -49.512,2.954c-6.921,-1.013 -24.751,-4.937 -29.742,-5.919c-4.905,-1.023 -15.782,-14.908 -27.683,-12.903c-11.922,2.016 -38.603,18.822 -44.564,20.816c-5.95,2.005 -19.802,12.882 -19.802,12.882c-0,-0 49.511,12.839 62.351,11.869c12.882,-0.971 78.24,2.975 86.174,3.988c7.923,0.981 25.721,8.936 35.617,13.841c9.938,4.938 16.902,-4.02 29.709,7.945c12.871,11.858 17.83,10.845 18.832,26.713c1.003,15.857 -7.891,30.648 -6.931,41.567c0.97,10.888 -8.894,69.315 -9.896,86.132c-1.003,16.87 -1.003,15.867 3.945,40.618c4.991,24.793 2.016,36.662 0,46.569c-1.972,9.864 -27.693,10.866 -35.659,19.781c-7.891,8.915 5.022,22.778 5.022,22.778c1.941,3.967 12.808,23.748 13.853,32.663c0.97,8.894 -0,17.809 1.972,24.751c1.973,6.921 7.838,20.794 0.971,24.782c0.021,-0.042 0.96,-4.063 -5.961,-17.861c-6.964,-13.863 -43.551,-62.362 -51.474,-69.304c-5.034,-4.33 -18.299,-10.675 -28.665,-16.028c4.447,0.32 9.864,0.714 16.753,1.173c15.857,1.045 18.875,-4.927 28.729,-16.817c9.949,-11.901 -14.844,-22.788 -20.763,-21.807c-5.961,1.034 -38.603,15.889 -50.514,23.769c-11.912,7.955 -30.701,0 -48.531,-1.002c-17.798,-0.96 -31.682,-11.88 -49.48,-22.767c-0,-0 -4.98,14.876 -0,25.742c2.709,6.036 5.183,9.288 8.67,11.368c-17.329,2.559 -31.64,15.356 -32.482,28.301c-0.971,14.791 4.98,42.549 6.952,56.39c2.016,13.906 -9.896,54.492 -11.868,73.303c-2.016,18.801 13.884,48.51 18.789,68.313c4.959,19.834 19.963,25.593 5.961,39.583c-20.805,20.806 -66.328,20.806 -44.553,38.657c21.775,17.808 63.396,29.666 70.306,27.726c6.921,-1.973 41.578,-8.926 48.51,-16.86c6.921,-7.934 17.787,-17.83 17.787,-34.657c0,-16.86 -44.521,-61.381 -49.469,-78.24c-4.948,-16.871 22.778,-32.642 23.791,-44.522c0.959,-11.9 -8.937,-19.781 -18.843,-35.659c-7.689,-12.296 -10.632,-41.845 -11.101,-59.131c14.044,-9.011 48.275,-24.612 54.193,-25.796c7.38,-1.503 24.484,-8.936 41.568,-8.126c17.104,0.704 51.218,31.906 49.778,27.428c-1.503,-4.447 -31.938,-27.428 -35.692,-32.642c-3.711,-5.225 -8.893,-2.997 -31.948,-0.757c-23.013,2.218 -49.736,17.072 -55.655,20.783c-4.713,2.944 -15.387,10.483 -22.244,14.62c-0,-2.857 0.085,-5.182 0.202,-6.686c1.003,-9.906 15.857,-26.734 27.726,-33.644c11.837,-6.963 36.63,-5.961 62.383,-2.986c25.764,2.986 31.683,15.836 47.582,30.691c15.761,14.865 39.531,57.392 39.563,57.456l-0.011,0c-6.921,3.924 -28.696,11.869 -28.696,11.869c-0,-0 -3.007,16.87 1.983,20.773c4.906,3.977 17.82,12.882 12.872,19.803c-4.991,6.92 -2.005,2.015 -16.86,7.933c-14.854,5.951 -37.6,8.947 -37.6,8.947c-0,0 -7.924,9.843 -3.018,11.816c4.958,2.037 28.707,12.924 31.757,10.909c2.943,-1.994 9.864,-17.809 23.716,-15.815c13.884,1.941 16.859,3.935 23.748,9.875c6.921,5.94 36.662,31.693 30.701,36.652c-5.918,4.947 -34.647,-2.954 -40.565,-2.954c-5.961,-0 -11.911,5.929 -12.882,14.844c-1.002,8.915 1.003,26.702 4.948,33.633c3.946,6.964 10.909,23.802 13.852,29.72c3.008,5.929 9.896,21.797 4.948,27.747c-4.948,5.951 -8.904,10.867 -13.809,14.855c-4.991,3.946 -14.929,43.53 -17.873,51.474c-2.975,7.934 -12.871,11.912 -12.871,11.912l4.948,16.795c0,-0 5.951,12.861 14.855,19.803c8.925,6.91 21.807,20.762 21.807,20.762c0,0 0.384,-0.992 1.088,-2.709c3.327,15.314 13.298,61.029 18.171,79.478c5.961,22.276 13.383,49.032 13.383,49.032c0,-0 102.49,72.801 109.922,74.23c5.023,1.045 105.817,42.357 171.954,68.846c138.81,-146.841 224.131,-344.856 224.131,-562.942c0,-452.773 -367.079,-819.895 -819.906,-819.895c-452.816,-0 -819.896,367.122 -819.896,819.895c0,207.507 77.27,396.885 204.404,541.358c54.46,-29.155 143.374,-75.371 150.135,-85.897" style="fill-rule:nonzero;"/><path d="M1249.85,1785.98c-2.186,0.725 -9,1.642 -18.203,2.612c4.927,-1.557 5.439,-2.612 -2.101,-2.612c-29.698,-0 -54.95,7.432 -54.95,-17.862c-0,-18.96 -11.73,-32.877 -14.428,-34.252l-0.011,-0c14.418,-0.064 50.909,-13.66 75.66,-23.119c6.537,11.719 12.903,23.641 15.505,32.13c5.993,19.301 7.433,40.106 -1.472,43.103m-245.128,11.879c-11.837,0 -28.153,-13.383 -38.56,-31.213c-5.716,-9.81 -15.943,-32.204 -23.994,-50.375c7.955,1.173 96.507,14.268 114.145,14.673c3.039,12.935 11.752,51.57 12.616,71.831c-24.175,1.131 -53.341,-4.916 -64.207,-4.916m539.225,-196.075l-65.401,-20.784l-65.284,-50.514l-69.816,-51.996l-20.847,29.719l-14.844,71.32c-0,-0 -35.628,2.943 -38.603,7.422c-2.933,4.404 -41.973,40.554 -50.109,48.648c-18.971,5.14 -34.348,6.366 -45.236,8.851c2.09,-2.911 4.201,-5.79 6.238,-8.499c8.936,-11.911 34.114,-31.213 40.053,-35.681c5.972,-4.458 68.366,-23.759 71.373,-28.174c2.047,-3.092 0.544,-49.458 -0.618,-77.792c6.185,-12.669 14.534,-30.029 17.403,-36.62c3.988,-8.882 15.846,-19.792 13.841,-24.708c-1.962,-4.99 -21.732,-13.884 -35.606,-26.755c-13.895,-12.892 -6.963,-4.937 -32.642,-27.704c-25.806,-22.81 -25.806,-23.77 -40.661,-35.681c-14.865,-11.848 -16.785,-11.848 -34.646,-23.781c-17.798,-11.858 -13.853,-14.79 -25.732,-15.793c-11.858,-1.002 -25.711,-10.909 -32.685,-15.868c-6.91,-4.948 -7.923,-8.925 -16.816,-6.942c-8.894,1.994 -9.896,0 -17.841,2.976c-7.912,2.964 -39.584,2.964 -45.556,6.91c-5.907,3.999 -19.792,18.832 -23.748,23.812c-3.988,4.905 -4.98,6.899 -16.859,15.814c-11.869,8.915 -17.83,11.901 -23.706,18.822c-5.95,6.921 -12.914,24.793 -12.914,28.707c0,3.967 -5.961,17.862 -5.961,17.862l15.868,-15.868c11.869,-11.89 8.883,-14.855 18.832,-23.78c9.853,-8.894 16.817,-4.948 31.661,-8.894c14.855,-3.977 19.813,-6.953 29.741,-15.825c9.875,-8.936 9.875,-11.933 16.796,-11.933c6.931,0 10.941,-4.905 23.791,1.003c12.881,5.982 10.866,3.007 26.712,11.9c15.868,8.894 23.791,12.882 32.685,12.882c8.947,0 4.959,28.739 1.973,30.68c-2.965,1.973 -14.855,6.91 -25.711,5.94c-10.962,-0.96 -13.884,-6.953 -20.847,0.97c-6.921,7.945 -10.867,17.841 -14.812,22.821c-3.978,4.948 -17.83,8.893 -22.789,11.858c-4.948,2.996 -10.866,10.877 -15.846,12.892c-4.948,1.973 -15.857,5.929 -18.811,7.891c-2.943,1.995 -14.844,7.934 -15.847,10.91c-1.002,2.953 2.965,15.846 2.965,15.846c5.929,-4.937 12.882,-23.791 27.726,-22.778c14.865,1.024 62.404,-8.894 77.259,-1.002c14.887,7.934 10.866,14.833 -0,18.843c-10.867,3.977 -25.796,-2.027 -38.635,1.93c-12.882,3.977 -22.789,14.886 -35.628,18.843c-12.914,3.935 -28.696,2.015 -30.722,13.873c-1.962,11.869 -15.846,11.869 -16.849,26.724c-0.981,14.854 -0.981,22.81 2.975,34.657c0.704,2.079 4.053,3.903 9.097,5.449l-13.586,7.902c-0,0 20.848,16.348 35.692,25.295c14.854,8.85 14.854,5.886 29.709,17.787c14.865,11.869 25.262,10.397 28.227,25.252c2.954,14.854 10.376,25.251 10.376,29.698c-0,4.458 7.411,13.373 11.911,11.88c4.127,-1.365 27.214,0.97 34.114,-5.791c-2.858,27.95 -16.103,60.187 4.926,60.603c-0.256,0.223 0.16,1.247 1.568,3.167c5.652,7.923 4.383,41.866 3.466,57.413c-10.76,0.864 -19.408,1.557 -23.269,1.952c-13.692,1.397 -36.086,2.73 -59.216,5.268c-3.668,-28.707 -11.485,-70.264 -26.958,-75.073c0,-0 0.277,1.13 0.715,2.986c-15.804,-4.564 -90.856,-19.088 -105.678,-32.674c-0.512,-0.469 -0.971,-0.789 -1.472,-1.237c8.2,-1.76 14.353,-3.231 14.353,-3.231c0,-0 -103.929,-75.766 -135.184,-121.77c-0,-0 71.287,129.202 81.738,130.663c3.817,0.544 12.274,-0.565 21.295,-2.154l4.372,7.209l51.368,177.179c9.288,0.895 18.64,1.525 28.003,2.175c5.492,-4.404 10.674,-8.072 13.735,-9.128c8.925,-2.975 62.415,-11.869 74.294,-16.358c11.912,-4.404 56.433,-10.408 75.735,-11.837c19.248,-1.504 65.39,-8.926 87.635,-8.926c22.276,0 35.659,0 54.961,-2.975c16.049,-2.463 28.931,-3.839 41.418,-4.255c107.597,-41.695 204.286,-105.23 284.35,-185.464l-43.551,-21.189l-59.408,-23.77Z" style="fill-rule:nonzero;"/><path d="M1066.64,186.286c486.279,-0 880.402,394.197 880.402,880.381c0,486.215 -394.123,880.37 -880.402,880.37c-486.162,-0 -880.349,-394.155 -880.349,-880.37c0,-486.184 394.187,-880.381 880.349,-880.381m0,1811.12c513.227,-0 930.767,-417.53 930.767,-930.735c0,-513.216 -417.54,-930.735 -930.767,-930.735c-513.195,-0 -930.714,417.519 -930.714,930.735c0,513.205 417.519,930.735 930.714,930.735" style="fill-rule:nonzero;"/></svg>