<svg width="100%" height="100%" viewBox="0 0 296 296" version="1.1" xmlns="http://www.w3.org/2000/svg" xmlns:xlink="http://www.w3.org/1999/xlink" xml:space="preserve" xmlns:serif="http://www.serif.com/" style="fill-rule:evenodd;clip-rule:evenodd;stroke-linejoin:round;stroke-miterlimit:2;"><g><rect x="0" y="0" width="295.833" height="295.833" style="fill:none;"/><path d="M147.918,54.43c-52.477,0 -95.169,42.692 -95.169,95.169c0,52.478 42.692,95.172 95.169,95.172c52.478,0 95.172,-42.694 95.172,-95.172c0,-52.477 -42.694,-95.169 -95.172,-95.169" style="fill:#fff;fill-rule:nonzero;"/><path d="M124.367,140.645c-0,-0 2.26,-1.337 1.854,-3.806c0,0 -0.925,3.394 -2.471,3.394c-1.543,0 -3.08,-0.305 -3.08,-0.305l3.697,0.717Z" style="fill-rule:nonzero;"/><path d="M138.561,135.296c-1.543,0 -3.294,-0.72 -4.94,-0.511c-1.64,0.206 -5.037,1.64 -5.551,2.157c-0.515,0.514 -1.443,0.926 -1.229,1.34c0.203,0.406 1.431,2.054 3.08,2.877c-0.926,-1.649 -0.926,-1.343 -1.228,-2.577c-0,-0 1.058,-1.179 2.642,-1.908c-0.259,0.406 -0.412,0.885 -0.412,1.396c0,1.449 1.173,2.628 2.625,2.628c1.451,-0 2.618,-1.179 2.618,-2.628c0,-0.687 -0.264,-1.299 -0.694,-1.766c1.687,0.335 2.537,1.049 3.501,1.766c1.231,0.929 4.008,0.212 4.008,0.212c0,-0 -2.877,-2.986 -4.42,-2.986" style="fill-rule:nonzero;"/><path d="M137.535,142.599c-1.857,0.514 -6.277,-0.103 -6.277,-0.103c2.572,1.643 3.706,1.026 4.529,1.129c0.82,0.108 3.394,-0.92 4.934,-2.055c1.54,-1.131 -1.748,-1.131 -1.748,-1.131c-0,0 0.408,1.643 -1.438,2.16" style="fill-rule:nonzero;"/><path d="M137.33,163.579c0.408,-1.34 1.437,-6.28 2.671,-7.512c1.237,-1.228 1.44,-2.671 1.44,-2.671c-0.517,-0.103 -1.237,0.309 -1.851,1.032c-0.617,0.717 -3.912,5.348 -4.732,5.962c-0.823,0.615 -2.263,1.952 -3.394,1.952c-1.131,-0 -2.163,1.648 -2.771,2.365c-0.623,0.72 -1.038,4.323 -2.269,5.76c-1.234,1.44 -1.749,5.04 -1.954,5.346c-0.209,0.311 3.6,-3.288 4.937,-4.626c1.334,-1.334 2.057,-2.468 3.494,-3.494c1.443,-1.034 4.014,-2.777 4.429,-4.114" style="fill-rule:nonzero;"/><path d="M105.136,150.722c-0.203,1.751 1.854,4.426 2.571,5.14c0.723,0.72 2.571,0.62 2.263,-1.023c-0.306,-1.646 0.411,-5.146 0.923,-5.969c0.52,-0.822 0.105,-2.877 -0.306,-3.391c-0,0 1.128,-2.571 -0.617,-3.397c-1.746,-0.82 -2.063,-3.394 -2.063,-3.394c-2.154,-0.106 -4.311,-1.952 -5.86,-2.363c-1.54,-0.409 -0.614,2.465 -0.309,4.114c0.309,1.643 -1.331,4.529 -0.408,5.966c0.926,1.437 1.96,8.125 2.783,10.077c0.82,1.951 1.534,4.323 2.357,3.7c0.829,-0.617 -1.537,-4.832 -2.357,-6.889c-0.823,-2.063 -0.723,-5.348 -1.137,-6.477c-0.409,-1.128 0.105,-3.294 0.514,-3.191c0.411,0.108 0.929,-1.952 0.72,-2.672c-0.203,-0.72 -0.203,-1.848 0.103,-1.954c0.311,-0.1 1.028,0.206 2.057,1.129c1.028,0.928 0.206,2.471 0.1,3.497c-0.1,1.031 -1.129,5.348 -1.334,7.097" style="fill-rule:nonzero;"/><path d="M132.901,187.844c1.446,-1.228 1.234,-1.951 1.851,-2.674c0.618,-0.717 0.212,-1.334 0.212,-1.334c0,-0 -1.649,1.851 -1.854,2.366c-0.209,0.517 -2.369,2.16 -2.777,3.394c-0.412,1.237 -1.855,1.337 -2.877,1.957c-1.032,0.614 -1.338,1.849 -0.515,2.977c0.823,1.137 5.754,2.677 6.066,2.677c-0,0 0.208,-1.131 0.208,-2.154c0,-1.034 -0.208,-0.829 -0.722,-1.651c-0.512,-0.826 -0.72,-1.749 -1.029,-2.781c-0.306,-1.025 -0,-1.539 1.437,-2.777" style="fill-rule:nonzero;"/><path d="M131.564,148.973c0.623,0.515 1.237,1.026 2.266,1.026c1.028,-0 4.631,-3.083 5.04,-4.111c0.458,-1.147 -2.369,1.542 -3.295,1.542c-0.922,0 -3.082,-0.408 -3.802,-0.408c-0.717,-0 -0.82,1.443 -0.209,1.951" style="fill-rule:nonzero;"/><path d="M111.31,159.982c0.103,-0.623 0.817,-1.449 0.103,-1.343c-0.726,0.109 -1.749,0.926 -1.749,0.926c0.614,0.417 1.543,1.031 1.646,0.417" style="fill-rule:nonzero;"/><path d="M142.775,161.83c0.515,0.209 2.06,-0.208 2.06,-0.208l-0.723,-0.515c-0.717,-0.517 -1.437,-0.617 -2.162,-0.514c-0,0 0.311,1.029 0.825,1.237" style="fill-rule:nonzero;"/><path d="M144.212,128.514c-0.82,-0.723 -2.057,-1.752 -3.288,-2.263c-1.234,-0.518 -5.246,-0.932 -6.58,-0.717c-1.337,0.199 -2.472,1.637 -3.391,2.257c-0.929,0.617 -1.652,1.131 -2.78,2.06c-1.129,0.919 -2.157,1.128 -2.88,2.462c-0.723,1.337 -1.543,2.88 -1.543,2.88c-0,0 2.063,-1.642 3.088,-2.362c1.029,-0.723 4.215,-2.157 5.757,-2.366c0.13,-0.018 0.262,-0.038 0.397,-0.062c-1.134,0.403 -2.301,0.938 -3.585,1.396c-2.88,1.029 -4.732,5.66 -4.732,5.66c0,0 2.781,-2.163 4.423,-3.703c1.44,-1.354 6.272,-3.191 7.817,-3.082c1.546,0.099 4.832,1.748 4.832,1.748c-0,0 -1.258,-1.243 -3.186,-2.034c1.443,0.471 3.389,1.105 3.389,1.105l2.985,-1.748l-0.723,-1.231Z" style="fill-rule:nonzero;"/><path d="M166.482,142.928c1.452,0 2.619,-1.169 2.619,-2.618c-0,-0.614 -0.218,-1.179 -0.576,-1.631c0.59,0.185 1.184,0.358 1.428,0.399c0.544,0.071 2.621,2.084 2.93,2.39c0.311,0.308 0.311,0.77 0.076,1.384c-0.226,0.62 -1.081,1.084 -1.692,1.543c-0.623,0.461 -3.398,0.62 -3.398,0.62c0,-0 2.008,0.308 2.775,0.308c0.773,0 1.857,-0.773 2.315,-1.161c0.465,-0.385 1.314,-0.925 2.166,-1.384c0.841,-0.464 -0.235,-1.31 -0.314,-1.854c-0.077,-0.535 -1.387,-1.998 -1.772,-1.925c-0.385,0.079 0.155,0.697 -0.465,0.697c-0.617,-0 -4.24,-2.625 -7.1,-2.316c-2.847,0.305 -5.704,2.539 -5.704,2.539c-1.005,0.47 -0.385,1.084 0.535,1.005c0.929,-0.076 0.929,-0.77 2.09,-1.693c0.473,-0.382 1.351,-0.62 2.218,-0.764c-0.464,0.473 -0.758,1.126 -0.758,1.843c0,1.449 1.181,2.618 2.627,2.618" style="fill-rule:nonzero;"/><path d="M99.584,196.996c0.923,-1.435 5.863,-6.786 5.863,-6.786c0,0 4.006,-4.831 4.934,-7.094c0.929,-2.263 5.452,-9.052 5.452,-9.052c-0,0 -1.746,-3.908 -2.366,-7.914c-0,0 -2.674,4.42 -5.037,2.569c-2.366,-1.855 -3.912,-3.392 -4.529,-10.08c0,-0 -1.645,-2.977 -2.263,-6.683c0,0 -1.231,-4.011 -1.437,-5.76c-0.205,-1.746 -0.511,-10.074 -0.205,-10.594c0.305,-0.512 0.922,-2.363 2.365,-2.466c1.437,-0.103 2.88,0.103 2.88,0.103l1.335,-2.469c-0,0 0.099,-5.862 -0.206,-6.377c-0.306,-0.511 -3.5,-4.42 -4.009,-8.74c-0.514,-4.317 2.263,-10.694 4.215,-12.959c1.954,-2.26 5.865,-6.378 6.997,-9.872c1.128,-3.497 4.314,-6.785 7.403,-8.431c3.085,-1.646 11.211,-3.503 12.339,-3.912c1.129,-0.408 6.789,-2.471 9.255,-1.44c2.468,1.032 9.977,1.543 11.622,1.135c1.649,-0.418 6.069,-0.826 8.332,0.103c2.26,0.925 8.12,4.937 9.56,4.937l-0,-0.003c0.232,0.235 0.473,0.441 0.723,0.567c0.617,0.309 3.858,1.39 4.934,2.163c1.078,0.77 4.937,2.927 5.09,3.547c0.041,0.147 0.158,0.4 0.305,0.685c-0.17,0.255 -0.423,0.623 -0.972,0.964c-1.332,0.82 -2.983,2.874 -4.423,3.494c-1.437,0.611 -4.006,1.954 -4.832,2.26c-0.825,0.308 -4.422,0.411 -5.142,0.308c-0.717,-0.105 -2.569,-0.514 -3.089,-0.614c-0.508,-0.109 -1.637,-1.549 -2.874,-1.343c-1.237,0.212 -4.012,1.957 -4.629,2.163c-0.617,0.209 -2.057,1.34 -2.057,1.34c0,0 5.143,1.331 6.477,1.231c1.337,-0.099 8.126,0.309 8.949,0.415c0.823,0.103 2.671,0.928 3.7,1.437c1.031,0.511 1.754,-0.417 3.085,0.826c1.337,1.231 1.852,1.125 1.958,2.774c0.102,1.646 -0.82,3.183 -0.72,4.317c0.099,1.131 -0.926,7.2 -1.029,8.946c-0.106,1.751 -0.106,1.648 0.408,4.217c0.521,2.574 0.212,3.808 0,4.837c-0.205,1.025 -2.877,1.128 -3.702,2.054c-0.82,0.926 0.523,2.366 0.523,2.366c0.2,0.411 1.328,2.468 1.437,3.394c0.1,0.923 -0,1.849 0.205,2.569c0.203,0.72 0.815,2.16 0.1,2.574c0.003,-0.003 0.1,-0.42 -0.62,-1.854c-0.723,-1.44 -4.522,-6.478 -5.345,-7.198c-0.523,-0.449 -1.902,-1.107 -2.977,-1.666c0.461,0.035 1.025,0.077 1.739,0.124c1.649,0.108 1.961,-0.512 2.983,-1.749c1.035,-1.234 -1.54,-2.366 -2.154,-2.266c-0.62,0.109 -4.011,1.652 -5.245,2.472c-1.238,0.826 -3.192,-0 -5.043,-0.106c-1.849,-0.1 -3.289,-1.234 -5.137,-2.366c-0,0 -0.518,1.546 -0,2.675c0.279,0.628 0.537,0.966 0.899,1.181c-1.799,0.267 -3.286,1.596 -3.374,2.939c-0.1,1.537 0.517,4.42 0.723,5.857c0.209,1.446 -1.028,5.66 -1.231,7.614c-0.212,1.951 1.44,5.037 1.948,7.094c0.517,2.06 2.075,2.657 0.62,4.112c-2.16,2.16 -6.888,2.16 -4.628,4.014c2.263,1.848 6.585,3.08 7.303,2.88c0.72,-0.206 4.32,-0.929 5.04,-1.752c0.717,-0.822 1.845,-1.851 1.845,-3.6c0,-1.748 -4.623,-6.374 -5.137,-8.125c-0.514,-1.752 2.366,-3.389 2.472,-4.623c0.1,-1.237 -0.929,-2.054 -1.958,-3.706c-0.799,-1.275 -1.105,-4.343 -1.152,-6.139c1.458,-0.937 5.014,-2.557 5.628,-2.68c0.767,-0.156 2.542,-0.929 4.317,-0.843c1.775,0.073 5.319,3.314 5.169,2.847c-0.155,-0.461 -3.317,-2.847 -3.705,-3.388c-0.388,-0.544 -0.926,-0.312 -3.318,-0.08c-2.392,0.23 -5.167,1.773 -5.781,2.158c-0.49,0.308 -1.598,1.09 -2.31,1.519c0,-0.297 0.006,-0.538 0.021,-0.694c0.103,-1.028 1.646,-2.777 2.88,-3.494c1.228,-0.723 3.803,-0.62 6.477,-0.311c2.677,0.311 3.291,1.645 4.943,3.188c1.637,1.543 4.105,5.96 4.108,5.969c-0.72,0.405 -2.982,1.231 -2.982,1.231c-0,0 -0.312,1.752 0.208,2.157c0.509,0.415 1.849,1.337 1.334,2.057c-0.517,0.72 -0.205,0.209 -1.751,0.823c-1.54,0.62 -3.903,0.932 -3.903,0.932c0,-0 -0.823,1.02 -0.314,1.225c0.514,0.212 2.983,1.343 3.297,1.132c0.306,-0.206 1.026,-1.849 2.466,-1.64c1.44,0.2 1.748,0.408 2.465,1.026c0.72,0.614 3.806,3.291 3.189,3.805c-0.614,0.514 -3.6,-0.305 -4.214,-0.305c-0.617,-0 -1.238,0.614 -1.337,1.539c-0.103,0.926 0.102,2.775 0.514,3.495c0.408,0.723 1.131,2.471 1.437,3.085c0.314,0.618 1.028,2.263 0.514,2.883c-0.514,0.617 -0.923,1.129 -1.434,1.543c-0.517,0.409 -1.552,4.52 -1.854,5.346c-0.312,0.823 -1.337,1.237 -1.337,1.237l0.511,1.743c-0,-0 0.62,1.337 1.546,2.057c0.925,0.717 2.263,2.157 2.263,2.157c-0,-0 0.041,-0.103 0.114,-0.282c0.344,1.59 1.381,6.339 1.887,8.255c0.617,2.313 1.39,5.093 1.39,5.093c-0,-0 10.644,7.561 11.417,7.708c0.52,0.109 10.988,4.399 17.859,7.15c14.415,-15.249 23.278,-35.815 23.278,-58.467c-0,-47.023 -38.125,-85.15 -85.154,-85.15c-47.032,-0 -85.157,38.127 -85.157,85.15c0,21.553 8.026,41.222 21.23,56.228c5.657,-3.03 14.891,-7.829 15.593,-8.922" style="fill-rule:nonzero;"/><path d="M166.944,224.306c-0.227,0.076 -0.935,0.17 -1.89,0.273c0.511,-0.162 0.564,-0.273 -0.217,-0.273c-3.086,-0 -5.707,0.772 -5.707,-1.855c-0,-1.969 -1.22,-3.415 -1.499,-3.559c1.496,-0.006 5.287,-1.416 7.855,-2.401c0.679,1.217 1.343,2.457 1.611,3.339c0.623,2.004 0.772,4.164 -0.153,4.476m-25.459,1.234c-1.228,-0 -2.924,-1.39 -4.002,-3.242c-0.597,-1.019 -1.658,-3.344 -2.492,-5.234c0.825,0.124 10.021,1.485 11.854,1.526c0.315,1.343 1.22,5.357 1.308,7.461c-2.509,0.118 -5.539,-0.511 -6.668,-0.511m56.004,-20.363l-6.791,-2.16l-6.783,-5.246l-7.25,-5.401l-2.166,3.086l-1.54,7.408c0,0 -3.7,0.306 -4.008,0.77c-0.306,0.459 -4.361,4.212 -5.205,5.055c-1.972,0.532 -3.567,0.661 -4.699,0.92c0.218,-0.303 0.435,-0.603 0.65,-0.885c0.925,-1.237 3.541,-3.241 4.158,-3.706c0.62,-0.464 7.1,-2.468 7.412,-2.927c0.211,-0.32 0.055,-5.134 -0.065,-8.078c0.644,-1.317 1.511,-3.118 1.807,-3.803c0.415,-0.923 1.649,-2.057 1.437,-2.566c-0.202,-0.52 -2.257,-1.442 -3.697,-2.78c-1.443,-1.337 -0.723,-0.511 -3.388,-2.877c-2.68,-2.368 -2.68,-2.468 -4.223,-3.705c-1.546,-1.232 -1.743,-1.232 -3.6,-2.469c-1.848,-1.231 -1.437,-1.537 -2.671,-1.64c-1.232,-0.106 -2.672,-1.134 -3.395,-1.648c-0.717,-0.515 -0.822,-0.929 -1.745,-0.723c-0.926,0.208 -1.029,-0 -1.855,0.308c-0.822,0.309 -4.111,0.309 -4.731,0.72c-0.614,0.414 -2.057,1.954 -2.466,2.472c-0.414,0.511 -0.517,0.717 -1.751,1.642c-1.234,0.926 -1.852,1.238 -2.463,1.955c-0.617,0.72 -1.34,2.574 -1.34,2.983c0,0.411 -0.62,1.854 -0.62,1.854l1.649,-1.649c1.231,-1.234 0.922,-1.543 1.954,-2.468c1.026,-0.926 1.749,-0.515 3.288,-0.926c1.543,-0.411 2.058,-0.72 3.089,-1.643c1.026,-0.928 1.026,-1.237 1.746,-1.237c0.72,-0 1.137,-0.511 2.471,0.103c1.337,0.62 1.129,0.311 2.774,1.237c1.646,0.923 2.472,1.337 3.395,1.337c0.928,0 0.514,2.983 0.205,3.186c-0.308,0.206 -1.542,0.717 -2.671,0.617c-1.137,-0.1 -1.443,-0.723 -2.166,0.1c-0.717,0.826 -1.128,1.854 -1.537,2.371c-0.414,0.515 -1.851,0.923 -2.368,1.232c-0.512,0.311 -1.129,1.128 -1.646,1.34c-0.511,0.203 -1.646,0.614 -1.954,0.817c-0.303,0.209 -1.54,0.826 -1.646,1.134c-0.103,0.306 0.308,1.646 0.308,1.646c0.618,-0.514 1.338,-2.472 2.88,-2.366c1.546,0.106 6.483,-0.923 8.026,-0.103c1.546,0.823 1.129,1.54 0,1.955c-1.128,0.414 -2.68,-0.209 -4.014,0.202c-1.337,0.412 -2.366,1.546 -3.7,1.958c-1.343,0.408 -2.98,0.208 -3.192,1.44c-0.202,1.231 -1.645,1.231 -1.748,2.777c-0.103,1.54 -0.103,2.365 0.308,3.597c0.074,0.217 0.421,0.405 0.944,0.567l-1.411,0.82c0,-0 2.166,1.699 3.709,2.627c1.543,0.92 1.543,0.611 3.083,1.846c1.545,1.234 2.624,1.081 2.933,2.624c0.308,1.543 1.078,2.621 1.078,3.086c0,0.461 0.77,1.387 1.237,1.231c0.429,-0.141 2.827,0.103 3.542,-0.599c-0.297,2.903 -1.673,6.25 0.514,6.294c-0.027,0.021 0.015,0.13 0.161,0.33c0.588,0.819 0.456,4.346 0.359,5.962c-1.117,0.088 -2.016,0.162 -2.416,0.203c-1.422,0.144 -3.747,0.282 -6.151,0.547c-0.379,-2.983 -1.193,-7.297 -2.797,-7.8c-0,0 0.026,0.121 0.073,0.312c-1.643,-0.473 -9.436,-1.984 -10.976,-3.395c-0.053,-0.047 -0.1,-0.082 -0.153,-0.126c0.852,-0.182 1.493,-0.338 1.493,-0.338c0,0 -10.797,-7.867 -14.041,-12.645c-0,-0 7.402,13.418 8.49,13.571c0.393,0.056 1.272,-0.059 2.21,-0.224l0.455,0.747l5.334,18.403c0.964,0.094 1.937,0.158 2.906,0.226c0.574,-0.459 1.111,-0.838 1.429,-0.949c0.928,-0.309 6.483,-1.232 7.717,-1.699c1.237,-0.458 5.86,-1.082 7.864,-1.228c1.998,-0.156 6.792,-0.929 9.101,-0.929c2.316,-0 3.706,-0 5.71,-0.309c1.667,-0.255 3.004,-0.396 4.3,-0.44c11.176,-4.332 21.218,-10.93 29.534,-19.264l-4.525,-2.201l-6.169,-2.466Z" style="fill-rule:nonzero;"/><path d="M147.918,58.162c50.503,0 91.437,40.943 91.437,91.437c-0,50.497 -40.934,91.434 -91.437,91.434c-50.494,0 -91.434,-40.937 -91.434,-91.434c0,-50.494 40.94,-91.437 91.434,-91.437m0,188.102c53.301,0 96.668,-43.364 96.668,-96.665c-0,-13.474 -2.771,-26.311 -7.773,-37.972c-14.785,-34.48 -49.066,-58.693 -88.895,-58.693c-53.3,0 -96.665,43.362 -96.665,96.665c0,53.301 43.365,96.665 96.665,96.665" style="fill-rule:nonzero;"/></g></svg>