<?xml version="1.0" encoding="UTF-8" standalone="no"?><!DOCTYPE svg PUBLIC "-//W3C//DTD SVG 1.1//EN" "http://www.w3.org/Graphics/SVG/1.1/DTD/svg11.dtd"><svg width="100%" height="100%" viewBox="0 0 512 512" version="1.1" xmlns="http://www.w3.org/2000/svg" xmlns:xlink="http://www.w3.org/1999/xlink" xml:space="preserve" xmlns:serif="http://www.serif.com/" style="fill-rule:evenodd;clip-rule:evenodd;stroke-linejoin:round;stroke-miterlimit:2;"><rect id="favicon" x="0" y="0" width="512" height="512" style="fill:none;"/><path d="M398.487,173.628c-0,-63.452 -53.434,-105.195 -155.287,-105.195l-121.339,-0c-5.563,-0 -8.348,1.67 -8.348,5.009c0,9.459 15.587,4.45 31.727,11.688c15.027,7.235 17.257,21.704 17.257,47.307l-0,247.126c-0,25.603 -2.23,40.631 -17.257,47.866c-15.587,7.233 -31.727,1.67 -31.727,11.135c0,3.338 2.785,5.003 8.348,5.003l139.146,0c5.567,0 8.352,-1.665 8.352,-5.003c-0,-10.578 -20.037,-2.784 -37.847,-11.135c-15.587,-7.235 -17.259,-22.263 -17.259,-47.866l0,-102.412c8.353,0.559 16.7,0.559 25.051,0.559c103.523,0 159.183,-39.519 159.183,-104.082Zm-55.106,0.554c0,65.676 -32.833,94.064 -105.749,94.064c-7.233,-0 -15.026,-0.559 -23.379,-1.113l0,-188.13l27.831,-0c69.577,-0 101.297,26.718 101.297,95.179Z" style="fill:#fff;fill-rule:nonzero;"/></svg>