<svg width="100%" height="100%" viewBox="0 0 4167 4167" version="1.1" xmlns="http://www.w3.org/2000/svg" xmlns:xlink="http://www.w3.org/1999/xlink" xml:space="preserve" xmlns:serif="http://www.serif.com/" style="fill-rule:evenodd;clip-rule:evenodd;stroke-linejoin:round;stroke-miterlimit:2;"><path d="M3266.08,2750.54c0.358,-0.716 1.074,-1.432 1.432,-2.506c0.358,-0.716 0.716,-1.431 1.074,-1.789c0.358,-0.716 0.716,-1.432 1.074,-2.148c0.358,-0.716 0.358,-1.432 0.716,-2.148c0.358,-0.716 0.358,-1.432 0.716,-2.148c0.358,-0.716 0.358,-1.432 0.715,-2.506c0,-0.715 0.358,-1.073 0.358,-1.789c0.358,-1.074 0.358,-2.148 0.358,-2.864c0,-0.358 0,-0.716 0.358,-1.432c0,-1.432 0.358,-2.864 0.358,-4.296l0,-1277.57c0,-1.432 0,-2.864 -0.358,-4.296c0,-0.358 0,-0.716 -0.358,-1.432c0,-1.074 -0.358,-2.148 -0.358,-2.864c0,-0.716 -0.358,-1.074 -0.358,-1.789c-0.357,-0.716 -0.357,-1.432 -0.715,-2.506c-0.358,-0.716 -0.358,-1.432 -0.716,-2.148c-0.358,-0.716 -0.358,-1.432 -0.716,-2.148c-0.358,-0.716 -0.716,-1.432 -1.074,-2.148c-0.358,-0.715 -0.716,-1.431 -1.074,-1.789c-0.358,-0.716 -1.074,-1.432 -1.432,-2.506c-0.358,-0.358 -0.358,-1.074 -0.716,-1.432c-0.716,-1.074 -1.79,-2.506 -2.506,-3.58c-0.358,-0.358 -0.358,-0.358 -0.716,-0.716c-0.715,-0.715 -1.431,-1.789 -2.147,-2.505c-0.716,-0.716 -1.074,-1.074 -1.79,-1.432c-0.358,-0.358 -1.074,-1.074 -1.432,-1.432c-0.716,-0.358 -1.432,-1.074 -2.148,-1.432c-0.358,-0.358 -1.074,-0.716 -1.432,-1.074c-0.716,-0.358 -1.432,-0.716 -2.147,-1.074c-0.716,-0.358 -1.074,-0.716 -1.79,-1.074c-0.716,-0.358 -1.432,-0.715 -1.79,-1.073c-0.716,-0.358 -1.432,-0.716 -2.148,-1.074c-0.716,-0.358 -1.074,-0.358 -1.79,-0.716c-0.716,-0.358 -1.79,-0.716 -2.505,-0.716c-0.358,-0 -1.074,-0.358 -1.432,-0.358c-0.716,-0.358 -1.79,-0.358 -2.506,-0.716c-0.716,-0 -1.074,-0.358 -1.79,-0.358c-0.716,-0 -1.79,-0.358 -2.506,-0.358l-2298.49,-0c-0.716,-0 -1.432,0.358 -2.506,0.358c-0.716,-0 -1.432,-0 -1.79,0.358c-0.716,-0 -1.789,0.358 -2.505,0.716c-0.716,-0 -1.074,0.358 -1.79,0.358c-0.716,0.358 -1.432,0.716 -2.506,0.716c-0.716,0.358 -1.074,0.358 -1.79,0.716c-0.716,0.358 -1.432,0.716 -2.148,1.074c-0.715,0.358 -1.431,0.715 -1.789,1.073c-0.716,0.358 -1.074,0.716 -1.79,1.074c-0.716,0.358 -1.432,0.716 -2.148,1.074c-0.358,0.358 -1.074,0.716 -1.432,1.074c-0.716,0.358 -1.432,1.074 -2.148,1.432c-0.716,0.358 -1.074,1.074 -1.431,1.432c-0.716,0.358 -1.074,1.074 -1.79,1.432c-0.716,0.716 -1.79,1.79 -2.506,2.863c-0,0.358 -0.358,0.358 -0.358,0.358c-1.074,1.074 -1.79,2.506 -2.506,3.58c-0.358,0.358 -0.358,0.716 -0.716,1.074c-0.716,0.716 -1.074,1.79 -1.432,2.506c-0.358,0.716 -0.715,1.074 -0.715,1.789c-0.358,0.716 -0.716,1.432 -1.074,2.148c-0.358,0.716 -0.358,1.432 -0.716,2.148c-0.358,0.716 -0.358,1.432 -0.716,2.148c-0.358,0.716 -0.358,1.432 -0.716,2.506c-0,0.716 -0.358,1.431 -0.358,1.789c-0.358,1.074 -0.358,2.148 -0.358,2.864c-0,0.358 -0,0.716 -0.358,1.432c-0,1.432 -0.358,2.864 -0.358,4.296l-0,1277.58c-0,1.431 -0,2.863 0.358,4.295c-0,0.358 -0,0.716 0.358,1.432c-0,1.074 0.358,2.148 0.358,2.864c-0,0.716 0.358,1.432 0.358,1.789c0.358,0.716 0.358,1.432 0.716,2.506c0.358,0.716 0.358,1.432 0.716,2.148c0.358,0.716 0.358,1.432 0.716,2.148c0.358,0.716 0.716,1.432 1.074,2.148c0.357,0.716 0.357,1.073 0.715,1.789c0.358,1.074 1.074,1.79 1.432,2.506c0.358,0.358 0.358,0.716 0.716,1.074c0.716,1.074 1.79,2.506 2.506,3.58l0.358,0.358c1.074,1.074 1.79,2.147 2.864,3.221c0.358,0.358 1.074,0.716 1.432,1.074c0.715,0.716 1.431,1.074 2.147,1.79c0.716,0.358 1.074,0.716 1.79,1.432c0.716,0.358 1.432,1.074 2.148,1.432c0.716,0.358 1.074,0.716 1.79,1.074c0.716,0.358 1.432,0.716 2.505,1.432c0.716,0.357 1.074,0.715 1.79,0.715c1.074,0.358 1.79,0.716 2.864,1.074c0.358,0.358 1.074,0.358 1.432,0.716c1.074,0.358 2.148,0.716 3.222,1.074c0.358,0 0.715,0.358 1.073,0.358c1.432,0.358 2.506,0.358 3.938,0.716l0.716,0c1.432,0 2.864,0.358 4.654,0.358l2289.54,0c1.432,0 3.222,0 4.653,-0.358l0.716,0c1.432,0 2.506,-0.358 3.938,-0.716c0.358,0 0.716,-0.358 1.074,-0.358c1.074,-0.358 2.148,-0.716 3.221,-1.074c0.358,0 1.074,-0.358 1.432,-0.716c1.074,-0.358 1.79,-0.716 2.864,-1.074c0.716,-0.358 1.074,-0.715 1.79,-0.715c0.716,-0.358 1.432,-0.716 2.506,-1.074c0.716,-0.358 1.074,-0.716 1.789,-1.074c0.716,-0.358 1.432,-1.074 2.148,-1.432c0.716,-0.358 1.074,-0.716 1.79,-1.432c0.716,-0.716 1.432,-1.074 2.148,-1.79c0.358,-0.358 1.074,-0.716 1.432,-1.432c1.074,-1.074 1.79,-2.147 2.863,-3.221l0.358,-0.358c1.074,-1.074 1.79,-2.148 2.506,-3.58c0.358,0.358 0.716,-0.358 0.716,-0.716Zm-2282.74,-1205.98l656.865,543.748l-656.865,543.39l0,-1087.14Zm1445.1,508.667l-345.077,285.656l-345.078,-285.656l-675.479,-559.14l2041.11,0l-675.479,559.14Zm-718.076,93.071l344.719,285.298c8.234,6.801 18.257,10.381 28.638,10.381c10.381,-0 20.404,-3.58 28.637,-10.381l344.72,-285.298l647.557,535.873l-2041.83,-0l647.558,-535.873Zm816.159,-57.99l656.864,-543.748l0,1087.14l-656.864,-543.39Z" style="fill-rule:nonzero;"/></svg>