<?xml version="1.0" encoding="UTF-8" standalone="no"?><!DOCTYPE svg PUBLIC "-//W3C//DTD SVG 1.1//EN" "http://www.w3.org/Graphics/SVG/1.1/DTD/svg11.dtd"><svg width="100%" height="100%" viewBox="0 0 417 417" version="1.1" xmlns="http://www.w3.org/2000/svg" xmlns:xlink="http://www.w3.org/1999/xlink" xml:space="preserve" xmlns:serif="http://www.serif.com/" style="fill-rule:evenodd;clip-rule:evenodd;stroke-linejoin:round;stroke-miterlimit:2;"><path d="M297.071,166.783c-3.434,-0.291 -6.442,2.321 -6.7,5.763c-0.088,1.167 -0.15,2.371 -0.221,3.562c-7.675,0.534 -12.463,2.009 -16.742,3.363c-3.6,1.133 -6.85,2.154 -11.812,2.562c-2.617,-6.862 -9.221,-11.779 -16.992,-11.779c-8.629,0 -15.837,6.038 -17.717,14.104c-9.812,4.667 -22.575,4.663 -32.395,0c-1.884,-8.066 -9.088,-14.104 -17.717,-14.104c-7.771,0 -14.371,4.908 -16.992,11.767c-4.958,-0.413 -8.225,-1.417 -11.816,-2.55c-4.275,-1.35 -9.063,-2.829 -16.734,-3.359c-0.071,-1.195 -0.129,-2.399 -0.221,-3.566c-0.262,-3.438 -3.262,-6.008 -6.704,-5.763c-3.441,0.263 -6.021,3.263 -5.758,6.704c0.15,1.967 0.258,3.967 0.367,5.992c0.658,12.171 1.529,27.471 12.77,38.325c0.971,7.825 6.271,52.392 6.271,94.446c0,3.45 2.796,6.25 6.25,6.25c3.455,0 6.25,-2.8 6.25,-6.25c0,-2.321 -0.02,-4.646 -0.05,-6.975c2.538,0.429 4.959,1.029 7.438,1.671c3.187,0.829 6.471,1.65 10.1,2.1c2.467,7.146 9.187,12.329 17.162,12.329c6.746,0 12.584,-3.729 15.734,-9.188c3.175,1.196 6.495,1.871 9.841,1.871c3.355,0 6.704,-0.608 9.888,-1.804c3.166,5.425 8.975,9.117 15.7,9.117c7.975,-0 14.696,-5.184 17.162,-12.329c3.621,-0.446 6.909,-1.271 10.096,-2.1c2.483,-0.642 4.904,-1.25 7.442,-1.675c-0.025,2.333 -0.05,4.658 -0.05,6.979c-0,3.45 2.8,6.25 6.25,6.25c3.454,-0 6.25,-2.8 6.25,-6.25c-0,-42.021 5.296,-86.6 6.267,-94.438c11.245,-10.862 12.116,-26.162 12.775,-38.333c0.108,-2.021 0.22,-4.025 0.366,-5.992c0.263,-3.433 -2.316,-6.437 -5.758,-6.7Zm-52.467,15.971c3.159,0 5.729,2.571 5.729,5.729c0,3.159 -2.57,5.729 -5.729,5.729c-3.162,0 -5.729,-2.57 -5.729,-5.729c0,-3.158 2.567,-5.729 5.729,-5.729Zm-67.829,0c3.158,0 5.729,2.571 5.729,5.729c0,3.159 -2.571,5.729 -5.729,5.729c-3.158,0 -5.729,-2.57 -5.729,-5.729c-0,-3.158 2.571,-5.729 5.729,-5.729Zm8.333,126.125c-3.158,0 -5.729,-2.571 -5.729,-5.729c0,-3.158 2.571,-5.729 5.729,-5.729c3.159,-0 5.73,2.571 5.73,5.729c-0,3.158 -2.567,5.729 -5.73,5.729Zm51.163,0c-3.163,0 -5.729,-2.571 -5.729,-5.729c-0,-3.158 2.566,-5.729 5.729,-5.729c3.158,-0 5.729,2.571 5.729,5.729c0,3.158 -2.571,5.729 -5.729,5.729Zm35.004,-16.258c-4.067,0.5 -7.646,1.392 -10.892,2.233c-2.52,0.654 -4.841,1.229 -7.195,1.608c-2.68,-6.741 -9.238,-11.541 -16.921,-11.541c-8.817,-0 -16.188,6.291 -17.863,14.616c-4.8,2.68 -10.637,2.68 -15.437,0.005c-1.679,-8.329 -9.046,-14.621 -17.863,-14.621c-7.687,-0 -14.241,4.796 -16.921,11.541c-2.358,-0.375 -4.679,-0.954 -7.2,-1.608c-3.245,-0.841 -6.825,-1.729 -10.887,-2.233c-0.492,-14.775 -1.442,-29.084 -2.458,-41.342c1.858,0.267 3.745,0.608 5.762,0.975c4.258,0.784 8.979,1.633 14.592,1.983c2.516,7.055 9.2,12.15 17.108,12.15c6.758,0 12.6,-3.737 15.75,-9.216c3.171,1.204 6.483,1.9 9.825,1.9c3.354,-0 6.704,-0.608 9.888,-1.804c3.166,5.425 8.975,9.116 15.7,9.116c7.929,0 14.625,-5.12 17.12,-12.212c5.584,-0.342 10.342,-1.142 14.575,-1.921c2.017,-0.371 3.909,-0.708 5.767,-0.975c-1.008,12.258 -1.954,26.567 -2.45,41.346Zm-91.896,-44.463c0,-3.158 2.571,-5.729 5.729,-5.729c3.159,0 5.73,2.571 5.73,5.729c-0,3.159 -2.571,5.729 -5.73,5.729c-3.158,0 -5.729,-2.575 -5.729,-5.729Zm51.163,0c-0,-3.158 2.566,-5.729 5.729,-5.729c3.158,0 5.729,2.571 5.729,5.729c0,3.159 -2.571,5.729 -5.729,5.729c-3.163,0 -5.729,-2.575 -5.729,-5.729Zm35.179,-31.562c-3.346,0.862 -5.354,4.266 -4.496,7.612c0.725,2.821 3.262,4.692 6.05,4.692c0.512,-0 1.037,-0.063 1.558,-0.196c2.667,-0.687 5.042,-1.521 7.296,-2.421c-0.379,3.45 -0.804,7.584 -1.258,12.263c-3.113,0.329 -6.1,0.846 -9.167,1.412c-3.854,0.709 -7.879,1.388 -12.454,1.704c-2.625,-6.845 -9.225,-11.737 -16.979,-11.737c-8.817,-0 -16.188,6.292 -17.863,14.617c-4.8,2.679 -10.637,2.683 -15.437,0.004c-1.679,-8.325 -9.046,-14.621 -17.863,-14.621c-7.783,-0 -14.387,4.925 -17,11.8c-4.591,-0.329 -8.571,-1.054 -12.441,-1.767c-3.067,-0.566 -6.05,-1.083 -9.159,-1.416c-0.446,-4.65 -0.879,-8.825 -1.254,-12.259c2.254,0.9 4.629,1.734 7.296,2.421c0.521,0.133 1.046,0.196 1.562,0.196c2.784,-0 5.325,-1.871 6.05,-4.692c0.863,-3.346 -1.154,-6.75 -4.495,-7.612c-18.042,-4.638 -22.142,-15.075 -23.538,-27.867c5.167,0.504 8.575,1.554 12.079,2.663c4.225,1.333 8.613,2.691 15.463,3.162c2.512,7.058 9.2,12.163 17.112,12.163c6.925,-0 12.884,-3.921 15.971,-9.625c5.663,2.154 11.767,3.337 17.942,3.337c6.171,0 12.316,-1.129 17.979,-3.262c3.1,5.658 9.042,9.55 15.933,9.55c7.917,-0 14.6,-5.109 17.113,-12.175c6.846,-0.463 11.237,-1.817 15.454,-3.146c3.517,-1.113 6.917,-2.171 12.092,-2.679c-1.4,12.795 -5.5,23.237 -23.546,27.879Zm-161.267,-2.638c1.183,-8.421 -0.992,-15.496 -2.912,-21.737c-1.221,-3.979 -2.38,-7.734 -2.592,-11.513c-1.163,-20.854 9.283,-37.512 28.658,-45.704c2.65,-1.121 6.838,-2.512 11.688,-4.121c11.758,-3.908 26.391,-8.766 36.554,-15.266c2.908,-1.859 3.758,-5.725 1.9,-8.634c-1.858,-2.904 -5.729,-3.762 -8.633,-1.896c-8.85,5.659 -23.25,10.442 -33.763,13.934c-5.104,1.696 -9.512,3.162 -12.617,4.471c-24.166,10.216 -37.729,31.866 -36.275,57.916c0.296,5.296 1.734,9.967 3.125,14.488c1.759,5.716 3.28,10.658 2.484,16.329c-5.717,40.75 7.987,76.454 8.575,77.95c0.962,2.471 3.325,3.975 5.821,3.975c0.758,-0 1.525,-0.138 2.27,-0.429c3.217,-1.259 4.805,-4.884 3.546,-8.096c-0.121,-0.338 -13.096,-34.121 -7.829,-71.667Zm194.179,-90.466c-3.104,-1.309 -7.512,-2.775 -12.612,-4.471c-10.513,-3.492 -24.913,-8.271 -33.767,-13.934c-2.904,-1.862 -6.771,-1.008 -8.633,1.896c-1.854,2.909 -1.008,6.775 1.9,8.634c10.158,6.504 24.8,11.362 36.558,15.266c4.85,1.613 9.042,3.004 11.688,4.121c19.375,8.192 29.825,24.854 28.658,45.704c-0.212,3.775 -1.367,7.534 -2.592,11.513c-1.912,6.241 -4.087,13.312 -2.904,21.737c5.242,37.413 -7.716,71.334 -7.846,71.671c-1.254,3.213 0.338,6.842 3.555,8.088c0.745,0.291 1.512,0.433 2.27,0.433c2.496,-0 4.855,-1.508 5.817,-3.975c0.588,-1.496 14.296,-37.2 8.583,-77.95c-0.796,-5.671 0.721,-10.613 2.479,-16.333c1.388,-4.517 2.83,-9.188 3.121,-14.484c1.455,-26.046 -12.104,-47.696 -36.275,-57.916Z" style="fill-rule:nonzero;"/></svg>