<svg width="100%" height="100%" viewBox="0 0 417 417" version="1.1" xmlns="http://www.w3.org/2000/svg" xmlns:xlink="http://www.w3.org/1999/xlink" xml:space="preserve" xmlns:serif="http://www.serif.com/" style="fill-rule:evenodd;clip-rule:evenodd;stroke-linejoin:round;stroke-miterlimit:2;"><path d="M249.261,288.97c-11.461,0 -29.073,-5.827 -47.112,-15.583c-5.846,-3.166 -20.014,-12.87 -31.865,-23.656c-12.677,-11.532 -23.943,-25.196 -27.892,-31.208c-11.851,-18.033 -18.926,-35.302 -18.926,-46.19c0,-19.304 28.928,-41.348 32.228,-43.797c1.814,-1.346 4.364,-1.039 5.806,0.696l30.959,37.24c1.476,1.777 1.264,4.404 -0.474,5.924c-9.181,8.018 -17.439,16.968 -18.267,19.772c0.654,3.062 10.082,14.638 23.364,27.175c0.15,0.098 0.289,0.204 0.423,0.319c13.716,11.999 26.648,20.618 30.038,21.112c2.721,-1.173 10.919,-10.41 17.827,-20.116c1.338,-1.885 3.933,-2.354 5.848,-1.059l40.119,27.131c1.87,1.264 2.429,3.773 1.266,5.706c-2.113,3.526 -21.188,34.492 -40.399,36.393c-0.928,0.094 -1.92,0.141 -2.943,0.141Zm-91.664,-151.129c-9.29,7.551 -25.625,23.179 -25.625,34.492c-0,9.018 6.881,25.316 17.53,41.521c3.705,5.642 14.378,18.552 26.508,29.588c11.735,10.68 25.451,19.9 30.187,22.461c16.6,8.981 33.102,14.562 43.064,14.562c0.743,-0 1.449,-0.034 2.101,-0.099c11.255,-1.115 25.191,-18.912 31.79,-28.899l-33.292,-22.515c-7.109,9.62 -15.845,19.76 -21.422,20.31c-0.236,0.026 -0.477,0.038 -0.729,0.038c-8.529,-0 -29.994,-18.183 -35.345,-22.835c-0.233,-0.141 -0.45,-0.309 -0.647,-0.492c-6.223,-5.844 -26.525,-25.562 -26.525,-33.902c0,-5.604 9.225,-15.303 18.094,-23.328l-25.689,-30.902Z" style="fill-rule:nonzero;"/></svg>