<?xml version="1.0" encoding="UTF-8" standalone="no"?><!DOCTYPE svg PUBLIC "-//W3C//DTD SVG 1.1//EN" "http://www.w3.org/Graphics/SVG/1.1/DTD/svg11.dtd"><svg width="100%" height="100%" viewBox="0 0 417 417" version="1.1" xmlns="http://www.w3.org/2000/svg" xmlns:xlink="http://www.w3.org/1999/xlink" xml:space="preserve" xmlns:serif="http://www.serif.com/" style="fill-rule:evenodd;clip-rule:evenodd;stroke-linejoin:round;stroke-miterlimit:2;"><path d="M170.833,117.5c0.834,0 1.667,0 2.084,-0.417c2.5,-0.833 5,-1.666 7.5,-2.5c3.333,-0.833 5,-4.583 4.166,-7.916c-0.833,-3.334 -4.583,-5.417 -7.916,-4.167c-2.917,0.833 -5.834,1.667 -8.334,2.917c-3.333,1.25 -5,5 -3.75,7.916c1.25,2.5 3.75,4.167 6.25,4.167Z" style="fill-rule:nonzero;"/><path d="M142.083,134.167c1.25,-0 2.917,-0.417 4.167,-1.25c2.083,-1.667 4.167,-3.334 6.25,-4.584c2.917,-2.083 3.333,-5.833 1.667,-8.75c-2.084,-2.916 -5.834,-3.333 -8.75,-1.666c-2.5,1.666 -4.584,3.333 -7.084,5.416c-2.916,1.667 -3.333,5.834 -0.833,8.334c1.25,1.666 2.917,2.5 4.583,2.5Z" style="fill-rule:nonzero;"/><path d="M286.25,130.417c-22.083,-22.084 -52.083,-33.75 -83.333,-32.084c-3.334,0 -6.25,2.917 -5.834,6.667c0,3.333 2.917,6.25 6.667,5.833c27.5,-1.25 54.167,9.167 73.75,28.75c18.333,18.334 28.75,42.917 28.75,69.167c0,26.25 -10,50.833 -28.75,69.167c-18.333,18.333 -42.917,28.75 -69.167,28.75c-26.25,-0 -50.833,-10 -69.166,-28.75c-18.334,-18.334 -28.75,-42.917 -28.75,-69.167c-0,-21.25 6.666,-41.667 19.583,-58.75c2.083,-2.917 1.667,-6.667 -1.25,-8.75c-2.917,-2.083 -6.667,-1.667 -8.75,1.25c-14.583,19.167 -22.083,42.083 -22.083,66.25c-0,29.583 11.666,57.083 32.5,77.917c20.833,20.833 48.75,32.5 77.916,32.5c29.584,-0 57.084,-11.667 77.917,-32.5c20.833,-20.834 32.5,-48.75 32.5,-77.917c0,-30 -11.667,-57.5 -32.5,-78.333Z" style="fill-rule:nonzero;"/><path d="M239.583,245.833c-1.666,0 -3.333,-0.416 -4.583,-1.666l-31.25,-31.25c-1.25,-1.25 -1.667,-2.917 -1.667,-4.584l0,-72.916c0,-3.334 2.917,-6.25 6.25,-6.25c3.334,-0 6.25,2.916 6.25,6.25l0,70.416l29.584,29.584c2.5,2.5 2.5,6.25 -0,8.75c-1.25,1.25 -2.917,1.666 -4.584,1.666Z" style="fill-rule:nonzero;"/><path d="M218.75,287.5l-20.833,0c-3.334,0 -6.25,-2.917 -6.25,-6.25c-0,-3.333 2.916,-6.25 6.25,-6.25l20.833,0c3.333,0 6.25,2.917 6.25,6.25c0,3.333 -2.917,6.25 -6.25,6.25Z" style="fill-rule:nonzero;"/></svg>