<?xml version="1.0" encoding="UTF-8" standalone="no"?><!DOCTYPE svg PUBLIC "-//W3C//DTD SVG 1.1//EN" "http://www.w3.org/Graphics/SVG/1.1/DTD/svg11.dtd"><svg width="100%" height="100%" viewBox="0 0 1700 1700" version="1.1" xmlns="http://www.w3.org/2000/svg" xmlns:xlink="http://www.w3.org/1999/xlink" xml:space="preserve" xmlns:serif="http://www.serif.com/" style="fill-rule:evenodd;clip-rule:evenodd;stroke-linejoin:round;stroke-miterlimit:2;"><g><path d="M376.461,344.26l450.823,-0c9.908,-0 17.339,2.477 22.294,9.908l470.639,470.639c44.587,42.11 44.587,113.944 -0,158.531l-336.879,336.879c-44.587,44.587 -116.421,44.587 -158.531,-0l-470.639,-470.639c-7.431,-4.955 -9.908,-12.386 -9.908,-22.294l-0,-450.823c-0,-19.816 14.862,-32.201 32.201,-32.201Zm577.153,753.022c-9.909,12.386 -32.202,12.386 -42.11,0c-12.385,-12.385 -12.385,-32.201 -0,-44.586l141.192,-141.192c12.385,-12.385 32.201,-12.385 44.586,-0c12.386,9.908 12.386,32.201 0,42.11l-143.668,143.668Zm-79.266,-79.265c-12.385,12.385 -32.202,12.385 -44.587,-0c-12.385,-12.385 -12.385,-32.202 0,-44.587l143.669,-143.669c12.385,-12.385 32.202,-12.385 44.587,0c12.385,12.385 12.385,32.202 -0,44.587l-143.669,143.669Zm-307.154,-450.823c42.11,-42.11 111.467,-42.11 153.577,0c44.587,42.11 44.587,111.467 0,153.577c-42.11,44.587 -111.467,44.587 -153.577,0c-42.11,-42.11 -42.11,-111.467 0,-153.577Zm44.587,44.587c-17.339,17.339 -17.339,47.064 0,64.403c17.339,19.817 47.064,19.817 64.403,0c19.817,-17.339 19.817,-47.064 0,-64.403c-17.339,-17.339 -47.064,-17.339 -64.403,0Zm203.118,-205.595l-408.713,0l0,408.713l463.208,463.208c19.816,17.339 49.541,17.339 69.357,-0l339.356,-339.356c17.339,-19.816 17.339,-49.541 -0,-69.357l-463.208,-463.208Z" style="fill-rule:nonzero;"/></g></svg>