<svg width="100%" height="100%" viewBox="0 0 417 417" version="1.1" xmlns="http://www.w3.org/2000/svg" xmlns:xlink="http://www.w3.org/1999/xlink" xml:space="preserve" xmlns:serif="http://www.serif.com/" style="fill-rule:evenodd;clip-rule:evenodd;stroke-linejoin:round;stroke-miterlimit:2;"><path d="M183.333,183.333c0,-2.5 1.667,-4.166 4.167,-4.166l58.333,-0c2.5,-0 4.167,1.666 4.167,4.166c0,2.5 -1.667,4.167 -4.167,4.167l-58.333,0c-2.5,0 -4.167,-1.667 -4.167,-4.167Zm-12.5,4.167c2.5,0 4.167,-1.667 4.167,-4.167c0,-2.5 -1.667,-4.166 -4.167,-4.166c-2.5,-0 -4.166,1.666 -4.166,4.166c-0,2.5 1.666,4.167 4.166,4.167Zm16.667,25l58.333,0c2.5,0 4.167,-1.667 4.167,-4.167c0,-2.5 -1.667,-4.166 -4.167,-4.166l-58.333,-0c-2.5,-0 -4.167,1.666 -4.167,4.166c0,2.5 1.667,4.167 4.167,4.167Zm-16.667,0c2.5,0 4.167,-1.667 4.167,-4.167c0,-2.5 -1.667,-4.166 -4.167,-4.166c-2.5,-0 -4.166,1.666 -4.166,4.166c-0,2.5 1.666,4.167 4.166,4.167Zm16.667,25l58.333,0c2.5,0 4.167,-1.667 4.167,-4.167c0,-2.5 -1.667,-4.166 -4.167,-4.166l-58.333,-0c-2.5,-0 -4.167,1.666 -4.167,4.166c0,2.5 1.667,4.167 4.167,4.167Zm-16.667,0c2.5,0 4.167,-1.667 4.167,-4.167c0,-2.5 -1.667,-4.166 -4.167,-4.166c-2.5,-0 -4.166,1.666 -4.166,4.166c-0,2.5 1.666,4.167 4.166,4.167Zm37.5,-108.333c4.584,-0 8.334,-3.75 8.334,-8.334c-0,-4.583 -3.75,-8.333 -8.334,-8.333c-4.583,0 -8.333,3.75 -8.333,8.333c0,4.584 3.75,8.334 8.333,8.334Zm79.167,-8.334l0,175c0,2.5 -1.667,4.167 -4.167,4.167l-150,0c-2.287,0 -4.166,-1.937 -4.166,-4.167l-0,-175c-0,-2.5 1.666,-4.166 4.166,-4.166l50,-0c2.084,-11.667 12.084,-20.834 24.584,-20.834c12.5,0 22.5,9.167 24.583,20.834l50.833,-0c2.5,-0 4.167,1.666 4.167,4.166Zm-112.5,4.167l0,16.667l66.667,-0l-0,-16.667l-16.667,0l0,-4.167c0,-9.166 -7.5,-16.666 -16.667,-16.666c-9.166,-0 -16.666,7.5 -16.666,16.666l-0,4.167l-16.667,0Zm-20.833,25l-0,116.667l108.333,-0l0,-116.667l-108.333,0Zm125,-25l-29.167,0l0,16.667l20.833,-0l0,133.333l-125,0l0,-133.333l20.834,-0l-0,-16.667l-29.167,0l-0,166.667l141.667,-0l-0,-166.667Z" style="fill-rule:nonzero;"/></svg>