<?xml version="1.0" encoding="UTF-8" standalone="no"?><!DOCTYPE svg PUBLIC "-//W3C//DTD SVG 1.1//EN" "http://www.w3.org/Graphics/SVG/1.1/DTD/svg11.dtd"><svg width="574" height="173" viewBox="0 0 574 173" version="1.1" xmlns="http://www.w3.org/2000/svg" xmlns:xlink="http://www.w3.org/1999/xlink" xml:space="preserve" xmlns:serif="http://www.serif.com/" style="fill-rule:evenodd;clip-rule:evenodd;stroke-linejoin:round;stroke-miterlimit:1.41421;"><path d="M84.133,15.827l1.666,0l0,33.32l1.666,0l0,10.829l7.497,0l0,106.624l2.499,0l0,-80.801l3.332,0l9.996,19.159l8.33,0l0,14.161l5.831,0l0.833,-20.825l0.833,20.825l9.996,0l0,47.481l1.666,0l0,-18.326l7.497,0l0,-49.147l2.499,0l0,-3.332l2.499,0l0,-3.332l4.998,0l0.833,-19.992l0.833,19.992l4.998,0l0,3.332l3.332,0l0,3.332l1.666,0l0,67.473l2.499,0l0,-32.487l21.658,0l0,37.933l-191.59,0l0,-31.269l21.658,-6.664l0,27.489l2.499,0l0,-51.646l10.829,-4.998l1.666,-10.829l9.163,-4.998l0,77.469l2.499,0l0,-84.133l3.332,0l0,-1.666l-3.332,0l0,-6.664l22.491,0l0,6.664l-3.332,0l0,1.666l3.332,0l0,54.145l2.499,0l0,-76.636l6.664,0l0,-10.829l1.666,0l0,-33.32l1.666,0l0,-15.827l0.833,0l0,15.827Zm124.26,114.088l3.52,0l0,9.531l4.526,0l0,32.6l-18.103,0l0,-32.6l4.526,0l0,-9.531l4.023,0l0.503,-23.076l0.502,0l0.503,23.076Zm21.624,42.131l-1.509,0l0,-3.003l-2.514,0l0,3.003l-6.035,0l0,-27.583l10.058,0l0,27.583Zm3.017,0l0,-44.639l14.583,-8.027l0,47.155l3.52,0l0,-56.686l14.583,7.023l0,55.174l-32.686,0Zm46.263,-32.6l3.018,0l0,12.541l17.6,0l0,20.059l-32.184,0l0,-40.124l11.566,0l0,7.524Zm31.178,-26.587l2.011,0l0,8.528l2.515,0l0,18.059l2.011,0l0,32.6l-14.583,0l0,-32.6l2.514,0l0,-18.059l2.012,0l0,-8.528l2.011,0l0.503,-16.053l0.503,0l0.503,16.053Zm149.119,34.931l6.561,0l0,9.006l4.369,0l0,-10.251l5.311,-3.102l8.435,0l0,7.765l4.369,0l0,-29.817l22.18,0l0,33.229l4.685,0l0,-49.38l16.871,-6.83l0,63.357l3.748,0l0,-42.236l4.372,0l2.81,-3.418l11.248,0l2.81,3.104l4.06,0l0,30.708l3.438,0l0,8.113l3.473,1.51l0,6.876l5.586,0l0,5.622l-192.356,0l0,-1.982l-2.577,0l0,1.982l-1.331,0l0,-1.982l-2.574,0l0,1.982l-55.555,0l0,-41.128l18.103,0l0,35.506l7.635,0l0,-22.981l4.37,-3.418l4.374,0l0,-20.497l6.249,0l0,-9.628l7.807,0l0,-4.66l5.311,0l0,4.66l4.687,0l0,34.164l7.495,0l0,8.075l4.375,0l0,-11.183l6.87,0l0,-4.036l10.621,0l0,6.831l2.81,0l0,27.649l3.75,0l0,-25.468l13.746,1.863l0,6.523l3.435,0l0,5.232l4.063,0l0,-61.137l24.366,-8.697l0,58.074Zm-37.729,21.421l-2.341,0l0,1.866l2.341,0l0,-1.866Zm3.905,0l-2.343,0l0,1.866l2.343,0l0,-1.866Zm-7.813,0l-2.341,0l0,1.866l2.341,0l0,-1.866Zm-89.882,-1.171l-2.514,0l0,3.01l2.514,0l0,-3.01Zm-30.675,0l-2.514,0l0,3.01l2.514,0l0,-3.01Zm-11.566,0l-2.514,0l0,3.01l2.514,0l0,-3.01Zm8.046,0l-2.514,0l0,3.01l2.514,0l0,-3.01Zm-4.023,0l-2.514,0l0,3.01l2.514,0l0,-3.01Zm-158.243,0.226l-1.666,0l0,2.499l1.666,0l0,-2.499Zm-9.996,0l-1.666,0l0,2.499l1.666,0l0,-2.499Zm150.639,-0.728l-2.011,0l0,3.01l2.011,0l0,-3.01Zm-57.326,0l-3.52,0l0,3.01l3.52,0l0,-3.01Zm-11.064,0l-3.52,0l0,3.01l3.52,0l0,-3.01Zm149.814,0.667l-2.343,0l0,1.86l2.343,0l0,-1.86Zm15.617,0l-2.341,0l0,1.86l2.341,0l0,-1.86Zm-3.902,0l-2.343,0l0,1.86l2.343,0l0,-1.86Zm31.241,0l-2.341,0l0,1.86l2.341,0l0,-1.86Zm7.81,0l-2.341,0l0,1.86l2.341,0l0,-1.86Zm-46.861,0l-2.344,0l0,1.86l2.344,0l0,-1.86Zm-21.968,-0.165l-2.011,0l0,1.897l0.72,-0.716l1.291,0l0,-1.181Zm-179.847,0.226l-1.666,0l0,1.666l1.666,0l0,-1.666Zm17.493,-0.833l-1.666,0l0,2.499l1.666,0l0,-2.499Zm9.996,0l-1.666,0l0,2.499l1.666,0l0,-2.499Zm-34.153,0.833l-1.666,0l0,1.666l1.666,0l0,-1.666Zm16.66,0l-1.666,0l0,1.666l1.666,0l0,-1.666Zm280.469,-0.585l-2.732,0l0,2.173l2.732,0l0,-2.173Zm4.554,0l-2.732,0l0,2.173l2.732,0l0,-2.173Zm-9.102,0l-2.732,0l0,2.173l2.732,0l0,-2.173Zm37.346,-0.278l-2.341,0l0,1.863l2.341,0l0,-1.863Zm-3.902,0l-2.344,0l0,1.863l2.344,0l0,-1.863Zm7.81,0l-2.344,0l0,1.863l2.344,0l0,-1.863Zm-372.986,-0.803l-1.666,0l0,1.666l1.666,0l0,-1.666Zm-79.135,0l-1.666,0l0,1.666l1.666,0l0,-1.666Zm-14.161,-0.833l-1.666,0l0,2.499l1.666,0l0,-2.499Zm86.632,0.833l-1.666,0l0,1.666l1.666,0l0,-1.666Zm-99.96,-0.833l-1.666,0l0,2.499l1.666,0l0,-2.499Zm374.324,0.419l-2.574,0l0,2.019l2.574,0l0,-2.019Zm175.474,-1.013l-3.525,0l0,2.802l3.525,0l0,-2.802Zm5.871,0l-3.522,0l0,2.802l3.522,0l0,-2.802Zm-11.748,0l-3.525,0l0,2.802l3.525,0l0,-2.802Zm-5.873,0l-3.522,0l0,2.802l3.522,0l0,-2.802Zm-316.895,-0.645l-2.514,0l0,3.01l2.514,0l0,-3.01Zm201.285,0.804l-2.343,0l0,1.863l2.343,0l0,-1.863Zm-7.813,0l-2.341,0l0,1.863l2.341,0l0,-1.863Zm-289.675,-1.231l-1.666,0l0,2.499l1.666,0l0,-2.499Zm-9.996,0l-1.666,0l0,2.499l1.666,0l0,-2.499Zm167.548,-0.576l-2.514,0l0,3.01l2.514,0l0,-3.01Zm38.218,0l-2.011,0l0,3.01l2.011,0l0,-3.01Zm-34.195,0l-2.514,0l0,3.01l2.514,0l0,-3.01Zm7.543,0l-2.514,0l0,3.01l2.514,0l0,-3.01Zm30.675,0l-2.514,0l0,3.01l2.514,0l0,-3.01Zm4.023,0l-2.514,0l0,3.01l2.514,0l0,-3.01Zm3.52,0l-2.011,0l0,3.01l2.011,0l0,-3.01Zm14.158,0.8l-2.341,0l0,1.86l2.341,0l0,-1.86Zm19.522,0l-2.341,0l0,1.86l2.341,0l0,-1.86Zm-7.81,0l-2.341,0l0,1.86l2.341,0l0,-1.86Zm39.052,0l-2.341,0l0,1.86l2.341,0l0,-1.86Zm3.907,0l-2.341,0l0,1.86l2.341,0l0,-1.86Zm3.905,0l-2.343,0l0,1.86l2.343,0l0,-1.86Zm-50.766,0l-2.344,0l0,1.86l2.344,0l0,-1.86Zm-148.187,-1.302l-3.52,0l0,3.01l3.52,0l0,-3.01Zm66.881,0l-2.514,0l0,3.01l2.514,0l0,-3.01Zm-4.023,0l-2.011,0l0,3.01l2.011,0l0,-3.01Zm-82.333,0.245l-1.666,0l0,2.499l1.666,0l0,-2.499Zm-9.996,0l-1.666,0l0,2.499l1.666,0l0,-2.499Zm-27.489,0.833l-1.666,0l0,1.666l1.666,0l0,-1.666Zm9.996,0l-1.666,0l0,1.666l1.666,0l0,-1.666Zm316.599,-0.578l-2.341,0l0,1.86l2.341,0l0,-1.86Zm-3.902,0l-2.344,0l0,1.86l2.344,0l0,-1.86Zm-24.342,-0.369l-2.732,0l0,2.173l2.732,0l0,-2.173Zm-9.102,0l-2.732,0l0,2.173l2.732,0l0,-2.173Zm-331.732,-0.719l-1.666,0l0,2.499l1.666,0l0,-2.499Zm-75.803,0l-1.666,0l0,2.499l1.666,0l0,-2.499Zm343.503,-0.133l-2.574,0l0,2.02l2.574,0l0,-2.02Zm-370.992,-0.7l-1.666,0l0,2.499l1.666,0l0,-2.499Zm6.664,0l-1.666,0l0,2.499l1.666,0l0,-2.499Zm6.664,0l-1.666,0l0,2.499l1.666,0l0,-2.499Zm208.516,-1.087l-2.514,0l0,3.01l2.514,0l0,-3.01Zm-4.023,0l-2.514,0l0,3.01l2.514,0l0,-3.01Zm294.924,1.185l-2.205,0l0,1.755l2.205,0l0,-1.755Zm7.353,0l-2.208,0l0,1.755l2.208,0l0,-1.755Zm3.674,0l-2.205,0l0,1.755l2.205,0l0,-1.755Zm-104.666,-0.25l-2.343,0l0,1.86l2.343,0l0,-1.86Zm-3.905,0l-2.341,0l0,1.86l2.341,0l0,-1.86Zm-3.908,0l-2.341,0l0,1.86l2.341,0l0,-1.86Zm-172.855,-1.436l-2.514,0l0,3.01l2.514,0l0,-3.01Zm-4.023,0l-2.514,0l0,3.01l2.514,0l0,-3.01Zm82.973,-0.502l-2.011,0l0,3.01l2.011,0l0,-3.01Zm11.566,0l-2.011,0l0,3.01l2.011,0l0,-3.01Zm-7.543,0l-2.514,0l0,3.01l2.514,0l0,-3.01Zm-178.968,0.424l-1.666,0l0,2.499l1.666,0l0,-2.499Zm-14.161,0.833l-1.666,0l0,1.666l1.666,0l0,-1.666Zm30.821,-0.833l-1.666,0l0,2.499l1.666,0l0,-2.499Zm-9.996,0l-1.666,0l0,2.499l1.666,0l0,-2.499Zm-63.308,0.833l-0.833,0l0,1.666l0.833,0l0,-1.666Zm32.487,0l-1.666,0l0,1.666l1.666,0l0,-1.666Zm-42.483,0l-0.833,0l0,1.666l0.833,0l0,-1.666Zm267.309,-0.329l-2.341,0l0,1.863l2.341,0l0,-1.863Zm19.522,0l-2.341,0l0,1.863l2.341,0l0,-1.863Zm27.339,0l-2.341,0l0,1.863l2.341,0l0,-1.863Zm3.903,0l-2.341,0l0,1.863l2.341,0l0,-1.863Zm-35.144,0l-2.343,0l0,1.863l2.343,0l0,-1.863Zm-11.715,0l-2.343,0l0,1.863l2.343,0l0,-1.863Zm50.766,0l-2.341,0l0,1.863l2.341,0l0,-1.863Zm-46.861,0l-2.344,0l0,1.863l2.344,0l0,-1.863Zm3.902,0l-2.341,0l0,1.863l2.341,0l0,-1.863Zm179.892,-1.107l-3.522,0l0,2.802l3.522,0l0,-2.802Zm5.873,0l-3.525,0l0,2.802l3.525,0l0,-2.802Zm-249.853,-0.323l-2.514,0l0,3.01l2.514,0l0,-3.01Zm-88.001,0l-3.52,0l0,3.01l3.52,0l0,-3.01Zm80.458,0l-2.514,0l0,3.01l2.514,0l0,-3.01Zm4.023,0l-2.514,0l0,3.01l2.514,0l0,-3.01Zm-90.013,0l-3.52,0l0,3.01l3.52,0l0,-3.01Zm11.064,0l-3.52,0l0,3.01l3.52,0l0,-3.01Zm279.164,0.576l-2.838,0l0,2.26l2.838,0l0,-2.26Zm14.185,0l-2.838,0l0,2.26l2.838,0l0,-2.26Zm-9.455,0l-2.838,0l0,2.26l2.838,0l0,-2.26Zm-325.561,0.35l-1.666,0l0,1.666l1.666,0l0,-1.666Zm13.328,0l-1.666,0l0,1.666l1.666,0l0,-1.666Zm288.54,-0.298l-2.344,0l0,1.863l2.344,0l0,-1.863Zm-24.342,-1.009l-2.732,0l0,2.173l2.732,0l0,-2.173Zm4.554,0l-2.732,0l0,2.173l2.732,0l0,-2.173Zm-13.656,0l-2.732,0l0,2.173l2.732,0l0,-2.173Zm-397.539,-0.359l-1.666,0l0,2.499l1.666,0l0,-2.499Zm62.475,0l-1.666,0l0,2.499l1.666,0l0,-2.499Zm-79.135,0l-1.666,0l0,2.499l1.666,0l0,-2.499Zm354.075,0.153l-2.577,0l0,2.017l2.577,0l0,-2.017Zm-378.232,-0.153l-1.666,0l0,1.666l1.666,0l0,-1.666Zm519.753,-0.222l-2.208,0l0,1.752l2.208,0l0,-1.752Zm7.351,0l-2.205,0l0,1.752l2.205,0l0,-1.752Zm-11.027,0l-2.205,0l0,1.752l2.205,0l0,-1.752Zm-97.544,-0.481l-2.341,0l0,1.863l2.341,0l0,-1.863Zm-303.579,-0.963l-1.666,0l0,2.499l1.666,0l0,-2.499Zm-32.487,0l-0.833,0l0,2.499l0.833,0l0,-2.499Zm45.815,0l-1.666,0l0,2.499l1.666,0l0,-2.499Zm92.871,-0.604l-2.514,0l0,3.01l2.514,0l0,-3.01Zm20.617,-0.501l-2.514,0l0,3.01l2.514,0l0,-3.01Zm27.155,0l-2.011,0l0,3.01l2.011,0l0,-3.01Zm-35.201,0l-2.514,0l0,3.01l2.514,0l0,-3.01Zm132.242,1.058l-2.341,0l0,1.866l2.341,0l0,-1.866Zm-7.81,0l-2.341,0l0,1.866l2.341,0l0,-1.866Zm-7.807,0l-2.343,0l0,1.866l2.343,0l0,-1.866Zm-3.905,0l-2.341,0l0,1.866l2.341,0l0,-1.866Zm15.62,0l-2.343,0l0,1.866l2.343,0l0,-1.866Zm35.144,0l-2.341,0l0,1.863l2.341,0l0,-1.863Zm7.812,0l-2.343,0l0,1.863l2.343,0l0,-1.863Zm-218.428,-0.786l-1.666,0l0,2.499l1.666,0l0,-2.499Zm-40.817,0l-1.666,0l0,2.499l1.666,0l0,-2.499Zm9.996,0l-1.666,0l0,2.499l1.666,0l0,-2.499Zm14.161,0l-1.666,0l0,2.499l1.666,0l0,-2.499Zm124.136,-0.774l-2.514,0l0,3.01l2.514,0l0,-3.01Zm34.698,0l-2.514,0l0,3.01l2.514,0l0,-3.01Zm3.52,0l-2.011,0l0,3.01l2.011,0l0,-3.01Zm-49.784,0l-2.514,0l0,3.01l2.514,0l0,-3.01Zm25.143,0l-2.011,0l0,3.01l2.011,0l0,-3.01Zm17.098,0l-2.514,0l0,3.01l2.514,0l0,-3.01Zm-38.218,0l-2.514,0l0,3.01l2.514,0l0,-3.01Zm185.275,0.761l-2.344,0l0,1.863l2.344,0l0,-1.863Zm3.902,0l-2.341,0l0,1.863l2.341,0l0,-1.863Zm3.908,0l-2.344,0l0,1.863l2.344,0l0,-1.863Zm-273.543,-1.263l-3.52,0l0,3.01l3.52,0l0,-3.01Zm-150.256,0.443l-1.666,0l0,2.499l1.666,0l0,-2.499Zm-7.497,0l-0.833,0l0,2.499l0.833,0l0,-2.499Zm17.493,0l-1.666,0l0,2.499l1.666,0l0,-2.499Zm429.686,-0.052l-2.838,0l0,2.26l2.838,0l0,-2.26Zm9.455,0l-2.838,0l0,2.26l2.838,0l0,-2.26Zm-14.185,0l-2.838,0l0,2.26l2.838,0l0,-2.26Zm9.46,0l-2.838,0l0,2.26l2.838,0l0,-2.26Zm-393.599,0.052l-1.666,0l0,1.666l1.666,0l0,-1.666Zm-89.964,-0.833l-1.666,0l0,2.499l1.666,0l0,-2.499Zm14.161,0.833l-1.666,0l0,1.666l1.666,0l0,-1.666Zm-24.157,-0.833l-1.666,0l0,2.499l1.666,0l0,-2.499Zm371.568,0.433l-2.577,0l0,2.017l2.577,0l0,-2.017Zm159.816,-1.042l-3.522,0l0,2.802l3.522,0l0,-2.802Zm11.75,0l-3.525,0l0,2.802l3.525,0l0,-2.802Zm5.871,0l-3.522,0l0,2.802l3.522,0l0,-2.802Zm-103.657,0.608l-2.732,0l0,2.173l2.732,0l0,-2.173Zm-9.108,0l-2.732,0l0,2.173l2.732,0l0,-2.173Zm-4.548,0l-2.732,0l0,2.173l2.732,0l0,-2.173Zm77.721,0.288l-2.205,0l0,1.752l2.205,0l0,-1.752Zm7.353,0l-2.208,0l0,1.752l2.208,0l0,-1.752Zm-108.805,-0.707l-2.341,0l0,1.863l2.341,0l0,-1.863Zm3.908,0l-2.341,0l0,1.863l2.341,0l0,-1.863Zm3.905,0l-2.343,0l0,1.863l2.343,0l0,-1.863Zm-333.307,-1.246l-0.833,0l0,2.499l0.833,0l0,-2.499Zm-16.66,0l-0.833,0l0,2.499l0.833,0l0,-2.499Zm281.783,0.236l-2.344,0l0,1.863l2.344,0l0,-1.863Zm-7.81,0l-2.341,0l0,1.863l2.341,0l0,-1.863Zm11.712,0l-2.341,0l0,1.863l2.341,0l0,-1.863Zm7.81,0l-2.341,0l0,1.863l2.341,0l0,-1.863Zm27.339,0l-2.341,0l0,1.863l2.341,0l0,-1.863Zm3.903,0l-2.341,0l0,1.863l2.341,0l0,-1.863Zm-176.055,-1.189l-2.514,0l0,3.01l2.514,0l0,-3.01Zm4.023,0l-2.514,0l0,3.01l2.514,0l0,-3.01Zm-72.737,0.953l-1.666,0l0,1.666l1.666,0l0,-1.666Zm9.996,0l-1.666,0l0,1.666l1.666,0l0,-1.666Zm10.829,-0.833l-1.666,0l0,2.499l1.666,0l0,-2.499Zm9.996,0l-1.666,0l0,2.499l1.666,0l0,-2.499Zm-37.485,0.833l-1.666,0l0,1.666l1.666,0l0,-1.666Zm30.821,-0.833l-1.666,0l0,2.499l1.666,0l0,-2.499Zm131.049,-0.622l-2.011,0l0,3.01l2.011,0l0,-3.01Zm-65.875,0l-2.514,0l0,3.01l2.514,0l0,-3.01Zm27.155,0l-2.011,0l0,3.01l2.011,0l0,-3.01Zm-31.178,0l-2.514,0l0,3.01l2.514,0l0,-3.01Zm-4.023,0l-2.514,0l0,3.01l2.514,0l0,-3.01Zm39.224,0l-2.514,0l0,3.01l2.514,0l0,-3.01Zm202.754,0.889l-2.341,0l0,1.863l2.341,0l0,-1.863Zm3.908,0l-2.344,0l0,1.863l2.344,0l0,-1.863Zm-158.89,-1.391l-2.011,0l0,3.01l2.011,0l0,-3.01Zm11.566,0l-2.011,0l0,3.01l2.011,0l0,-3.01Zm-7.543,0l-2.514,0l0,3.01l2.514,0l0,-3.01Zm-224.783,0.291l-1.666,0l0,2.499l1.666,0l0,-2.499Zm-75.803,0l-1.666,0l0,2.499l1.666,0l0,-2.499Zm38.318,0l-1.666,0l0,2.499l1.666,0l0,-2.499Zm40.817,0l-1.666,0l0,2.499l1.666,0l0,-2.499Zm-62.475,0l-1.666,0l0,2.499l1.666,0l0,-2.499Zm170.782,-0.792l-3.52,0l0,3.01l3.52,0l0,-3.01Zm-11.064,0l-3.52,0l0,3.01l3.52,0l0,-3.01Zm173.789,0.674l-2.574,0l0,2.02l2.574,0l0,-2.02Zm152.78,0.085l-2.205,0l0,1.752l2.205,0l0,-1.752Zm-3.674,0l-2.208,0l0,1.752l2.208,0l0,-1.752Zm-263.054,-1.261l-2.514,0l0,3.01l2.514,0l0,-3.01Zm-4.023,0l-2.514,0l0,3.01l2.514,0l0,-3.01Zm248.595,0.707l-2.838,0l0,2.257l2.838,0l0,-2.257Zm-4.725,0l-2.838,0l0,2.257l2.838,0l0,-2.257Zm-9.46,0l-2.838,0l0,2.257l2.838,0l0,-2.257Zm-490.763,-0.246l-1.666,0l0,2.499l1.666,0l0,-2.499Zm13.328,0l-1.666,0l0,2.499l1.666,0l0,-2.499Zm-9.996,0l-1.666,0l0,2.499l1.666,0l0,-2.499Zm444.126,-0.364l-2.732,0l0,2.173l2.732,0l0,-2.173Zm-4.554,0l-2.732,0l0,2.173l2.732,0l0,-2.173Zm-24.371,0.226l-2.341,0l0,1.863l2.341,0l0,-1.863Zm-3.908,0l-2.341,0l0,1.863l2.341,0l0,-1.863Zm-286.343,-0.695l-1.666,0l0,1.666l1.666,0l0,-1.666Zm-9.996,0l-1.666,0l0,1.666l1.666,0l0,-1.666Zm40.817,-0.833l-1.666,0l0,2.499l1.666,0l0,-2.499Zm-6.664,0l-1.666,0l0,2.499l1.666,0l0,-2.499Zm-3.332,0l-1.666,0l0,2.499l1.666,0l0,-2.499Zm255.913,0.522l-2.343,0l0,1.86l2.343,0l0,-1.86Zm-11.715,0l-2.341,0l0,1.86l2.341,0l0,-1.86Zm-31.241,0l-2.343,0l0,1.86l2.343,0l0,-1.86Zm3.902,0l-2.341,0l0,1.86l2.341,0l0,-1.86Zm35.149,0l-2.341,0l0,1.86l2.341,0l0,-1.86Zm-42.959,0l-2.341,0l0,1.86l2.341,0l0,-1.86Zm-7.807,0l-2.343,0l0,1.86l2.343,0l0,-1.86Zm3.905,0l-2.344,0l0,1.86l2.344,0l0,-1.86Zm-133.101,-1.324l-2.514,0l0,3.01l2.514,0l0,-3.01Zm334.516,0.185l-3.522,0l0,2.802l3.522,0l0,-2.802Zm-17.621,0l-3.522,0l0,2.802l3.522,0l0,-2.802Zm5.873,0l-3.525,0l0,2.802l3.525,0l0,-2.802Zm-310.197,-0.686l-2.514,0l0,3.01l2.514,0l0,-3.01Zm35.201,0l-2.011,0l0,3.01l2.011,0l0,-3.01Zm-82.333,1.303l-1.666,0l0,1.666l1.666,0l0,-1.666Zm-16.66,0l-1.666,0l0,1.666l1.666,0l0,-1.666Zm9.996,0l-1.666,0l0,1.666l1.666,0l0,-1.666Zm-3.332,0l-1.666,0l0,1.666l1.666,0l0,-1.666Zm303.014,-0.281l-2.344,0l0,1.863l2.344,0l0,-1.863Zm-7.81,0l-2.344,0l0,1.863l2.344,0l0,-1.863Zm-143.034,-1.524l-2.514,0l0,3.01l2.514,0l0,-3.01Zm-8.046,0l-2.011,0l0,3.01l2.011,0l0,-3.01Zm-13.075,0l-2.011,0l0,3.01l2.011,0l0,-3.01Zm-259.331,0.972l-0.833,0l0,1.666l0.833,0l0,-1.666Zm58.31,-0.833l-1.666,0l0,2.499l1.666,0l0,-2.499Zm-69.139,0l-1.666,0l0,2.499l1.666,0l0,-2.499Zm-9.996,0l-1.666,0l0,2.499l1.666,0l0,-2.499Zm72.471,0l-1.666,0l0,2.499l1.666,0l0,-2.499Zm-40.817,0.833l-1.666,0l0,1.666l1.666,0l0,-1.666Zm152.456,-1.473l-3.52,0l0,3.01l3.52,0l0,-3.01Zm-5.532,0l-3.52,0l0,3.01l3.52,0l0,-3.01Zm310.01,1.113l-2.205,0l0,1.755l2.205,0l0,-1.755Zm7.353,0l-2.208,0l0,1.755l2.208,0l0,-1.755Zm-149.106,-0.308l-2.574,0l0,2.02l2.574,0l0,-2.02Zm3.908,0l-2.577,0l0,2.02l2.577,0l0,-2.02Zm-368.236,-0.165l-1.666,0l0,1.666l1.666,0l0,-1.666Zm3.332,0l-1.666,0l0,1.666l1.666,0l0,-1.666Zm-9.996,0l-1.666,0l0,1.666l1.666,0l0,-1.666Zm3.332,0l-1.666,0l0,1.666l1.666,0l0,-1.666Zm253.712,-1.644l-2.514,0l0,3.01l2.514,0l0,-3.01Zm-8.046,0l-2.514,0l0,3.01l2.514,0l0,-3.01Zm243.163,0.522l-2.838,0l0,2.257l2.838,0l0,-2.257Zm-4.73,0l-2.838,0l0,2.257l2.838,0l0,-2.257Zm14.185,0l-2.838,0l0,2.257l2.838,0l0,-2.257Zm-389.994,-0.544l-1.666,0l0,2.499l1.666,0l0,-2.499Zm16.66,0l-1.666,0l0,2.499l1.666,0l0,-2.499Zm-6.664,0l-1.666,0l0,2.499l1.666,0l0,-2.499Zm327.062,0.106l-2.732,0l0,2.173l2.732,0l0,-2.173Zm-13.656,0l-2.732,0l0,2.173l2.732,0l0,-2.173Zm4.548,0l-2.732,0l0,2.173l2.732,0l0,-2.173Zm-49.599,-0.138l-2.341,0l0,1.863l2.341,0l0,-1.863Zm-35.149,0l-2.341,0l0,1.863l2.341,0l0,-1.863Zm39.052,0l-2.341,0l0,1.863l2.341,0l0,-1.863Zm-35.144,0l-2.343,0l0,1.863l2.343,0l0,-1.863Zm39.051,0l-2.341,0l0,1.863l2.341,0l0,-1.863Zm3.905,0l-2.343,0l0,1.863l2.343,0l0,-1.863Zm-58.576,0l-2.341,0l0,1.863l2.341,0l0,-1.863Zm3.905,0l-2.343,0l0,1.863l2.343,0l0,-1.863Zm-170.421,-0.801l-1.666,0l0,2.499l1.666,0l0,-2.499Zm-6.664,0l-1.666,0l0,2.499l1.666,0l0,-2.499Zm-27.489,0l-1.666,0l0,2.499l1.666,0l0,-2.499Zm24.157,0l-1.666,0l0,2.499l1.666,0l0,-2.499Zm13.328,0l-1.666,0l0,2.499l1.666,0l0,-2.499Zm-20.825,0l-1.666,0l0,2.499l1.666,0l0,-2.499Zm-83.3,-0.833l-0.833,0l0,2.499l0.833,0l0,-2.499Zm-6.664,0l-0.833,0l0,2.499l0.833,0l0,-2.499Zm16.66,0l-0.833,0l0,2.499l0.833,0l0,-2.499Zm183.817,-0.82l-2.514,0l0,3.01l2.514,0l0,-3.01Zm-4.023,0l-2.011,0l0,3.01l2.011,0l0,-3.01Zm-31.178,0l-2.514,0l0,3.01l2.514,0l0,-3.01Zm4.023,0l-2.514,0l0,3.01l2.514,0l0,-3.01Zm-8.046,0l-2.514,0l0,3.01l2.514,0l0,-3.01Zm293.38,0.969l-2.205,0l0,1.755l2.205,0l0,-1.755Zm-3.674,0l-2.208,0l0,1.755l2.208,0l0,-1.755Zm-3.677,0l-2.208,0l0,1.755l2.208,0l0,-1.755Zm-199.033,-1.471l-2.011,0l0,3.01l2.011,0l0,-3.01Zm8.046,0l-2.514,0l0,3.01l2.514,0l0,-3.01Zm-4.023,0l-2.514,0l0,3.01l2.514,0l0,-3.01Zm-17.098,0l-2.011,0l0,3.01l2.011,0l0,-3.01Zm-283.488,1.322l-1.666,0l0,1.666l1.666,0l0,-1.666Zm-7.497,-0.833l-1.666,0l0,2.499l1.666,0l0,-2.499Zm-16.66,0l-1.666,0l0,2.499l1.666,0l0,-2.499Zm3.332,0l-1.666,0l0,2.499l1.666,0l0,-2.499Zm99.96,0.833l-1.666,0l0,1.666l1.666,0l0,-1.666Zm-40.817,0l-1.666,0l0,1.666l1.666,0l0,-1.666Zm-31.654,0l-1.666,0l0,1.666l1.666,0l0,-1.666Zm9.996,0l-1.666,0l0,1.666l1.666,0l0,-1.666Zm-27.489,-0.833l-1.666,0l0,2.499l1.666,0l0,-2.499Zm52.479,0.833l-1.666,0l0,1.666l1.666,0l0,-1.666Zm-31.654,0l-1.666,0l0,1.666l1.666,0l0,-1.666Zm-27.489,-0.833l-1.666,0l0,2.499l1.666,0l0,-2.499Zm543.134,-0.626l-3.525,0l0,2.802l3.525,0l0,-2.802Zm-5.877,0l-3.525,0l0,2.802l3.525,0l0,-2.802Zm11.748,0l-3.522,0l0,2.802l3.522,0l0,-2.802Zm-17.621,0l-3.522,0l0,2.802l3.522,0l0,-2.802Zm-337.513,-0.364l-3.52,0l0,3.01l3.52,0l0,-3.01Zm5.532,0l-3.52,0l0,3.01l3.52,0l0,-3.01Zm50.286,-0.502l-2.514,0l0,3.01l2.514,0l0,-3.01Zm-4.023,0l-2.514,0l0,3.01l2.514,0l0,-3.01Zm8.046,0l-2.514,0l0,3.01l2.514,0l0,-3.01Zm-145.422,-0.174l-1.666,0l0,2.499l1.666,0l0,-2.499Zm16.66,0l-1.666,0l0,2.499l1.666,0l0,-2.499Zm-9.996,0l-1.666,0l0,2.499l1.666,0l0,-2.499Zm6.664,0l-1.666,0l0,2.499l1.666,0l0,-2.499Zm362.481,0.008l-2.838,0l0,2.257l2.838,0l0,-2.257Zm4.73,0l-2.838,0l0,2.257l2.838,0l0,-2.257Zm4.73,0l-2.838,0l0,2.257l2.838,0l0,-2.257Zm4.725,0l-2.838,0l0,2.257l2.838,0l0,-2.257Zm-146.792,-0.448l-2.341,0l0,2.484l2.341,0l0,-2.484Zm7.81,0l-2.341,0l0,2.484l2.341,0l0,-2.484Zm-3.902,0l-2.343,0l0,2.484l2.343,0l0,-2.484Zm85.394,0.189l-2.732,0l0,2.173l2.732,0l0,-2.173Zm-4.554,0l-2.732,0l0,2.173l2.732,0l0,-2.173Zm9.108,0l-2.732,0l0,2.173l2.732,0l0,-2.173Zm-13.656,0l-2.732,0l0,2.173l2.732,0l0,-2.173Zm-251.764,-0.582l-1.666,0l0,2.499l1.666,0l0,-2.499Zm-3.332,0l-1.666,0l0,2.499l1.666,0l0,-2.499Zm-30.821,0.833l-1.666,0l0,1.666l1.666,0l0,-1.666Zm20.825,-0.833l-1.666,0l0,2.499l1.666,0l0,-2.499Zm-10.829,0.833l-1.666,0l0,1.666l1.666,0l0,-1.666Zm17.493,-0.833l-1.666,0l0,2.499l1.666,0l0,-2.499Zm-9.996,0l-1.666,0l0,2.499l1.666,0l0,-2.499Zm-24.157,0.833l-1.666,0l0,1.666l1.666,0l0,-1.666Zm13.328,0l-1.666,0l0,1.666l1.666,0l0,-1.666Zm17.493,-0.833l-1.666,0l0,2.499l1.666,0l0,-2.499Zm-94.129,0l-0.833,0l0,1.666l0.833,0l0,-1.666Zm-34.153,-0.833l-0.833,0l0,2.499l0.833,0l0,-2.499Zm10.829,0l-1.666,0l0,2.499l1.666,0l0,-2.499Zm40.817,0l-1.666,0l0,2.499l1.666,0l0,-2.499Zm-47.481,0l-1.666,0l0,2.499l1.666,0l0,-2.499Zm-28.322,0l-1.666,0l0,2.499l1.666,0l0,-2.499Zm82.467,0l-1.666,0l0,2.499l1.666,0l0,-2.499Zm-69.139,0l-1.666,0l0,2.499l1.666,0l0,-2.499Zm-6.664,0l-1.666,0l0,2.499l1.666,0l0,-2.499Zm41.65,0.833l-0.833,0l0,1.666l0.833,0l0,-1.666Zm30.821,-0.833l-1.666,0l0,2.499l1.666,0l0,-2.499Zm423.812,0.662l-2.205,0l0,1.755l2.205,0l0,-1.755Zm-7.351,0l-2.208,0l0,1.755l2.208,0l0,-1.755Zm-250.828,-1.832l-2.011,0l0,3.01l2.011,0l0,-3.01Zm-27.155,0l-2.514,0l0,3.01l2.514,0l0,-3.01Zm65.875,0l-2.011,0l0,3.01l2.011,0l0,-3.01Zm-73.921,0l-2.514,0l0,3.01l2.514,0l0,-3.01Zm95.042,-0.501l-2.514,0l0,3.01l2.514,0l0,-3.01Zm-4.023,0l-2.514,0l0,3.01l2.514,0l0,-3.01Zm7.543,0l-2.011,0l0,3.01l2.011,0l0,-3.01Zm-79.956,-1.004l-2.514,0l0,3.01l2.514,0l0,-3.01Zm-134.044,1.009l-1.666,0l0,1.666l1.666,0l0,-1.666Zm3.332,0l-1.666,0l0,1.666l1.666,0l0,-1.666Zm6.664,0l-1.666,0l0,1.666l1.666,0l0,-1.666Zm20.825,-0.833l-1.666,0l0,2.499l1.666,0l0,-2.499Zm3.332,0l-1.666,0l0,2.499l1.666,0l0,-2.499Zm3.332,0l-1.666,0l0,2.499l1.666,0l0,-2.499Zm3.332,0l-1.666,0l0,2.499l1.666,0l0,-2.499Zm206.863,-0.158l-2.341,0l0,2.487l2.341,0l0,-2.487Zm3.907,0l-2.344,0l0,2.487l2.344,0l0,-2.487Zm-15.619,0l-2.344,0l0,2.487l2.344,0l0,-2.487Zm3.902,0l-2.341,0l0,2.487l2.341,0l0,-2.487Zm179.892,-0.477l-3.522,0l0,2.802l3.522,0l0,-2.802Zm11.75,0l-3.525,0l0,2.802l3.525,0l0,-2.802Zm5.871,0l-3.522,0l0,2.802l3.522,0l0,-2.802Zm-55.446,0.102l-2.838,0l0,2.257l2.838,0l0,-2.257Zm4.725,0l-2.838,0l0,2.257l2.838,0l0,-2.257Zm-14.185,0l-2.838,0l0,2.257l2.838,0l0,-2.257Zm-320.831,0.533l-1.666,0l0,1.666l1.666,0l0,-1.666Zm16.66,0l-1.666,0l0,1.666l1.666,0l0,-1.666Zm-110.789,-0.833l-0.833,0l0,2.499l0.833,0l0,-2.499Zm97.461,0.833l-1.666,0l0,1.666l1.666,0l0,-1.666Zm-84.133,-0.833l-0.833,0l0,2.499l0.833,0l0,-2.499Zm87.465,0.833l-1.666,0l0,1.666l1.666,0l0,-1.666Zm6.664,0l-1.666,0l0,1.666l1.666,0l0,-1.666Zm255.096,-0.613l-2.732,0l0,2.173l2.732,0l0,-2.173Zm13.656,0l-2.732,0l0,2.173l2.732,0l0,-2.173Zm-4.554,0l-2.732,0l0,2.173l2.732,0l0,-2.173Zm68.619,0.118l-2.205,0l0,1.755l2.205,0l0,-1.755Zm7.353,0l-2.208,0l0,1.755l2.208,0l0,-1.755Zm-3.677,0l-2.208,0l0,1.755l2.208,0l0,-1.755Zm-460.61,-1.171l-1.666,0l0,2.499l1.666,0l0,-2.499Zm-31.654,0l-1.666,0l0,2.499l1.666,0l0,-2.499Zm75.803,0l-1.666,0l0,2.499l1.666,0l0,-2.499Zm-62.475,0l-1.666,0l0,2.499l1.666,0l0,-2.499Zm-9.996,0l-1.666,0l0,2.499l1.666,0l0,-2.499Zm69.139,0l-1.666,0l0,2.499l1.666,0l0,-2.499Zm-65.807,0l-1.666,0l0,2.499l1.666,0l0,-2.499Zm203.594,-1.018l-2.514,0l0,3.01l2.514,0l0,-3.01Zm69.898,-0.502l-2.011,0l0,3.01l2.011,0l0,-3.01Zm13.075,0l-2.011,0l0,3.01l2.011,0l0,-3.01Zm11.566,0l-2.011,0l0,3.01l2.011,0l0,-3.01Zm-3.52,0l-2.514,0l0,3.01l2.514,0l0,-3.01Zm-197.152,-0.146l-1.666,0l0,2.499l1.666,0l0,-2.499Zm-13.328,0l-1.666,0l0,2.499l1.666,0l0,-2.499Zm6.664,0l-1.666,0l0,2.499l1.666,0l0,-2.499Zm-9.996,0l-1.666,0l0,2.499l1.666,0l0,-2.499Zm13.328,0l-1.666,0l0,2.499l1.666,0l0,-2.499Zm241.591,-0.708l-2.344,0l0,2.484l2.344,0l0,-2.484Zm-3.907,0l-2.341,0l0,2.484l2.341,0l0,-2.484Zm-3.902,0l-2.343,0l0,2.484l2.343,0l0,-2.484Zm-3.908,0l-2.341,0l0,2.484l2.341,0l0,-2.484Zm-212.381,-0.125l-1.666,0l0,2.499l1.666,0l0,-2.499Zm16.66,0l-1.666,0l0,2.499l1.666,0l0,-2.499Zm-13.328,0l-1.666,0l0,2.499l1.666,0l0,-2.499Zm107.246,-0.526l-2.514,0l0,3.01l2.514,0l0,-3.01Zm4.023,0l-2.514,0l0,3.01l2.514,0l0,-3.01Zm259.377,0.543l-2.208,0l0,1.752l2.208,0l0,-1.752Zm7.351,0l-2.205,0l0,1.752l2.205,0l0,-1.752Zm-454.633,-0.017l-0.833,0l0,1.666l0.833,0l0,-1.666Zm6.664,0l-0.833,0l0,1.666l0.833,0l0,-1.666Zm6.664,0l-0.833,0l0,1.666l0.833,0l0,-1.666Zm357.105,-0.976l-2.732,0l0,2.173l2.732,0l0,-2.173Zm9.108,0l-2.732,0l0,2.173l2.732,0l0,-2.173Zm48.211,-0.092l-2.838,0l0,2.257l2.838,0l0,-2.257Zm-4.73,0l-2.838,0l0,2.257l2.838,0l0,-2.257Zm-4.73,0l-2.838,0l0,2.257l2.838,0l0,-2.257Zm-456.61,0.235l-1.666,0l0,1.666l1.666,0l0,-1.666Zm6.664,0l-1.666,0l0,1.666l1.666,0l0,-1.666Zm-16.66,0l-1.666,0l0,1.666l1.666,0l0,-1.666Zm28.322,0l-1.666,0l0,1.666l1.666,0l0,-1.666Zm9.996,0l-1.666,0l0,1.666l1.666,0l0,-1.666Zm37.485,0l-1.666,0l0,1.666l1.666,0l0,-1.666Zm-69.139,0l-1.666,0l0,1.666l1.666,0l0,-1.666Zm34.986,0l-1.666,0l0,1.666l1.666,0l0,-1.666Zm40.817,0l-1.666,0l0,1.666l1.666,0l0,-1.666Zm443.174,-1.474l-3.525,0l0,2.802l3.525,0l0,-2.802Zm-11.75,0l-3.522,0l0,2.802l3.522,0l0,-2.802Zm5.873,0l-3.525,0l0,2.802l3.525,0l0,-2.802Zm-302.151,-0.727l-2.514,0l0,3.01l2.514,0l0,-3.01Zm-4.023,0l-2.514,0l0,3.01l2.514,0l0,-3.01Zm69.898,-0.501l-2.011,0l0,3.01l2.011,0l0,-3.01Zm-189.359,0.203l-1.666,0l0,2.499l1.666,0l0,-2.499Zm-3.332,0l-1.666,0l0,2.499l1.666,0l0,-2.499Zm6.664,0l-1.666,0l0,2.499l1.666,0l0,-2.499Zm9.996,0l-1.666,0l0,2.499l1.666,0l0,-2.499Zm-3.332,0l-1.666,0l0,2.499l1.666,0l0,-2.499Zm241.591,-0.423l-2.344,0l0,2.484l2.344,0l0,-2.484Zm-7.809,0l-2.343,0l0,2.484l2.343,0l0,-2.484Zm-7.81,0l-2.344,0l0,2.484l2.344,0l0,-2.484Zm3.902,0l-2.341,0l0,2.484l2.341,0l0,-2.484Zm-97.78,-1.286l-2.514,0l0,3.512l2.514,0l0,-3.512Zm-8.046,0l-2.514,0l0,3.512l2.514,0l0,-3.512Zm-96.559,1.709l-1.666,0l0,1.666l1.666,0l0,-1.666Zm3.332,0l-1.666,0l0,1.666l1.666,0l0,-1.666Zm3.332,0l-1.666,0l0,1.666l1.666,0l0,-1.666Zm-73.304,-0.833l-0.833,0l0,2.499l0.833,0l0,-2.499Zm-16.66,0l-0.833,0l0,2.499l0.833,0l0,-2.499Zm9.996,0l-0.833,0l0,2.499l0.833,0l0,-2.499Zm63.308,0.833l-1.666,0l0,1.666l1.666,0l0,-1.666Zm-69.972,-0.833l-0.833,0l0,2.499l0.833,0l0,-2.499Zm73.304,0.833l-1.666,0l0,1.666l1.666,0l0,-1.666Zm3.332,0l-1.666,0l0,1.666l1.666,0l0,-1.666Zm374.665,-0.306l-2.205,0l0,1.752l2.205,0l0,-1.752Zm-11.027,0l-2.205,0l0,1.752l2.205,0l0,-1.752Zm7.353,0l-2.208,0l0,1.752l2.208,0l0,-1.752Zm-492.609,-1.36l-1.666,0l0,2.499l1.666,0l0,-2.499Zm28.322,0l-1.666,0l0,2.499l1.666,0l0,-2.499Zm44.149,0l-1.666,0l0,2.499l1.666,0l0,-2.499Zm-75.803,0l-1.666,0l0,2.499l1.666,0l0,-2.499Zm13.328,0l-1.666,0l0,2.499l1.666,0l0,-2.499Zm65.807,0l-1.666,0l0,2.499l1.666,0l0,-2.499Zm-69.139,0l-1.666,0l0,2.499l1.666,0l0,-2.499Zm62.475,0l-1.666,0l0,2.499l1.666,0l0,-2.499Zm342.944,-0.503l-2.732,0l0,2.173l2.732,0l0,-2.173Zm4.554,0l-2.732,0l0,2.173l2.732,0l0,-2.173Zm-9.102,0l-2.732,0l0,2.173l2.732,0l0,-2.173Zm13.656,0l-2.732,0l0,2.173l2.732,0l0,-2.173Zm52.936,-0.267l-2.838,0l0,2.257l2.838,0l0,-2.257Zm-14.185,0l-2.838,0l0,2.257l2.838,0l0,-2.257Zm4.73,0l-2.838,0l0,2.257l2.838,0l0,-2.257Zm-187.848,-2.283l-2.011,0l0,3.512l2.011,0l0,-3.512Zm-186.027,0.554l-1.666,0l0,2.499l1.666,0l0,-2.499Zm-6.664,0l-1.666,0l0,2.499l1.666,0l0,-2.499Zm13.328,0l-1.666,0l0,2.499l1.666,0l0,-2.499Zm34.153,0l-1.666,0l0,2.499l1.666,0l0,-2.499Zm-37.485,0l-1.666,0l0,2.499l1.666,0l0,-2.499Zm27.489,0l-1.666,0l0,2.499l1.666,0l0,-2.499Zm-20.825,0l-1.666,0l0,2.499l1.666,0l0,-2.499Zm24.157,0l-1.666,0l0,2.499l1.666,0l0,-2.499Zm198.483,-0.143l-2.344,0l0,2.487l2.344,0l0,-2.487Zm11.712,0l-2.341,0l0,2.487l2.341,0l0,-2.487Zm3.907,0l-2.344,0l0,2.487l2.344,0l0,-2.487Zm-7.809,0l-2.343,0l0,2.487l2.343,0l0,-2.487Zm193.605,-0.507l-3.522,0l0,2.802l3.522,0l0,-2.802Zm-11.748,0l-3.525,0l0,2.802l3.525,0l0,-2.802Zm-16.817,0.856l-2.205,0l0,1.752l2.205,0l0,-1.752Zm-3.674,0l-2.208,0l0,1.752l2.208,0l0,-1.752Zm-3.677,0l-2.208,0l0,1.752l2.208,0l0,-1.752Zm-3.676,0l-2.205,0l0,1.752l2.205,0l0,-1.752Zm-430.278,-1.039l-0.833,0l0,2.499l0.833,0l0,-2.499Zm170.554,-0.724l-2.514,0l0,3.01l2.514,0l0,-3.01Zm4.023,0l-2.514,0l0,3.01l2.514,0l0,-3.01Zm-160.416,-0.109l-1.666,0l0,2.499l1.666,0l0,-2.499Zm-62.475,0l-1.666,0l0,2.499l1.666,0l0,-2.499Zm18.326,0l-1.666,0l0,2.499l1.666,0l0,-2.499Zm-21.658,0l-1.666,0l0,2.499l1.666,0l0,-2.499Zm72.471,0l-1.666,0l0,2.499l1.666,0l0,-2.499Zm-3.332,0l-1.666,0l0,2.499l1.666,0l0,-2.499Zm-79.135,0l-1.666,0l0,2.499l1.666,0l0,-2.499Zm38.318,0l-1.666,0l0,2.499l1.666,0l0,-2.499Zm-14.161,0l-0.833,0l0,2.499l0.833,0l0,-2.499Zm-20.825,0l-1.666,0l0,2.499l1.666,0l0,-2.499Zm410.867,-0.863l-2.732,0l0,2.173l2.732,0l0,-2.173Zm13.656,0l-2.732,0l0,2.173l2.732,0l0,-2.173Zm-9.108,0l-2.732,0l0,2.173l2.732,0l0,-2.173Zm-73.031,-1.493l-2.344,0l0,2.484l2.344,0l0,-2.484Zm-15.619,0l-2.344,0l0,2.484l2.344,0l0,-2.484Zm7.81,0l-2.343,0l0,2.484l2.343,0l0,-2.484Zm-3.908,0l-2.341,0l0,2.484l2.341,0l0,-2.484Zm-209.049,-0.143l-1.666,0l0,2.499l1.666,0l0,-2.499Zm3.332,0l-1.666,0l0,2.499l1.666,0l0,-2.499Zm6.664,0l-1.666,0l0,2.499l1.666,0l0,-2.499Zm-3.332,0l-1.666,0l0,2.499l1.666,0l0,-2.499Zm-24.157,0.833l-1.666,0l0,1.666l1.666,0l0,-1.666Zm30.821,-0.833l-1.666,0l0,2.499l1.666,0l0,-2.499Zm-37.485,0.833l-1.666,0l0,1.666l1.666,0l0,-1.666Zm20.825,-0.833l-1.666,0l0,2.499l1.666,0l0,-2.499Zm-24.157,0.833l-1.666,0l0,1.666l1.666,0l0,-1.666Zm-6.664,0l-1.666,0l0,1.666l1.666,0l0,-1.666Zm3.332,0l-1.666,0l0,1.666l1.666,0l0,-1.666Zm405.144,-0.121l-2.208,0l0,1.755l2.208,0l0,-1.755Zm-7.353,0l-2.205,0l0,1.755l2.205,0l0,-1.755Zm-443.606,-0.712l-0.833,0l0,1.666l0.833,0l0,-1.666Zm9.996,0l-0.833,0l0,1.666l0.833,0l0,-1.666Zm-6.664,0l-0.833,0l0,1.666l0.833,0l0,-1.666Zm176.527,-1.906l-2.514,0l0,3.01l2.514,0l0,-3.01Zm4.023,0l-2.514,0l0,3.01l2.514,0l0,-3.01Zm-153.061,0.24l-1.666,0l0,2.499l1.666,0l0,-2.499Zm-54.978,0.833l-0.833,0l0,1.666l0.833,0l0,-1.666Zm17.493,0l-1.666,0l0,1.666l1.666,0l0,-1.666Zm-13.328,0l-1.666,0l0,1.666l1.666,0l0,-1.666Zm47.481,-0.833l-1.666,0l0,2.499l1.666,0l0,-2.499Zm-72.471,0.833l-1.666,0l0,1.666l1.666,0l0,-1.666Zm3.332,0l-1.666,0l0,1.666l1.666,0l0,-1.666Zm6.664,0l-1.666,0l0,1.666l1.666,0l0,-1.666Zm3.332,0l-1.666,0l0,1.666l1.666,0l0,-1.666Zm406.641,-2.058l-2.732,0l0,2.173l2.732,0l0,-2.173Zm4.554,0l-2.732,0l0,2.173l2.732,0l0,-2.173Zm-13.656,0l-2.732,0l0,2.173l2.732,0l0,-2.173Zm81.397,-0.05l-2.208,0l0,1.755l2.208,0l0,-1.755Zm7.351,0l-2.205,0l0,1.755l2.205,0l0,-1.755Zm-11.027,0l-2.205,0l0,1.755l2.205,0l0,-1.755Zm-433.61,-1.224l-0.833,0l0,2.499l0.833,0l0,-2.499Zm6.664,0l-0.833,0l0,2.499l0.833,0l0,-2.499Zm69.972,0.833l-1.666,0l0,1.666l1.666,0l0,-1.666Zm-3.332,0l-1.666,0l0,1.666l1.666,0l0,-1.666Zm-3.332,0l-1.666,0l0,1.666l1.666,0l0,-1.666Zm-3.332,0l-1.666,0l0,1.666l1.666,0l0,-1.666Zm-73.304,-0.833l-0.833,0l0,2.499l0.833,0l0,-2.499Zm-44.982,-0.833l-1.666,0l0,2.499l1.666,0l0,-2.499Zm3.332,0l-1.666,0l0,2.499l1.666,0l0,-2.499Zm24.99,0l-1.666,0l0,2.499l1.666,0l0,-2.499Zm-18.326,0l-1.666,0l0,2.499l1.666,0l0,-2.499Zm11.662,0l-1.666,0l0,2.499l1.666,0l0,-2.499Zm-28.322,0l-1.666,0l0,2.499l1.666,0l0,-2.499Zm31.654,0l-1.666,0l0,2.499l1.666,0l0,-2.499Zm304.55,-0.256l-2.656,0l0,2.252l2.656,0l0,-2.252Zm11.715,0l-2.656,0l0,2.252l2.656,0l0,-2.252Zm-3.905,0l-2.656,0l0,2.252l2.656,0l0,-2.252Zm-264.879,0.256l-1.666,0l0,1.666l1.666,0l0,-1.666Zm3.332,0l-1.666,0l0,1.666l1.666,0l0,-1.666Zm-6.664,0l-1.666,0l0,1.666l1.666,0l0,-1.666Zm419.793,-1.598l-2.208,0l0,1.752l2.208,0l0,-1.752Zm7.351,0l-2.205,0l0,1.752l2.205,0l0,-1.752Zm-3.674,0l-2.208,0l0,1.752l2.208,0l0,-1.752Zm-367.659,-0.901l-1.666,0l0,2.499l1.666,0l0,-2.499Zm-9.996,0l-1.666,0l0,2.499l1.666,0l0,-2.499Zm6.664,0l-1.666,0l0,2.499l1.666,0l0,-2.499Zm9.996,0l-1.666,0l0,2.499l1.666,0l0,-2.499Zm-13.328,0l-1.666,0l0,2.499l1.666,0l0,-2.499Zm289.249,0.081l-2.732,0l0,2.173l2.732,0l0,-2.173Zm9.102,0l-2.732,0l0,2.173l2.732,0l0,-2.173Zm-361.659,-0.914l-0.833,0l0,2.499l0.833,0l0,-2.499Zm-13.328,0l-0.833,0l0,2.499l0.833,0l0,-2.499Zm3.332,0l-0.833,0l0,2.499l0.833,0l0,-2.499Zm3.332,0l-0.833,0l0,2.499l0.833,0l0,-2.499Zm-13.328,-0.833l-1.666,0l0,2.499l1.666,0l0,-2.499Zm-17.493,0l-0.833,0l0,2.499l0.833,0l0,-2.499Zm14.161,0l-1.666,0l0,2.499l1.666,0l0,-2.499Zm37.485,0l-1.666,0l0,2.499l1.666,0l0,-2.499Zm-69.139,0l-1.666,0l0,2.499l1.666,0l0,-2.499Zm21.658,0l-1.666,0l0,2.499l1.666,0l0,-2.499Zm-11.662,0l-1.666,0l0,2.499l1.666,0l0,-2.499Zm-6.664,0l-1.666,0l0,2.499l1.666,0l0,-2.499Zm72.471,0l-1.666,0l0,2.499l1.666,0l0,-2.499Zm-82.467,0l-1.666,0l0,2.499l1.666,0l0,-2.499Zm336.204,0.029l-2.656,0l0,2.252l2.656,0l0,-2.252Zm11.715,0l-2.656,0l0,2.252l2.656,0l0,-2.252Zm147.677,-1.115l-2.208,0l0,1.752l2.208,0l0,-1.752Zm7.351,0l-2.205,0l0,1.752l2.205,0l0,-1.752Zm-11.027,0l-2.205,0l0,1.752l2.205,0l0,-1.752Zm-363.638,-1.413l-1.666,0l0,2.499l1.666,0l0,-2.499Zm9.996,0l-1.666,0l0,2.499l1.666,0l0,-2.499Zm-13.328,0l-1.666,0l0,2.499l1.666,0l0,-2.499Zm-3.332,0l-1.666,0l0,2.499l1.666,0l0,-2.499Zm9.996,0l-1.666,0l0,2.499l1.666,0l0,-2.499Zm3.332,0l-1.666,0l0,2.499l1.666,0l0,-2.499Zm288.355,-0.28l-2.732,0l0,2.171l2.732,0l0,-2.171Zm-4.554,0l-2.732,0l0,2.171l2.732,0l0,-2.171Zm9.108,0l-2.732,0l0,2.171l2.732,0l0,-2.171Zm-13.656,0l-2.732,0l0,2.171l2.732,0l0,-2.171Zm-352.557,-0.553l-0.833,0l0,2.499l0.833,0l0,-2.499Zm-6.664,0l-0.833,0l0,2.499l0.833,0l0,-2.499Zm-6.664,0l-0.833,0l0,2.499l0.833,0l0,-2.499Zm16.66,0l-0.833,0l0,2.499l0.833,0l0,-2.499Zm17.493,-0.833l-1.666,0l0,2.499l1.666,0l0,-2.499Zm-50.813,0.833l-1.666,0l0,1.666l1.666,0l0,-1.666Zm47.481,-0.833l-1.666,0l0,2.499l1.666,0l0,-2.499Zm-3.332,0l-1.666,0l0,2.499l1.666,0l0,-2.499Zm-51.646,0.833l-0.833,0l0,1.666l0.833,0l0,-1.666Zm475.116,-1.409l-2.208,0l0,1.752l2.208,0l0,-1.752Zm-7.353,0l-2.205,0l0,1.752l2.205,0l0,-1.752Zm11.027,0l-2.205,0l0,1.752l2.205,0l0,-1.752Zm-364.669,-1.09l-1.666,0l0,1.666l1.666,0l0,-1.666Zm-16.66,0l-1.666,0l0,1.666l1.666,0l0,-1.666Zm6.664,0l-1.666,0l0,1.666l1.666,0l0,-1.666Zm6.664,0l-1.666,0l0,1.666l1.666,0l0,-1.666Zm-76.636,-0.833l-0.833,0l0,1.666l0.833,0l0,-1.666Zm-23.324,-0.833l-1.666,0l0,2.499l1.666,0l0,-2.499Zm16.66,0.833l-0.833,0l0,1.666l0.833,0l0,-1.666Zm3.332,0l-0.833,0l0,1.666l0.833,0l0,-1.666Zm-13.328,-0.833l-1.666,0l0,2.499l1.666,0l0,-2.499Zm-17.493,0l-0.833,0l0,2.499l0.833,0l0,-2.499Zm40.817,0.833l-0.833,0l0,1.666l0.833,0l0,-1.666Zm-33.32,-0.833l-1.666,0l0,2.499l1.666,0l0,-2.499Zm396.201,0.188l-2.732,0l0,2.173l2.732,0l0,-2.173Zm-4.554,0l-2.732,0l0,2.173l2.732,0l0,-2.173Zm-288.355,-2.687l-1.666,0l0,2.499l1.666,0l0,-2.499Zm-13.328,0l-1.666,0l0,2.499l1.666,0l0,-2.499Zm3.332,0l-1.666,0l0,2.499l1.666,0l0,-2.499Zm3.332,0l-1.666,0l0,2.499l1.666,0l0,-2.499Zm3.332,0l-1.666,0l0,2.499l1.666,0l0,-2.499Zm-76.636,-0.833l-0.833,0l0,2.499l0.833,0l0,-2.499Zm6.664,0l-0.833,0l0,2.499l0.833,0l0,-2.499Zm-13.328,0l-0.833,0l0,2.499l0.833,0l0,-2.499Zm-6.664,-0.833l-1.666,0l0,2.499l1.666,0l0,-2.499Zm-3.332,0l-1.666,0l0,2.499l1.666,0l0,-2.499Zm-9.996,0l-1.666,0l0,2.499l1.666,0l0,-2.499Zm399.533,-0.169l-2.732,0l0,2.173l2.732,0l0,-2.173Zm-9.108,0l-2.732,0l0,2.173l2.732,0l0,-2.173Zm-4.548,0l-2.732,0l0,2.173l2.732,0l0,-2.173Zm-362.553,-3.163l-0.833,0l0,2.499l0.833,0l0,-2.499Zm9.996,0l-0.833,0l0,2.499l0.833,0l0,-2.499Zm-13.328,0l-0.833,0l0,2.499l0.833,0l0,-2.499Zm9.996,0l-0.833,0l0,2.499l0.833,0l0,-2.499Zm6.664,0l-0.833,0l0,2.499l0.833,0l0,-2.499Zm-9.996,0l-0.833,0l0,2.499l0.833,0l0,-2.499Zm-13.328,0l-1.666,0l0,1.666l1.666,0l0,-1.666Zm-3.332,0l-1.666,0l0,1.666l1.666,0l0,-1.666Zm-14.161,0l-0.833,0l0,1.666l0.833,0l0,-1.666Zm7.497,0l-1.666,0l0,1.666l1.666,0l0,-1.666Zm-3.332,0l-1.666,0l0,1.666l1.666,0l0,-1.666Zm26.656,-3.332l-0.833,0l0,1.666l0.833,0l0,-1.666Zm-3.332,0l-0.833,0l0,1.666l0.833,0l0,-1.666Zm6.664,0l-0.833,0l0,1.666l0.833,0l0,-1.666Zm-16.66,-0.833l-1.666,0l0,2.499l1.666,0l0,-2.499Zm6.664,0.833l-0.833,0l0,1.666l0.833,0l0,-1.666Zm-13.328,-0.833l-1.666,0l0,2.499l1.666,0l0,-2.499Zm-10.829,0l-0.833,0l0,2.499l0.833,0l0,-2.499Zm7.497,0l-1.666,0l0,2.499l1.666,0l0,-2.499Zm-3.332,0l-1.666,0l0,2.499l1.666,0l0,-2.499Zm29.988,-3.332l-0.833,0l0,2.499l0.833,0l0,-2.499Zm3.332,0l-0.833,0l0,2.499l0.833,0l0,-2.499Zm3.332,0l-0.833,0l0,2.499l0.833,0l0,-2.499Zm-13.328,0l-0.833,0l0,2.499l0.833,0l0,-2.499Zm-13.328,-0.833l-1.666,0l0,2.499l1.666,0l0,-2.499Zm-14.161,0l-0.833,0l0,2.499l0.833,0l0,-2.499Zm17.493,0l-1.666,0l0,2.499l1.666,0l0,-2.499Zm-9.996,0l-1.666,0l0,2.499l1.666,0l0,-2.499Zm3.332,0l-1.666,0l0,2.499l1.666,0l0,-2.499Zm23.324,-3.332l-0.833,0l0,2.499l0.833,0l0,-2.499Zm-3.332,0l-0.833,0l0,2.499l0.833,0l0,-2.499Zm-6.664,0l-0.833,0l0,2.499l0.833,0l0,-2.499Zm3.332,0l-0.833,0l0,2.499l0.833,0l0,-2.499Zm13.328,0l-0.833,0l0,2.499l0.833,0l0,-2.499Zm-33.32,0l-1.666,0l0,1.666l1.666,0l0,-1.666Zm-3.332,0l-1.666,0l0,1.666l1.666,0l0,-1.666Zm6.664,0l-1.666,0l0,1.666l1.666,0l0,-1.666Zm-10.829,0l-0.833,0l0,1.666l0.833,0l0,-1.666Zm17.493,0l-1.666,0l0,1.666l1.666,0l0,-1.666Zm6.664,-3.332l-0.833,0l0,1.666l0.833,0l0,-1.666Zm6.664,0l-0.833,0l0,1.666l0.833,0l0,-1.666Zm3.332,0l-0.833,0l0,1.666l0.833,0l0,-1.666Zm3.332,0l-0.833,0l0,1.666l0.833,0l0,-1.666Zm-13.328,-4.165l-0.833,0l0,2.499l0.833,0l0,-2.499Zm13.328,0l-0.833,0l0,2.499l0.833,0l0,-2.499Zm-9.996,0l-0.833,0l0,2.499l0.833,0l0,-2.499Zm13.328,0l-0.833,0l0,2.499l0.833,0l0,-2.499Zm-9.996,0l-0.833,0l0,2.499l0.833,0l0,-2.499Zm0,-4.165l-0.833,0l0,2.499l0.833,0l0,-2.499Zm6.664,0l-0.833,0l0,2.499l0.833,0l0,-2.499Zm3.332,0l-0.833,0l0,2.499l0.833,0l0,-2.499Zm-16.66,0l-0.833,0l0,2.499l0.833,0l0,-2.499Zm0,-3.332l-0.833,0l0,1.666l0.833,0l0,-1.666Zm16.66,0l-0.833,0l0,1.666l0.833,0l0,-1.666Zm-13.328,0l-0.833,0l0,1.666l0.833,0l0,-1.666Zm3.332,0l-0.833,0l0,1.666l0.833,0l0,-1.666Zm3.332,0l-0.833,0l0,1.666l0.833,0l0,-1.666Zm3.332,0l-0.833,0l0,1.666l0.833,0l0,-1.666Zm-13.328,-4.165l-0.833,0l0,2.499l0.833,0l0,-2.499Zm6.664,0l-0.833,0l0,2.499l0.833,0l0,-2.499Zm9.996,0l-0.833,0l0,2.499l0.833,0l0,-2.499Zm-6.664,0l-0.833,0l0,2.499l0.833,0l0,-2.499Zm0,-4.165l-0.833,0l0,2.499l0.833,0l0,-2.499Zm-3.332,0l-0.833,0l0,2.499l0.833,0l0,-2.499Zm9.996,0l-0.833,0l0,2.499l0.833,0l0,-2.499Zm-16.66,0l-0.833,0l0,2.499l0.833,0l0,-2.499Zm13.328,0l-0.833,0l0,2.499l0.833,0l0,-2.499Zm-9.996,0l-0.833,0l0,2.499l0.833,0l0,-2.499Z" style="fill:#FFD401;fill-rule:nonzero;"/></svg>